<svg id="Capa_1" enable-background="new 0 0 501 501" height="512" viewBox="0 0 501 501" width="512" xmlns="http://www.w3.org/2000/svg"><g><path d="m380.727 460c-39.521 26.347-87.132 41.515-138.315 40.987-134.944-1.394-242.697-110.566-242.411-245.517.285-135.066 109.866-244.47 244.999-244.47 123.08 0 224.962 90.758 242.373 209-62.367 14.117-106.647 69.54-106.647 133.485z" fill="#eac23f"/><path d="m415.098 432.328c-10.585 10.213-22.087 19.483-34.371 27.672h-178.727c-8.284 0-15-6.716-15-15v-33h219.804c10.623 0 15.939 12.952 8.294 20.328z" fill="#8078bf"/><path d="m190.385 146.889-38.349 66.421c-2.68 4.641-7.631 7.5-12.99 7.5h-15.106v119.19c0 11.046-8.954 20-20 20h-6.487c-11.046 0-20-8.954-20-20v-119.189h-15.104c-5.359 0-10.311-2.859-12.99-7.5l-38.349-66.422c-2.68-4.641-2.68-10.359 0-15l33.543-58.098c5.653-9.792 16.1-15.823 27.407-15.823 2.209 0 4 1.791 4 4v84.105c0 13.044 10.096 23.729 22.899 24.67 14.593 1.072 26.576-10.732 26.576-25.365v-83.411c0-2.209 1.791-4 4-4 11.306 0 21.754 6.032 27.407 15.823l33.543 58.098c2.679 4.642 2.679 10.36 0 15.001z" fill="#51489a"/><path d="m77.454 220.811h-15.105c-5.359 0-10.311-2.859-12.99-7.5l-38.349-66.422c-2.68-4.641-2.68-10.359 0-15l33.543-58.098c5.653-9.791 16.1-15.823 27.406-15.823 2.209 0 4 1.791 4 4v1.252c-2.148 2.097-4.03 4.502-5.572 7.173l-35.281 61.108c-2.818 4.881-2.818 10.896 0 15.777z" fill="#453d83"/><path d="m489.635 269.481c-.372 6.862-1.027 13.649-1.952 20.349-.193 1.394-4.422 1.998-4.638 3.384-3.712 23.835-10.859 46.533-20.921 67.572-.602 1.26 2.81 3.3 2.186 4.548-5.493 10.997-11.789 21.524-18.812 31.503-.421.598-3.823-.431-4.25.164-2.708 3.776-5.521 7.472-8.434 11.084-.619.767 1.736 3.157 1.108 3.916-6.405 7.748-13.278 15.096-20.575 22h-187.81v11c0 8.284 6.716 15 15 15h-38.537c-8.284 0-15-6.716-15-15v-210.001c0-8.284 6.716-15 15-15h285.374c1.19 8.084 1.986 16.295 2.367 24.615.172 3.774.136 20.403-.106 24.866z" fill="#6a61b4"/><path d="m224.5 235v199h-22.5c-8.284 0-15-6.716-15-15v-184c0-8.284 6.716-15 15-15h37.5c-8.284 0-15 6.716-15 15z" fill="#5f55af"/><path d="m219 262v-10c0-5.523 4.477-10 10-10h15c5.523 0 10 4.477 10 10v10c0 5.523-4.477 10-10 10h-15c-5.523 0-10-4.477-10-10zm105 10h15c5.523 0 10-4.477 10-10v-10c0-5.523-4.477-10-10-10h-15c-5.523 0-10 4.477-10 10v10c0 5.523 4.477 10 10 10zm96.5 0h15c5.523 0 10-4.477 10-10v-10c0-5.523-4.477-10-10-10h-15c-5.523 0-10 4.477-10 10v10c0 5.523 4.477 10 10 10zm-47.5 0h15c5.523 0 10-4.477 10-10v-10c0-5.523-4.477-10-10-10h-15c-5.523 0-10 4.477-10 10v10c0 5.523 4.477 10 10 10zm-96.5 46.667h15c5.523 0 10-4.477 10-10v-10c0-5.523-4.477-10-10-10h-15c-5.523 0-10 4.477-10 10v10c0 5.522 4.477 10 10 10zm-47.5 0h15c5.523 0 10-4.477 10-10v-10c0-5.523-4.477-10-10-10h-15c-5.523 0-10 4.477-10 10v10c0 5.522 4.477 10 10 10zm95 0h15c5.523 0 10-4.477 10-10v-10c0-5.523-4.477-10-10-10h-15c-5.523 0-10 4.477-10 10v10c0 5.522 4.477 10 10 10zm96.5 0h15c5.523 0 10-4.477 10-10v-10c0-5.523-4.477-10-10-10h-15c-5.523 0-10 4.477-10 10v10c0 5.522 4.477 10 10 10zm-47.5 0h15c5.523 0 10-4.477 10-10v-10c0-5.523-4.477-10-10-10h-15c-5.523 0-10 4.477-10 10v10c0 5.522 4.477 10 10 10zm-144 46.666h45c5.523 0 10-4.478 10-10v-10c0-5.523-4.477-10-10-10h-45c-5.523 0-10 4.477-10 10v10c0 5.523 4.477 10 10 10zm70-10c0 5.522 4.477 10 10 10h15c5.523 0 10-4.478 10-10v-10c0-5.523-4.477-10-10-10h-15c-5.523 0-10 4.477-10 10zm49 0c0 5.522 4.477 10 10 10h15c5.523 0 10-4.478 10-10v-10c0-5.523-4.477-10-10-10h-15c-5.523 0-10 4.477-10 10zm41 26.667h-112.5c-5.523 0-10 4.477-10 10v10c0 5.523 4.477 10 10 10h112.5c5.523 0 10-4.477 10-10v-10c0-5.523-4.477-10-10-10zm-145 0h-15c-5.523 0-10 4.477-10 10v10c0 5.523 4.477 10 10 10h15c5.523 0 10-4.477 10-10v-10c0-5.523-4.477-10-10-10zm191.5 0h-15c-5.523 0-10 4.477-10 10v10c0 5.523 4.477 10 10 10h13.424c4.049-4.898 7.912-9.957 11.576-15.164v-4.836c0-5.523-4.477-10-10-10zm54.24-137.387c-1.778-1.623-4.143-2.613-6.74-2.613h-15c-5.523 0-10 4.477-10 10v10c0 5.523 4.477 10 10 10h15c2.546 0 4.87-.952 6.635-2.52.242-4.463.365-8.957.365-13.48 0-3.817-.088-7.613-.26-11.387zm-21.74 44.054c-5.523 0-10 4.477-10 10v36.667h-49c-5.523 0-10 4.477-10 10v10c0 5.522 4.477 10 10 10h55.311c11.637-23.297 19.671-48.709 23.372-75.504-1.397-.742-2.991-1.163-4.683-1.163z" fill="#958fca"/><path d="m414 150h-150c-41.421 0-75-33.579-75-75 0-41.421 33.579-75 75-75h150c41.421 0 75 33.579 75 75 0 41.421-33.579 75-75 75z" fill="#55a4f9"/><path d="m501 75c0 41.421-33.579 75-75 75h-18.327l-28.487 43.595c-1.973 3.02-6.398 3.02-8.371 0l-28.488-43.595h-38.327c-41.421 0-75-33.579-75-75 0-41.421 33.579-75 75-75h122c41.421 0 75 33.579 75 75z" fill="#86befb"/><path d="m351 120c0 5.523-4.477 10-10 10s-10-4.477-10-10c0-5.523 4.477-10 10-10s10 4.477 10 10zm25-10c-5.523 0-10 4.477-10 10 0 5.523 4.477 10 10 10s10-4.477 10-10c0-5.523-4.477-10-10-10zm35 0c-5.523 0-10 4.477-10 10 0 5.523 4.477 10 10 10s10-4.477 10-10c0-5.523-4.477-10-10-10zm-70-60h60c5.523 0 10-4.477 10-10 0-5.523-4.477-10-10-10h-60c-5.523 0-10 4.477-10 10 0 5.523 4.477 10 10 10zm100 0h10c5.523 0 10-4.477 10-10 0-5.523-4.477-10-10-10h-10c-5.523 0-10 4.477-10 10 0 5.523 4.477 10 10 10zm-70 30c0-5.523-4.477-10-10-10h-20c-5.523 0-10 4.477-10 10s4.477 10 10 10h20c5.523 0 10-4.477 10-10zm93-10h-63c-5.523 0-10 4.477-10 10 0 5.523 4.477 10 10 10h63c5.523 0 10-4.477 10-10 0-5.523-4.477-10-10-10z" fill="#1380e2"/><path d="m82.421 439.287c-8.388-7.446-16.262-15.459-23.561-23.98v-114.496c0-11.046 8.954-20 20-20h29.461c-11.028.021-19.961 8.967-19.961 20v135.782c-.001 3.075-3.639 4.735-5.939 2.694z" fill="#d1462a"/><path d="m142.535 300.811v169.189c0 2.791-.572 5.449-1.605 7.862-21.501-10.103-41.294-23.24-58.827-38.858v-138.193c0-11.046 8.954-20 20-20h20.432c11.046 0 20 8.954 20 20z" fill="#f76937"/><path d="m123.94 314.054v142.703c0 3.952-2.293 7.368-5.621 8.992-6.05-3.662-11.929-7.578-17.622-11.734v-139.961c0-5.523 4.477-10 10-10h3.243c5.523 0 10 4.477 10 10z" fill="#d1462a"/><path d="m266.285 28.431v15.132c0 3.278-2.657 5.935-5.935 5.935h-6.132c-3.278 0-5.935-2.657-5.935-5.935v-15.132c0-3.278 2.657-5.935 5.935-5.935h6.132c3.278 0 5.935 2.657 5.935 5.935zm-5.935 72.071h-6.132c-3.278 0-5.935 2.657-5.935 5.935v15.132c0 3.278 2.657 5.935 5.935 5.935h6.132c3.278 0 5.935-2.657 5.935-5.935v-15.132c0-3.278-2.657-5.935-5.935-5.935zm-28.568-22.436v-6.132c0-3.278-2.657-5.935-5.935-5.935h-15.133c-3.278 0-5.935 2.657-5.935 5.935v6.132c0 3.278 2.657 5.935 5.935 5.935h15.133c3.278 0 5.935-2.657 5.935-5.935zm72.072-12.067h-15.133c-3.278 0-5.935 2.657-5.935 5.935v6.132c0 3.278 2.657 5.935 5.935 5.935h15.133c3.278 0 5.935-2.657 5.935-5.935v-6.132c0-3.278-2.658-5.935-5.935-5.935zm-73.135-30.293c-2.318-2.318-6.075-2.318-8.393 0l-4.336 4.336c-2.318 2.317-2.318 6.075 0 8.393l10.7 10.7c2.318 2.318 6.075 2.318 8.393 0l4.336-4.336c2.318-2.318 2.318-6.075 0-8.393zm55.159 55.159c-2.318-2.318-6.075-2.318-8.393 0l-4.336 4.336c-2.318 2.318-2.318 6.075 0 8.393l10.7 10.7c2.318 2.318 6.075 2.318 8.393 0l4.336-4.336c2.318-2.317 2.318-6.075 0-8.393zm-48.794 0c-2.318-2.318-6.075-2.318-8.393 0l-10.7 10.7c-2.318 2.318-2.318 6.076 0 8.393l4.336 4.336c2.318 2.318 6.075 2.318 8.393 0l10.7-10.7c2.318-2.318 2.318-6.075 0-8.393zm40.401-31.73c2.318 2.318 6.075 2.318 8.393 0l10.7-10.7c2.318-2.318 2.318-6.076 0-8.393l-4.336-4.336c-2.318-2.318-6.075-2.318-8.393 0l-10.7 10.7c-2.318 2.318-2.318 6.075 0 8.393z" fill="#f5e8b4"/><path d="m257.284 35.237c-21.96 0-39.763 17.802-39.763 39.763 0 21.96 17.802 39.762 39.763 39.762 21.96 0 39.762-17.802 39.762-39.762.001-21.96-17.801-39.763-39.762-39.763zm0 59.109c-10.684 0-19.346-8.662-19.346-19.346 0-10.685 8.661-19.346 19.346-19.346 10.684 0 19.346 8.661 19.346 19.346 0 10.684-8.661 19.346-19.346 19.346z" fill="#f9f1d2"/></g></svg>