<svg id="Capa_1" enable-background="new 0 0 501 501" height="512" viewBox="0 0 501 501" width="512" xmlns="http://www.w3.org/2000/svg"><g><path d="m495.498 246.016c-.348 85.82-44.821 161.229-111.907 204.717v-162.378c0-135.69-109.999-245.689-245.689-245.689-7.486 0-9.965-9.986-3.373-13.535 34.751-18.708 74.537-29.271 116.802-29.13 135.81.451 244.718 110.205 244.167 246.015z" fill="#e1b91e"/><path d="m416.5 64.807v254.193c0 16.569-13.431 30-30 30h-357.895c-7.426-15.816-13.21-32.556-17.134-50 48.776-24.524 79.558-74.453 79.558-129.047v-110.953c13.403-11.502 28.063-21.58 43.746-30h231.45c18.27 9.809 35.152 21.868 50.275 35.807z" fill="#8078bf"/><path d="m386.5 349h-220.864c-16.569 0-30-13.431-30-30v-260c0-16.569 13.431-30 30-30h220.864c16.569 0 30 13.431 30 30v260c0 16.569-13.431 30-30 30z" fill="#958fca"/><path d="m386.5 74v210c0 8.284-6.716 15-15 15h-360.029c-3.908-17.374-5.971-35.446-5.971-54 0-74.407 33.17-141.067 85.529-186h280.471c8.284 0 15 6.716 15 15z" fill="#453d83"/><path d="m135.636 299v-240h235.864c8.284 0 15 6.716 15 15v210c0 8.284-6.716 15-15 15z" fill="#51489a"/><path d="m416.5 369v56.193c-20.349 18.756-43.882 34.108-69.698 45.155-1.156.495-3.221-1.825-4.386-1.348-9.008 3.69-17.993 6.306-27.5 8.917-1.173.322-1.736 3.995-2.916 4.3-9.516 2.46-19.256 4.363-29.184 5.671-10.575 1.393-55.553 1.29-66.829-.299-4.68-.66-9.318-1.452-13.91-2.372-1.274-.255-2.436-4.566-3.703-4.841-9.589-2.082-17.241-2.956-26.375-6.125-.891-.309-3.615 1.652-4.501 1.333-3.728-1.342-7.413-2.772-11.055-4.287-1.023-.425-.845-1.94-1.861-2.379-4.545-1.964-7.103-3.315-11.5-5.542-.895-.453-4.898-.576-5.787-1.04-7.38-3.852-14.539-8.068-21.453-12.626-40.602-26.763-12.342-110.71-12.342-110.71h283c16.569 0 30 13.431 30 30z" fill="#6a61b4"/><path d="m115.84 449.707c-7.949-5.24-15.575-10.93-22.842-17.035-.791-.665-1.029-3.373-1.811-4.048-4.858-4.186-8.236-7.013-12.75-11.563-.622-.627-3.103-.765-3.718-1.399-5.171-5.325-10.103-10.885-14.777-16.661-.606-.748 2.071-2.747 1.474-3.503-5.971-7.559-11.507-15.479-16.568-23.721-.81-1.319-4.886-1.4-5.671-2.735-5.655-9.612-10.673-19.646-14.996-30.042h121.659c-16.568 0-30 13.431-30 30z" fill="#5f55af"/><path d="m94.5 339c0 5.523-4.477 10-10 10h-30c-5.523 0-10-4.477-10-10 0-5.523 4.477-10 10-10h30c5.523 0 10 4.477 10 10zm240-10h-30c-5.523 0-10 4.477-10 10 0 5.523 4.477 10 10 10h30c5.523 0 10-4.477 10-10 0-5.523-4.477-10-10-10z" fill="#51489a"/><path d="m93 379v10c0 5.523-4.477 10-10 10h-23.06c-7.643-9.445-14.598-19.471-20.788-29.999.033 0 .065-.001.098-.001h43.75c5.523 0 10 4.477 10 10zm53.5 83.333h-9.207c6.232 3.253 12.621 6.246 19.154 8.964-.519-5.036-4.774-8.964-9.947-8.964zm-6-26.666v-10c0-5.523-4.477-10-10-10h-15c-5.523 0-10 4.477-10 10v10c0 5.523 4.477 10 10 10h15c5.523 0 10-4.478 10-10zm-57.5-20h-8.278c5.799 5.972 11.9 11.649 18.278 17.007v-7.007c0-5.523-4.477-10-10-10zm81.5-16.667h15c5.523 0 10-4.477 10-10v-10c0-5.523-4.477-10-10-10h-15c-5.523 0-10 4.477-10 10v10c0 5.523 4.477 10 10 10zm47.5 0h15c5.523 0 10-4.477 10-10v-10c0-5.523-4.477-10-10-10h-15c-5.523 0-10 4.477-10 10v10c0 5.523 4.477 10 10 10zm-96.5 0h15c5.523 0 10-4.477 10-10v-10c0-5.523-4.477-10-10-10h-15c-5.523 0-10 4.477-10 10v10c0 5.523 4.477 10 10 10zm77 63.333h-15c-5.523 0-10 4.478-10 10v3.25c11.172 4.022 22.72 7.255 34.578 9.632.274-.913.422-1.88.422-2.882v-10c0-5.522-4.477-10-10-10zm-3-26.666v-10c0-5.523-4.477-10-10-10h-15c-5.523 0-10 4.477-10 10v10c0 5.523 4.477 10 10 10h15c5.523 0 10-4.478 10-10zm85-66.667h-15c-5.523 0-10 4.477-10 10v10c0 5.523 4.477 10 10 10h15c5.523 0 10-4.477 10-10v-10c0-5.523-4.477-10-10-10zm0 93.333h-50c-5.523 0-10 4.478-10 10v10c0 1.928.546 3.729 1.491 5.255 11.275 1.59 22.796 2.412 34.509 2.412 10.955 0 21.742-.719 32.317-2.113 1.063-1.588 1.683-3.499 1.683-5.554v-10c0-5.522-4.477-10-10-10zm0-46.666h-15c-5.523 0-10 4.477-10 10v10c0 5.523 4.477 10 10 10h15c5.523 0 10-4.477 10-10v-10c0-5.523-4.477-10-10-10zm62.5 46.666h-15c-5.523 0-10 4.478-10 10v9.884c11.981-3.098 23.606-7.078 34.802-11.869-.921-4.572-4.959-8.015-9.802-8.015zm-100-26.666v-10c0-5.523-4.477-10-10-10h-15c-5.523 0-10 4.477-10 10v10c0 5.523 4.477 10 10 10h15c5.523 0 10-4.478 10-10z" fill="#958fca"/><path d="m484.5 411c0 49.706-40.294 90-90 90s-90-40.294-90-90 40.294-90 90-90 90 40.294 90 90z" fill="#c8e2fd"/><path d="m484.496 410.113c.081 8.375-.983 16.49-3.044 24.197-1.208 4.518-5.257 7.69-9.933 7.69h-.003c-6.733 0-11.652-6.382-9.901-12.884 1.684-6.256 2.518-12.86 2.368-19.682-.808-36.723-30.587-66.776-67.302-67.901-4.527-.139-8.961.156-13.263.845-6.249 1.001-11.918-3.78-11.918-10.109 0-5.006 3.607-9.318 8.549-10.116 4.817-.778 9.763-1.173 14.804-1.153 48.965.188 89.171 40.149 89.643 89.113z" fill="#e9f3fe"/><path d="m464.5 411c0 38.66-31.34 70-70 70s-70-31.34-70-70 31.34-70 70-70 70 31.34 70 70z" fill="#54a770"/><path d="m464.5 411c0 13.553-3.852 26.206-10.52 36.924-10.719 6.668-23.372 10.52-36.924 10.52-38.66 0-70-31.34-70-70 0-13.553 3.852-26.206 10.52-36.924 10.718-6.668 23.371-10.52 36.924-10.52 38.66 0 70 31.34 70 70z" fill="#69b482"/><path d="m447 411c0 14.023-5.461 27.207-15.378 37.123-9.915 9.916-23.099 15.377-37.122 15.377s-27.207-5.461-37.123-15.378c-9.916-9.915-15.377-23.099-15.377-37.122s5.461-27.207 15.378-37.123c2.928-2.929 7.677-2.928 10.606.001s2.929 7.678-.001 10.606c-7.083 7.082-10.983 16.499-10.983 26.516s3.9 19.434 10.983 26.516c7.083 7.084 16.5 10.984 26.517 10.984s19.434-3.9 26.516-10.983c7.084-7.083 10.984-16.5 10.984-26.517s-3.9-19.434-10.983-26.516c-2.93-2.929-2.93-7.678-.001-10.606 2.93-2.93 7.679-2.929 10.606-.001 9.917 9.916 15.378 23.1 15.378 37.123zm-52.5-14.5c4.143 0 7.5-3.357 7.5-7.5v-30c0-4.143-3.357-7.5-7.5-7.5s-7.5 3.357-7.5 7.5v30c0 4.143 3.357 7.5 7.5 7.5z" fill="#fff5f5"/><path d="m334.496 99.343v58.464c0 4.143-3.357 7.5-7.5 7.5s-7.5-3.357-7.5-7.5v-50.964h-4.996c-4.143 0-7.5-3.357-7.5-7.5s3.357-7.5 7.5-7.5h12.496c4.143 0 7.5 3.357 7.5 7.5zm-55.683 106.563v27.038c0 13.458-10.948 24.406-24.406 24.406s-24.406-10.948-24.406-24.406v-27.038c0-13.458 10.949-24.406 24.406-24.406s24.406 10.948 24.406 24.406zm-15 0c0-5.187-4.22-9.406-9.406-9.406-5.187 0-9.406 4.22-9.406 9.406v27.038c0 5.187 4.22 9.406 9.406 9.406 5.187 0 9.406-4.22 9.406-9.406zm-178 0v27.038c0 13.458-10.949 24.406-24.407 24.406-13.457.001-24.406-10.948-24.406-24.406v-27.038c0-13.458 10.949-24.406 24.406-24.406 13.458 0 24.407 10.948 24.407 24.406zm-15 0c0-5.187-4.22-9.406-9.407-9.406s-9.406 4.22-9.406 9.406v27.038c0 5.187 4.22 9.406 9.406 9.406 5.187 0 9.407-4.22 9.407-9.406z" fill="#fff5f5"/><path d="m168.314 99.343v58.464c0 4.143-3.358 7.5-7.5 7.5s-7.5-3.357-7.5-7.5v-50.964h-4.996c-4.142 0-7.5-3.357-7.5-7.5s3.358-7.5 7.5-7.5h12.496c4.142 0 7.5 3.357 7.5 7.5zm37.186 83.35h-12.496c-4.142 0-7.5 3.357-7.5 7.5s3.358 7.5 7.5 7.5h4.996v50.964c0 4.143 3.358 7.5 7.5 7.5s7.5-3.357 7.5-7.5v-58.464c0-4.142-3.358-7.5-7.5-7.5z" fill="#c1bde0"/><path d="m124.496 190.193v58.464c0 4.143-3.358 7.5-7.5 7.5s-7.5-3.357-7.5-7.5v-50.964h-4.996c-4.142 0-7.5-3.357-7.5-7.5s3.358-7.5 7.5-7.5h12.496c4.142 0 7.5 3.358 7.5 7.5zm-65.459-98.069c-3.809 4.764-7.444 9.673-10.895 14.719h1.355v50.964c0 4.143 3.358 7.5 7.5 7.5s7.5-3.357 7.5-7.5v-58.464c-.001-3.435-2.31-6.331-5.46-7.219zm282.963 113.782v27.038c0 13.458-10.948 24.406-24.406 24.406s-24.406-10.948-24.406-24.406v-27.038c0-13.458 10.948-24.406 24.406-24.406s24.406 10.948 24.406 24.406zm-15 0c0-5.187-4.22-9.406-9.406-9.406s-9.406 4.22-9.406 9.406v27.038c0 5.187 4.22 9.406 9.406 9.406s9.406-4.22 9.406-9.406zm-31.187-63.812c0 13.458-10.948 24.406-24.406 24.406s-24.407-10.948-24.407-24.406v-27.038c0-13.458 10.948-24.406 24.406-24.406s24.406 10.948 24.406 24.406v27.038zm-15-27.038c0-5.187-4.22-9.406-9.406-9.406s-9.406 4.22-9.406 9.406v27.038c0 5.187 4.22 9.406 9.406 9.406s9.406-4.22 9.406-9.406zm-45 0v27.038c0 13.458-10.949 24.406-24.407 24.406s-24.406-10.948-24.406-24.406v-27.038c0-13.458 10.949-24.406 24.406-24.406 13.458-.001 24.407 10.948 24.407 24.406zm-15 0c0-5.187-4.22-9.406-9.407-9.406s-9.406 4.22-9.406 9.406v27.038c0 5.187 4.22 9.406 9.406 9.406 5.187 0 9.407-4.22 9.407-9.406zm-59.999 67.637h-12.496c-4.142 0-7.5 3.357-7.5 7.5s3.358 7.5 7.5 7.5h4.996v50.964c0 4.143 3.358 7.5 7.5 7.5s7.5-3.357 7.5-7.5v-58.464c0-4.142-3.358-7.5-7.5-7.5zm-28.819-67.637v27.038c0 13.458-10.949 24.406-24.406 24.406-13.458 0-24.407-10.948-24.407-24.406v-27.038c0-13.458 10.949-24.406 24.407-24.406 13.457-.001 24.406 10.948 24.406 24.406zm-15 0c0-5.187-4.22-9.406-9.406-9.406-5.187 0-9.407 4.22-9.407 9.406v27.038c0 5.187 4.22 9.406 9.407 9.406s9.406-4.22 9.406-9.406z" fill="#8078bf"/></g></svg>