<svg id="Capa_1" enable-background="new 0 0 501 501" height="512" viewBox="0 0 501 501" width="512" xmlns="http://www.w3.org/2000/svg"><g><path d="m495.5 256c0 135.31-109.69 245-245 245s-245-109.69-245-245 109.69-245 245-245 245 109.69 245 245z" fill="#76b6fa"/><path d="m70.303 225.377c-8.773 8.773-8.772 23.048 0 31.82 2.929 2.929 2.929 7.678 0 10.606-2.929 2.929-7.678 2.929-10.606 0-14.622-14.621-14.621-38.412 0-53.033 2.929-2.929 7.678-2.929 10.606 0 1.464 1.464 2.197 3.384 2.197 5.303s-.732 3.84-2.197 5.304zm-20-20c1.464-1.464 2.197-3.384 2.197-5.303s-.732-3.839-2.197-5.303c-2.929-2.929-7.678-2.929-10.606 0-25.649 25.649-25.649 67.383 0 93.033 2.929 2.929 7.678 2.929 10.606 0 2.929-2.929 2.929-7.678 0-10.606-19.801-19.801-19.802-52.019 0-71.821zm374.96 9.394c-2.929-2.929-7.678-2.929-10.606 0-2.929 2.929-2.929 7.678 0 10.606 8.772 8.772 8.773 23.047 0 31.82-1.464 1.464-2.197 3.384-2.197 5.303s.732 3.839 2.197 5.303c2.929 2.929 7.678 2.929 10.606 0 14.621-14.621 14.622-38.411 0-53.032zm20-20c-2.929-2.929-7.678-2.929-10.606 0-2.929 2.929-2.929 7.678 0 10.606 19.801 19.8 19.802 52.018 0 71.82-1.464 1.464-2.197 3.384-2.197 5.303s.732 3.839 2.197 5.303c2.929 2.929 7.678 2.929 10.606 0 25.649-25.649 25.649-67.383 0-93.032z" fill="#fff5f5"/><path d="m404.5 122v26c0 6.627-5.373 12-12 12h-6c-6.627 0-12-5.373-12-12v-26c0-6.627 5.373-12 12-12h6c6.627 0 12 5.373 12 12zm-12-72h-6c-6.627 0-12 5.373-12 12v26c0 6.627 5.373 12 12 12h6c6.627 0 12-5.373 12-12v-26c0-6.627-5.373-12-12-12zm-236.375-50h-42.625c-16.569 0-30 13.431-30 30v20.378c-5.176 1.332-9 6.03-9 11.622v56c0 5.591 3.824 10.29 9 11.622v305.644c12.232 11.401 25.633 21.564 40.003 30.291 15.267 9.272 49.997 17.312 49.997 14.443v-462.625c0-9.596-7.779-17.375-17.375-17.375z" fill="#453d83"/><path d="m395.5 30v423.504c-40.599 29.857-90.74 47.496-145 47.496-43.386 0-84.139-11.277-119.485-31.061-4.622-2.587-7.515-7.44-7.515-12.737v-427.202c0-16.569 13.431-30 30-30h212c16.569 0 30 13.431 30 30z" fill="#51489a"/><path d="m184.5 50v410c0 5.523-4.477 10-10 10h-43.376c-2.57-1.437-5.112-2.919-7.624-4.444v-415.556c0-5.523 4.477-10 10-10h41c5.523 0 10 4.477 10 10z" fill="#e1b91e"/><path d="m345.5 470h-182c-5.523 0-10-4.477-10-10v-410c0-5.523 4.477-10 10-10h182c5.523 0 10 4.477 10 10v410c0 5.523-4.477 10-10 10z" fill="#e9cc5a"/><path d="m144.5 175v-70c0-2.761 2.239-5 5-5h180c2.761 0 5 2.239 5 5v70c0 2.761-2.239 5-5 5h-180c-2.761 0-5-2.239-5-5zm75 225h110c2.761 0 5-2.239 5-5v-90c0-2.761-2.239-5-5-5h-110c-2.761 0-5 2.239-5 5v90c0 2.761 2.239 5 5 5zm-70 0h40c2.761 0 5-2.239 5-5v-90c0-2.761-2.239-5-5-5h-40c-2.761 0-5 2.239-5 5v90c0 2.761 2.239 5 5 5zm0-120h100c2.761 0 5-2.239 5-5v-70c0-2.761-2.239-5-5-5h-100c-2.761 0-5 2.239-5 5v70c0 2.761 2.239 5 5 5zm130 0h50c2.761 0 5-2.239 5-5v-70c0-2.761-2.239-5-5-5h-50c-2.761 0-5 2.239-5 5v70c0 2.761 2.239 5 5 5z" fill="#f1de96"/><path d="m154.5 450c-5.523 0-10-4.477-10-10 0-5.523 4.477-10 10-10 5.523 0 10 4.477 10 10 0 5.523-4.477 10-10 10zm50-10c0-5.523-4.477-10-10-10-5.523 0-10 4.477-10 10 0 5.523 4.477 10 10 10 5.523 0 10-4.477 10-10zm40 0c0-5.523-4.477-10-10-10-5.523 0-10 4.477-10 10 0 5.523 4.477 10 10 10 5.523 0 10-4.477 10-10zm-60-367v-1c0-3.866-3.134-7-7-7h-26c-3.866 0-7 3.134-7 7v1c0 3.866 3.134 7 7 7h26c3.866 0 7-3.134 7-7z" fill="#f9f1d2"/><path d="m279.25 50h-79.5c-8.975 0-16.25-7.275-16.25-16.25 0-8.975 7.275-16.25 16.25-16.25h79.5c8.975 0 16.25 7.275 16.25 16.25 0 8.975-7.275 16.25-16.25 16.25z" fill="#51489a"/><path d="m219.5 25c0 4.142-3.358 7.5-7.5 7.5s-7.5-3.358-7.5-7.5 3.358-7.5 7.5-7.5 7.5 3.358 7.5 7.5zm47.5-7.5h-30c-4.142 0-7.5 3.358-7.5 7.5s3.358 7.5 7.5 7.5h30c4.142 0 7.5-3.358 7.5-7.5s-3.358-7.5-7.5-7.5z" fill="#19305c"/><path d="m151.409 314.576-43.45-58.654c-17.42-23.515-14.996-56.24 5.697-76.933 23.069-23.069 60.472-23.069 83.541 0 20.693 20.693 23.116 53.418 5.697 76.933l-43.45 58.654c-1.998 2.699-6.036 2.699-8.035 0zm160-100-43.45-58.654c-17.42-23.515-14.996-56.24 5.697-76.933 23.069-23.069 60.472-23.069 83.541 0 20.693 20.693 23.116 53.418 5.697 76.933l-43.45 58.654c-1.998 2.699-6.036 2.699-8.035 0z" fill="#ff7c48"/><path d="m158.088 315.837c-2.125 1.337-5.066.917-6.679-1.261l-43.45-58.654c-17.42-23.515-14.996-56.24 5.697-76.934 8.324-8.324 18.515-13.645 29.225-15.961-2.792 15.869-4.381 34.134-4.381 53.573 0 43.566 7.986 81.243 19.588 99.237zm160-100c-2.125 1.337-5.066.917-6.679-1.261l-43.45-58.654c-17.42-23.515-14.996-56.24 5.697-76.934 8.324-8.324 18.515-13.645 29.225-15.961-2.791 15.869-4.381 34.135-4.381 53.573 0 43.566 7.986 81.243 19.588 99.237z" fill="#ea552d"/><path d="m190.427 221c0 19.33-15.67 35-35 35s-35-15.67-35-35 15.67-35 35-35 35 15.67 35 35zm160-100c0 19.33-15.67 35-35 35s-35-15.67-35-35 15.67-35 35-35 35 15.67 35 35z" fill="#e9cc5a"/><path d="m175.427 221c0 11.046-8.954 20-20 20s-20-8.954-20-20 8.954-20 20-20 20 8.954 20 20zm160-100c0 11.046-8.954 20-20 20s-20-8.954-20-20 8.954-20 20-20c11.045 0 20 8.954 20 20z" fill="#d1462a"/><path d="m406.149 350c0 45.094-36.556 81.649-81.649 81.649s-81.649-36.555-81.649-81.649 36.556-81.649 81.649-81.649 81.649 36.555 81.649 81.649z" fill="#fff5f5"/><path d="m379.816 350c0 30.55-24.766 55.316-55.316 55.316s-55.316-24.766-55.316-55.316 24.766-55.316 55.316-55.316 55.316 24.766 55.316 55.316z" fill="#f9f1d2"/><path d="m404.5 342.5h-16.941c-3.431-29.032-26.527-52.128-55.559-55.56v-16.94c0-4.143-3.357-7.5-7.5-7.5s-7.5 3.357-7.5 7.5v16.94c-29.032 3.432-52.128 26.527-55.559 55.56h-16.941c-4.143 0-7.5 3.357-7.5 7.5s3.357 7.5 7.5 7.5h16.941c3.431 29.032 26.527 52.128 55.559 55.56v16.94c0 4.143 3.357 7.5 7.5 7.5s7.5-3.357 7.5-7.5v-16.94c29.032-3.432 52.128-26.527 55.559-55.56h16.941c4.143 0 7.5-3.357 7.5-7.5s-3.357-7.5-7.5-7.5zm-72.501 55.42c-.043-4.106-3.383-7.42-7.499-7.42s-7.456 3.314-7.499 7.42c-20.75-3.234-37.187-19.671-40.422-40.421 4.106-.042 7.421-3.383 7.421-7.499s-3.315-7.457-7.421-7.499c3.234-20.75 19.671-37.187 40.422-40.421.043 4.106 3.383 7.42 7.499 7.42s7.456-3.314 7.499-7.42c20.75 3.234 37.187 19.671 40.421 40.421-4.106.042-7.42 3.383-7.42 7.499s3.314 7.457 7.42 7.499c-3.234 20.751-19.67 37.187-40.421 40.421z" fill="#f76937"/><path d="m344.5 350c0 11.046-8.954 20-20 20s-20-8.954-20-20 8.954-20 20-20 20 8.954 20 20z" fill="#d1462a"/></g></svg>