<svg id="Capa_1" enable-background="new 0 0 501 501" height="512" viewBox="0 0 501 501" width="512" xmlns="http://www.w3.org/2000/svg"><g><path d="m490.875 245c0 2.089-.026 4.172-.078 6.248-.044 1.755 4.519 3.506 4.438 5.253-2.465 53.339-21.986 102.225-53.235 141.329-.68.851-1.535-1.157-2.226-.315-3.301 4.021-6.728 7.934-10.274 11.735-.882.946-1.603 4.738-2.5 5.67-13.35 13.864-28.318 26.158-44.6 36.58-.98.628-7.285 1.386-8.275 2-6.819 4.229-13.862 8.133-21.106 11.689-.997.489 3.322.834 2.318 1.31-31.782 15.071-67.325 23.501-104.837 23.501-135.31 0-245-109.69-245-245 0-43.706 11.444-84.739 31.5-120.265.335-.594 1.911 1.106 2.25.515 3.504-6.087 7.261-12.009 11.258-17.752.898-1.29.57-4.862 1.491-6.134 6.622-9.136 13.859-17.796 21.651-25.921.884-.922 6.451-1.91 7.349-2.818 3.564-3.602 5.845-6.123 9.625-9.5.67-.599-1.939-2.091-1.263-2.682 10.108-8.832 20.947-16.848 32.416-23.943 1.354-.838 6.017-.771 7.388-1.583 7.086-4.195 13.562-7.355 21.083-10.833.731-.338-.995-2.252-.26-2.583 30.67-13.815 64.693-21.501 100.512-21.501 21.328 0 42.019 2.725 61.745 7.847.768.199 1.615 2.822 2.38 3.028 3.348.904 6.667 1.878 9.956 2.918.918.291 1.755-1.833 2.668-1.532 51.698 17.039 95.786 50.821 125.848 94.93.643.944-2.908 3.23-2.278 4.184 1.868 2.824 3.679 5.69 5.431 8.595.707 1.173 5.594 1.014 6.282 2.2 20.417 35.168 32.335 75.882 32.944 119.331.016 1.164-4.601 2.33-4.601 3.499z" fill="#453d83"/><path d="m113.999 75.443h-40.348c5.013-5.228 10.256-10.233 15.712-15h24.637c20.678 0 37.5 16.822 37.5 37.5v40.734c-3.811.176-7.645.266-11.5.266-1.169 0-2.335-.009-3.5-.025v-40.975c-.001-12.407-10.095-22.5-22.501-22.5zm233.667 310.557c3.855 0 7.689-.089 11.5-.266v-40.734c0-20.678-16.822-37.5-37.5-37.5h-64.666v15h64.666c12.406 0 22.5 10.093 22.5 22.5v40.975c1.165.016 2.331.025 3.5.025zm94.334-107v118.83c-4.737 5.928-9.743 11.63-15 17.09v-135.92c0-12.426-10.074-22.5-22.5-22.5h-146.5c-12.426 0-22.5 10.074-22.5 22.5v150c0 12.426 10.074 22.5 22.5 22.5h124.4c-8.664 5.545-17.7 10.561-27.062 15h-97.338c-12.253 0-23.153-5.908-30-15.024-6.847 9.116-17.747 15.024-30 15.024h-12.49c-24.853 0-45-20.147-45-45v-19.666c0-12.426-10.074-22.5-22.5-22.5h-40.975c-.016-1.165-.025-2.331-.025-3.5 0-3.854.089-7.688.265-11.5h40.735c20.711 0 37.5 16.79 37.5 37.5v19.666c0 16.568 13.431 30 30 30h12.49c12.426 0 22.5-10.074 22.5-22.5v-150c0-12.426-10.074-22.5-22.5-22.5h-123.5c-12.426 0-22.5 10.074-22.5 22.5v109.636c-5.424-7.482-10.435-15.284-15-23.371v-86.265c0-12.253 5.908-23.153 15.024-30-9.116-6.847-15.024-17.747-15.024-30v-94.266c4.565-8.086 9.576-15.888 15-23.371v117.637c0 12.426 10.074 22.5 22.5 22.5h163.5c12.426 0 22.5-10.074 22.5-22.5v-160c0-12.426-10.074-22.5-22.5-22.5h-116.222c9.031-5.587 18.451-10.604 28.212-15h88.01c20.711 0 37.5 16.789 37.5 37.5v160c0 8.435-2.8 16.229-7.518 22.5h136.518c20.711 0 37.5 16.789 37.5 37.5zm-213.982-22.5h-.036c.006.008.012.016.018.024.006-.008.012-.016.018-.024zm121.732-165.334h40.735c.176-3.812.265-7.646.265-11.5 0-1.169-.009-2.335-.025-3.5h-40.975c-12.407 0-22.5-10.094-22.5-22.5v-41.404c-4.933-1.626-9.934-3.099-15-4.414v45.818c0 20.678 16.822 37.5 37.5 37.5zm145.725 150.334h-40.975c-12.407 0-22.5-10.094-22.5-22.5v-74.333c0-12.406 10.093-22.5 22.5-22.5h8.03c-2.967-5.111-6.115-10.105-9.432-14.974-20.031.74-36.098 17.266-36.098 37.474v74.333c0 20.678 16.822 37.5 37.5 37.5h40.735c.176-3.812.265-7.646.265-11.5 0-1.169-.009-2.335-.025-3.5z" fill="#5f55af"/><path d="m394.5 124c0 4.143-3.357 7.5-7.5 7.5h-70c-4.143 0-7.5-3.357-7.5-7.5s3.357-7.5 7.5-7.5h70c4.143 0 7.5 3.357 7.5 7.5zm-37.5 20h-40c-4.143 0-7.5 3.357-7.5 7.5s3.357 7.5 7.5 7.5h40c4.143 0 7.5-3.357 7.5-7.5s-3.357-7.5-7.5-7.5zm-225 152.5h-50c-4.142 0-7.5 3.357-7.5 7.5s3.358 7.5 7.5 7.5h50c4.142 0 7.5-3.357 7.5-7.5s-3.358-7.5-7.5-7.5zm-30 27.5h-20c-4.142 0-7.5 3.357-7.5 7.5s3.358 7.5 7.5 7.5h20c4.142 0 7.5-3.357 7.5-7.5s-3.358-7.5-7.5-7.5z" fill="#958fca"/><path d="m278.713 451c0 27.614-22.386 50-50 50s-50-22.386-50-50 22.386-50 50-50 50 22.386 50 50z" fill="#d1462a"/><path d="m278.713 451c0 9.681-2.751 18.718-7.514 26.375-7.656 4.763-16.694 7.514-26.375 7.514-27.614 0-50-22.386-50-50 0-9.68 2.751-18.718 7.514-26.375 7.656-4.763 16.694-7.514 26.375-7.514 27.614 0 50 22.386 50 50z" fill="#f76937"/><path d="m340.107 255.606-100.787 100.788c-5.858 5.857-15.355 5.857-21.213 0l-100.787-100.788c-5.858-5.858-5.858-15.355 0-21.213l100.787-100.787c5.858-5.858 15.355-5.858 21.213 0l100.787 100.787c5.857 5.858 5.857 15.356 0 21.213z" fill="#c8e2fd"/><path d="m340.107 234.393c5.858 5.858 5.858 15.355 0 21.213l-94.143 94.144-94.143-94.144c-5.858-5.858-5.858-15.355 0-21.213l94.143-94.143z" fill="#e9f3fe"/><path d="m474.5 239c0 27.614-22.386 50-50 50s-50-22.386-50-50 22.386-50 50-50 50 22.386 50 50z" fill="#54a770"/><path d="m474.5 239c0 9.681-2.751 18.718-7.514 26.375-7.656 4.763-16.694 7.514-26.375 7.514-27.614 0-50-22.386-50-50 0-9.68 2.751-18.718 7.514-26.375 7.657-4.763 16.695-7.514 26.375-7.514 27.614 0 50 22.386 50 50z" fill="#69b482"/><path d="m74.5 245c0 16.568-13.431 30-30 30s-30-13.432-30-30 13.431-30 30-30 30 13.432 30 30z" fill="#55a4f9"/><path d="m74.5 245c0 5.808-1.651 11.231-4.509 15.825-4.594 2.858-10.017 4.509-15.825 4.509-16.569 0-30-13.432-30-30 0-5.809 1.651-11.231 4.509-15.825 4.594-2.858 10.017-4.509 15.825-4.509 16.569 0 30 13.432 30 30zm278 156c8.284 0 15-6.716 15-15s-6.716-15-15-15-15 6.716-15 15 6.716 15 15 15zm-268-43c-8.284 0-15 6.716-15 15s6.716 15 15 15 15-6.716 15-15-6.716-15-15-15zm306.25-288.5c-8.284 0-15 6.716-15 15s6.716 15 15 15 15-6.716 15-15-6.716-15-15-15zm-245.917 84.443c8.284 0 15-6.716 15-15s-6.716-15-15-15-15 6.716-15 15 6.716 15 15 15z" fill="#86befb"/><path d="m256.492 434.333-16.667 16.667 16.667 16.667c3.068 3.068 3.068 8.043 0 11.112s-8.043 3.068-11.112 0l-16.668-16.667-16.668 16.667c-3.068 3.068-8.043 3.068-11.112 0s-3.068-8.043 0-11.112l16.67-16.667-16.667-16.667c-3.068-3.068-3.068-8.043 0-11.112 3.068-3.068 8.043-3.068 11.112 0l16.668 16.667 16.668-16.667c3.068-3.068 8.043-3.068 11.112 0 3.066 3.068 3.066 8.043-.003 11.112zm210.758-228.74c-3.206-2.624-7.932-2.151-10.554 1.056l-36.963 45.176-17.915-21.498c-2.653-3.182-7.382-3.611-10.563-.96-3.182 2.651-3.612 7.381-.96 10.563l23.73 28.476c1.425 1.71 3.536 2.698 5.762 2.698h.034c2.238-.01 4.354-1.019 5.771-2.751l42.714-52.206c2.622-3.206 2.149-7.931-1.056-10.554z" fill="#f5f0eb"/><path d="m262.536 202.51c-2.852-4.731-8.999-6.253-13.728-3.401s-6.252 8.998-3.401 13.727l18.412 30.539-18.501 31.939c-2.768 4.779-1.138 10.897 3.641 13.666 1.578.914 3.302 1.349 5.003 1.348 3.451 0 6.809-1.788 8.663-4.989l21.463-37.054c1.827-3.154 1.793-7.053-.089-10.175zm-54.068 86.47c4.778-2.769 6.408-8.887 3.641-13.666l-18.501-31.939 18.412-30.539c2.851-4.729 1.328-10.875-3.401-13.727-4.73-2.853-10.876-1.329-13.728 3.401l-21.463 35.6c-1.882 3.122-1.916 7.021-.089 10.175l21.463 37.054c1.854 3.201 5.212 4.99 8.663 4.989 1.7.001 3.425-.434 5.003-1.348z" fill="#76b6fa"/></g></svg>