<svg id="Capa_1" enable-background="new 0 0 501 501" height="512" viewBox="0 0 501 501" width="512" xmlns="http://www.w3.org/2000/svg"><g><path d="m5.5 256c0-135.309 109.69-245 244.999-245 134.984 0 246.007 111.898 244.994 246.878-.604 80.402-39.936 151.588-100.266 195.826-7.965 5.84-18.739 5.873-26.725.062-40.421-29.414-90.185-46.766-144.002-46.766-43.764 0-84.848 11.475-120.407 31.58-6.271 3.545-14.09 2.675-19.392-2.202-48.689-44.777-79.201-109.014-79.201-180.378z" fill="#453d83"/><path d="m368 97v33c0 15.163-12.337 27.5-27.5 27.5h-88.5v112.5c0 4.143-3.357 7.5-7.5 7.5s-7.5-3.357-7.5-7.5v-112.5h-76.5c-15.163 0-27.5-12.337-27.5-27.5v-33c0-4.143 3.357-7.5 7.5-7.5s7.5 3.357 7.5 7.5v33c0 6.893 5.607 12.5 12.5 12.5h180c6.893 0 12.5-5.607 12.5-12.5v-33c0-4.143 3.357-7.5 7.5-7.5s7.5 3.357 7.5 7.5zm-150-37v-40c0-4.143-3.357-7.5-7.5-7.5s-7.5 3.357-7.5 7.5v40c0 6.893-5.607 12.5-12.5 12.5h-110c-6.892 0-12.5-5.607-12.5-12.5v-40c0-4.143-3.357-7.5-7.5-7.5s-7.5 3.357-7.5 7.5v40c0 15.163 12.337 27.5 27.5 27.5h110c15.163 0 27.5-12.337 27.5-27.5zm222.5-47.5c-4.143 0-7.5 3.357-7.5 7.5v40c0 6.893-5.607 12.5-12.5 12.5h-110c-6.893 0-12.5-5.607-12.5-12.5v-40c0-4.143-3.357-7.5-7.5-7.5s-7.5 3.357-7.5 7.5v40c0 15.163 12.337 27.5 27.5 27.5h110c15.163 0 27.5-12.337 27.5-27.5v-40c0-4.143-3.357-7.5-7.5-7.5z" fill="#6a61b4"/><path d="m264.5 150c0 11.046-8.954 20-20 20s-20-8.954-20-20 8.954-20 20-20 20 8.954 20 20zm-55.5-150c-11.046 0-20 8.954-20 20s8.954 20 20 20 20-8.954 20-20-8.954-20-20-20zm83 0c-11.046 0-20 8.954-20 20s8.954 20 20 20 20-8.954 20-20-8.954-20-20-20zm-231.5 0c-11.046 0-20 8.954-20 20s8.954 20 20 20 20-8.954 20-20-8.954-20-20-20zm380 0c-11.046 0-20 8.954-20 20s8.954 20 20 20 20-8.954 20-20-8.954-20-20-20zm-80.5 60c-11.046 0-20 8.954-20 20s8.954 20 20 20 20-8.954 20-20-8.954-20-20-20zm-219 0c-11.046 0-20 8.954-20 20s8.954 20 20 20 20-8.954 20-20-8.954-20-20-20z" fill="#55a4f9"/><path d="m460.5 20c0 2.483-.453 4.86-1.28 7.054-2.193.827-4.571 1.28-7.053 1.28-11.046 0-20-8.955-20-20 0-2.483.453-4.86 1.28-7.054 2.193-.827 4.57-1.28 7.053-1.28 11.046 0 20 8.954 20 20zm-216 110c-2.483 0-4.86.453-7.054 1.28-.827 2.193-1.28 4.571-1.28 7.054 0 11.045 8.954 20 20 20 2.483 0 4.86-.453 7.053-1.28.827-2.194 1.28-4.571 1.28-7.054.001-11.046-8.953-20-19.999-20zm115.5-70c-2.483 0-4.86.453-7.054 1.28-.827 2.193-1.28 4.571-1.28 7.054 0 11.045 8.954 20 20 20 2.483 0 4.86-.453 7.053-1.28.828-2.194 1.281-4.571 1.281-7.054 0-11.046-8.954-20-20-20zm-68-60c-2.483 0-4.86.453-7.054 1.28-.827 2.193-1.28 4.571-1.28 7.054 0 11.045 8.954 20 20 20 2.483 0 4.86-.453 7.053-1.28.828-2.194 1.281-4.571 1.281-7.054 0-11.046-8.954-20-20-20zm-231.5 0c-2.483 0-4.86.453-7.054 1.28-.827 2.193-1.28 4.571-1.28 7.054 0 11.045 8.954 20 20 20 2.483 0 4.86-.453 7.053-1.28.828-2.194 1.281-4.571 1.281-7.054 0-11.046-8.954-20-20-20zm80.5 60c-2.483 0-4.86.453-7.054 1.28-.827 2.193-1.28 4.571-1.28 7.054 0 11.045 8.954 20 20 20 2.483 0 4.86-.453 7.053-1.28.828-2.194 1.281-4.571 1.281-7.054 0-11.046-8.954-20-20-20zm68-60c-2.483 0-4.86.453-7.054 1.28-.827 2.193-1.28 4.571-1.28 7.054 0 11.045 8.954 20 20 20 2.483 0 4.86-.453 7.053-1.28.828-2.194 1.281-4.571 1.281-7.054 0-11.046-8.954-20-20-20z" fill="#86befb"/><path d="m404.5 332v26c0 6.627-5.373 12-12 12h-6c-6.627 0-12-5.373-12-12v-26c0-6.627 5.373-12 12-12h6c6.628 0 12 5.373 12 12zm-12-72h-6c-6.627 0-12 5.373-12 12v26c0 6.627 5.373 12 12 12h6c6.627 0 12-5.373 12-12v-26c0-6.627-5.372-12-12-12zm-239.125-50h-39.875c-16.569 0-30 13.431-30 30v20.378c-5.176 1.332-9 6.03-9 11.622v56c0 5.591 3.824 10.29 9 11.622v95.644c12.429 11.584 26.064 21.89 40.696 30.71 21.671 13.063 49.304-2.48 49.304-27.784v-208.067c0-11.115-9.01-20.125-20.125-20.125z" fill="#3493f8"/><path d="m395.5 240v213.504c-12.484 9.181-25.87 17.206-40 23.919-4.309 2.047-11.027 3.735-19.513 5.067-111.729 17.536-212.487-69.653-212.487-182.75v-59.74c0-16.569 13.431-30 30-30h212c16.569 0 30 13.431 30 30z" fill="#76b6fa"/><path d="m184.5 260v210c0 5.523-4.477 10-10 10l-21 1.048c-.003-.001-.006-.003-.01-.004-.087-.039-.175-.077-.263-.114-10.295-4.458-20.223-9.602-29.728-15.375v-205.555c0-5.523 4.477-10 10-10h41c5.524 0 10.001 4.477 10.001 10z" fill="#c8e2fd"/><path d="m355.5 260v217.423c-5.555 2.639-11.224 5.075-17 7.298-27.312 10.515-148.688 10.515-176 0-3.03-1.166-6.03-2.391-9.001-3.673v-221.048c0-5.523 4.477-10 10-10h182c5.524 0 10.001 4.477 10.001 10z" fill="#e9f3fe"/><path d="m286.5 400h-72c-5.523 0-10-4.477-10-10v-80c0-5.523 4.477-10 10-10h72c5.523 0 10 4.477 10 10v80c0 5.523-4.477 10-10 10z" fill="#c8e2fd"/><path d="m296.5 430h-92c-5.523 0-10-4.477-10-10v-80c0-5.523 4.477-10 10-10h92c5.523 0 10 4.477 10 10v80c0 5.523-4.477 10-10 10z" fill="#a7d0fc"/><path d="m311.5 460h-122c-5.523 0-10-4.477-10-10v-80c0-5.523 4.477-10 10-10h122c5.523 0 10 4.477 10 10v80c0 5.523-4.477 10-10 10z" fill="#76b6fa"/><path d="m209.25 460h-19.75c-5.523 0-10-4.477-10-10v-80c0-5.523 4.477-10 10-10h19.75c-5.523 0-10 4.477-10 10v80c0 5.523 4.477 10 10 10z" fill="#55a4f9"/><path d="m338.5 410v74.721c-16.695 6.428-34.272 11.08-52.499 13.726-11.591 1.682-59.411 1.682-71.002 0-18.227-2.646-35.804-7.298-52.499-13.726v-74.721c0-5.523 4.477-10 10-10h156c5.523 0 10 4.477 10 10z" fill="#f76937"/><path d="m183.5 491.726c-7.138-2.025-14.143-4.365-21-7.005v-74.721c0-5.523 4.477-10 10-10h21c-5.523 0-10 4.477-10 10z" fill="#ea552d"/><path d="m313.25 424.375c0-3.106 2.518-5.625 5.625-5.625 3.107 0 5.625 2.519 5.625 5.625s-2.518 5.625-5.625 5.625c-3.107 0-5.625-2.519-5.625-5.625zm-114.375 14.063h-18.75c-3.107 0-5.625 2.519-5.625 5.625s2.518 5.625 5.625 5.625h18.75c3.107 0 5.625-2.519 5.625-5.625s-2.518-5.625-5.625-5.625zm51.625 1.562c-22.091 0-40 17.909-40 40 0 6.653 1.625 12.927 4.499 18.446 11.591 1.683 23.444 2.554 35.501 2.554s23.91-.871 35.501-2.554c2.874-5.52 4.499-11.793 4.499-18.446 0-22.091-17.909-40-40-40zm68.375-1.562c-3.107 0-5.625 2.519-5.625 5.625s2.518 5.625 5.625 5.625c3.107 0 5.625-2.519 5.625-5.625s-2.518-5.625-5.625-5.625zm-120-19.688h-18.75c-3.107 0-5.625 2.519-5.625 5.625s2.518 5.625 5.625 5.625h18.75c3.107 0 5.625-2.519 5.625-5.625s-2.518-5.625-5.625-5.625z" fill="#d1462a"/><path d="m177.5 287.5h-26c-3.866 0-7-3.134-7-7v-1c0-3.866 3.134-7 7-7h26c3.866 0 7 3.134 7 7v1c0 3.866-3.134 7-7 7zm7 19.25v-1c0-3.866-3.134-7-7-7h-26c-3.866 0-7 3.134-7 7v1c0 3.866 3.134 7 7 7h26c3.866 0 7-3.134 7-7z" fill="#a7d0fc"/><path d="m267.18 477.729-20.995 14.192c-2.589 1.75-6.081-.105-6.081-3.229v-28.383c0-3.125 3.492-4.979 6.081-3.229l20.995 14.192c2.287 1.544 2.287 4.912 0 6.457z" fill="#fff5f5"/><path d="m279.25 260h-79.5c-8.975 0-16.25-7.275-16.25-16.25 0-8.975 7.275-16.25 16.25-16.25h79.5c8.975 0 16.25 7.275 16.25 16.25 0 8.975-7.275 16.25-16.25 16.25z" fill="#76b6fa"/><path d="m219.5 235c0 4.142-3.358 7.5-7.5 7.5s-7.5-3.358-7.5-7.5 3.358-7.5 7.5-7.5 7.5 3.358 7.5 7.5zm47.5-7.5h-30c-4.142 0-7.5 3.358-7.5 7.5s3.358 7.5 7.5 7.5h30c4.142 0 7.5-3.358 7.5-7.5s-3.358-7.5-7.5-7.5z" fill="#1380e2"/></g></svg>