<svg id="Capa_1" enable-background="new 0 0 501 501" height="512" viewBox="0 0 501 501" width="512" xmlns="http://www.w3.org/2000/svg"><g><path d="m435.56 404.5c-24.052 29.725-54.919 53.71-90.224 69.579-4.006 1.801-4.209-6.884-10.086-5.329-29.151 7.716-90.834 16.559-117.739 17.75-9.127.404-7.144 6.586-9.822 6.177-117.601-17.969-207.688-119.552-207.689-242.176-.001-135.195 110.223-245.226 245.418-245.001 118.539.198 217.334 84.58 239.793 196.554-27.422 0-49.651 22.23-49.651 49.651z" fill="#453d83"/><path d="m433.938 239.009c0 63.796-24.384 121.897-64.339 165.491h-287.599c-16.569 0-30-13.431-30-30v-295.982c0-13.807 11.193-25 25-25h272c52.018 44.926 84.938 111.364 84.938 185.491z" fill="#8078bf"/><path d="m490 250.5c0 30.742-5.662 60.161-16 87.272-.842 2.209-5.096.384-6 2.562-3.492 8.414-8.961 17.423-13.333 25.333-1.144 2.07 2.584 7.309 1.382 9.342-6.115 10.343-12.969 20.198-20.489 29.491h-246.56c-16.399 0-29.724-13.157-29.995-29.491h-47.005c-16.569 0-30-13.431-30-30v-261.491c0-16.569 13.431-30 30-30h292.062c48.301 41.717 80.136 101.981 84.438 169.726.991 8.948 1.5 18.043 1.5 27.256z" fill="#aba6d5"/><path d="m456.049 375.009h-364.049c-5.523 0-10-4.477-10-10v-272c0-5.523 4.477-10 10-10h331.807c21.571 23.019 38.747 50.205 50.193 80.22v174.543c-4.948 12.977-10.968 25.425-17.951 37.237z" fill="#76b6fa"/><path d="m326.5 273.009h-208.5c-5.523 0-10-4.477-10-10v-144c0-5.523 4.477-10 10-10h208.5c5.523 0 10 4.477 10 10v144c0 5.523-4.477 10-10 10zm10 64v-34c0-5.523-4.477-10-10-10h-208.5c-5.523 0-10 4.477-10 10v34c0 5.523 4.477 10 10 10h208.5c5.523 0 10-4.477 10-10zm111.5 0v-124c0-5.523-4.477-10-10-10h-60c-5.523 0-10 4.477-10 10v124c0 5.523 4.477 10 10 10h60c5.523 0 10-4.477 10-10z" fill="#3493f8"/><path d="m161 229.5v-200c0-8.284 6.716-15 15-15h310c8.284 0 15 6.716 15 15v200c0 8.284-6.716 15-15 15h-310c-8.284 0-15-6.716-15-15z" fill="#f76937"/><path d="m204 244.5h-28c-8.284 0-15-6.716-15-15v-200c0-8.284 6.716-15 15-15h28c-8.284 0-15 6.716-15 15v200c0 8.284 6.716 15 15 15z" fill="#ea552d"/><path d="m219 44.5c-22.091 0-40 17.909-40 40s17.909 40 40 40 40-17.909 40-40-17.909-40-40-40zm0 60c-11.046 0-20-8.954-20-20s8.954-20 20-20 20 8.954 20 20-8.954 20-20 20z" fill="#ff956a"/><path d="m469 124.5h-180c-5.523 0-10-4.477-10-10v-60c0-5.523 4.477-10 10-10h180c5.523 0 10 4.477 10 10v60c0 5.523-4.477 10-10 10z" fill="#ff956a"/><path d="m469 174.5h-20c-5.523 0-10-4.477-10-10 0-5.523 4.477-10 10-10h20c5.523 0 10 4.477 10 10 0 5.523-4.477 10-10 10zm10 30c0-5.523-4.477-10-10-10h-40c-5.523 0-10 4.477-10 10 0 5.523 4.477 10 10 10h40c5.523 0 10-4.477 10-10zm-120-40c0-5.523-4.477-10-10-10h-40c-5.523 0-10 4.477-10 10 0 5.523 4.477 10 10 10h40c5.523 0 10-4.477 10-10zm0 40c0-5.523-4.477-10-10-10h-70c-5.523 0-10 4.477-10 10 0 5.523 4.477 10 10 10h70c5.523 0 10-4.477 10-10z" fill="#d1462a"/><path d="m309 204.5c0 5.523-4.477 10-10 10h-40c-5.523 0-10-4.477-10-10s4.477-10 10-10h40c5.523 0 10 4.477 10 10zm10-50h-60c-5.523 0-10 4.477-10 10s4.477 10 10 10h60c5.523 0 10-4.477 10-10s-4.477-10-10-10zm110 40h-40c-5.523 0-10 4.477-10 10s4.477 10 10 10h40c5.523 0 10-4.477 10-10s-4.477-10-10-10zm20-40h-60c-5.523 0-10 4.477-10 10s4.477 10 10 10h60c5.523 0 10-4.477 10-10s-4.477-10-10-10z" fill="#f9f1d2"/><path d="m287 194.5c0 27.614-22.386 50-50 50s-50-22.386-50-50 22.386-50 50-50 50 22.386 50 50z" fill="#ff956a"/><path d="m319.484 124.5c-.318-3.252-.484-6.593-.484-10 0-33.137 15.67-60 35-60s35 26.863 35 60c0 3.407-.166 6.748-.484 10z" fill="#ffad8c"/><path d="m289.484 124.5c-.318-.929-.484-1.884-.484-2.857 0-9.468 15.67-17.143 35-17.143s35 7.675 35 17.143c0 .973-.166 1.928-.484 2.857z" fill="#ffad8c"/><path d="m377.511 309.94v65.014c0 22.893-6.222 45.355-18 64.986-6.403 10.671-11.163 22.179-14.175 34.138-30.623 13.765-64.585 21.422-100.336 21.422-12.804 0-25.378-.982-37.652-2.875-.755-14.854-4.124-29.409-9.906-43.008-.124-.167-1.874-1.927-4.473-4.513-16.733-16.654-28.913-37.33-35.361-60.039-2.854-10.05-6.841-19.743-11.885-28.892l-26.967-48.912c-2.66-4.825-.918-10.908 3.905-13.572 14.513-8.019 32.776-2.744 40.78 11.774l34.177 61.99c2.625 4.761 8.429 7.029 13.437 4.912 3.99-1.687 6.457-5.542 6.457-9.708v-162.238c0-10.845 8.433-20.081 19.271-20.467 11.378-.405 20.729 8.699 20.729 19.987v100.417s.759 3.329 2.107.637c3.284-6.554 10.063-11.054 17.893-11.054 8.072 0 15.028 4.782 18.187 11.668.715 1.558 2.91 1.558 3.625 0 3.16-6.886 10.115-11.668 18.187-11.668s15.028 4.782 18.187 11.668c.715 1.558 2.91 1.558 3.625 0 3.16-6.886 10.115-11.668 18.187-11.668 11.047.001 20.001 8.955 20.001 20.001z" fill="#ffbeaa"/><path d="m315.801 290.013v67.468c0 5.156-4.18 9.335-9.335 9.335-5.156 0-9.335-4.179-9.335-9.335v-54.74c.842.161 1.773-.217 2.194-1.132 2.933-6.395 9.141-10.975 16.476-11.596zm23.523 11.595c-.42.916-1.352 1.293-2.194 1.132v54.74c0 5.156 4.179 9.335 9.335 9.335s9.335-4.179 9.335-9.335v-67.468c-7.334.622-13.542 5.202-16.476 11.596zm-79.705-.614c-1.349 2.692-2.108-.637-2.108-.637l-.006 57.124c0 5.156 4.179 9.335 9.335 9.335s9.335-4.179 9.335-9.335v-67.496c-7.259.478-13.461 4.83-16.556 11.009zm-22.837-121.041c-10.838.385-19.271 9.622-19.271 20.466v162.532c3.458 4.247 9.765 5.195 14.361 1.833 2.709-1.981 4.31-5.136 4.31-8.492v-167.498c0-3.142.708-6.148 1.977-8.844-.456-.014-.915-.013-1.377.003zm-25.064 253.602c-.026-.026-.052-.052-.078-.077-16.733-16.654-28.913-37.33-35.361-60.039-2.854-10.05-6.841-19.743-11.885-28.892l-26.967-48.912c-.992-1.799-1.371-3.773-1.208-5.68-4.686.145-9.41 1.394-13.785 3.86-4.714 2.657-6.291 8.707-3.678 13.446l26.967 48.912c5.044 9.149 9.031 18.842 11.885 28.892 6.448 22.71 18.629 43.386 35.361 60.039.026.026.052.052.078.077 3.08 3.066 5.442 6.774 6.921 10.86 4.242 11.719 6.743 24.045 7.38 36.584 6.204.957 12.485 1.681 18.833 2.164v-7.379c0-14.742-2.58-29.284-7.543-42.994-1.478-4.087-3.841-7.795-6.92-10.861z" fill="#faa68e"/><path d="m469 124.5h-160c0-22.091 17.909-40 40-40 5.798 0 11.308 1.234 16.281 3.453 5.688 2.538 12.383.73 15.934-4.386 9.167-13.212 22.696-21.567 37.785-21.567 27.614 0 50 27.982 50 62.5zm-232 50c-11.046 0-20 8.954-20 20s8.954 20 20 20 20-8.954 20-20-8.954-20-20-20zm-14.619-129.861c-6.508-.535-12.724.49-18.314 2.742-6.673 2.687-8.468 11.291-3.382 16.377 2.86 2.86 7.14 3.664 10.896 2.163 2.795-1.117 5.902-1.622 9.154-1.348 9.602.809 17.383 8.59 18.192 18.192.274 3.252-.231 6.359-1.348 9.154-1.501 3.756-.698 8.036 2.163 10.896 5.087 5.086 13.69 3.291 16.377-3.382 2.251-5.59 3.277-11.806 2.742-18.314-1.586-19.306-17.174-34.894-36.48-36.48z" fill="#f9f1d2"/></g></svg>