<svg id="Capa_1" enable-background="new 0 0 501 501" height="512" viewBox="0 0 501 501" width="512" xmlns="http://www.w3.org/2000/svg"><g><path d="m495.5 256c0 135.31-109.69 245-245 245s-245-109.69-245-245 109.69-245 245-245 245 109.69 245 245z" fill="#5f55af"/><path d="m495.243 267.306c-5.907 130.062-113.223 233.694-244.743 233.694s-238.836-103.632-244.743-233.694z" fill="#453d83"/><path d="m435.5 135.183v154.817c0 8.284-6.716 15-15 15s-15-6.716-15-15v-154.817c0-28.401-14.999-54.809-39.143-68.917l-1.086-.63c-12.056-6.958-25.866-10.636-39.933-10.636h-149.676c-14.067 0-27.877 3.678-39.937 10.637l-1.074.624c-24.152 14.113-39.151 40.52-39.151 68.922v154.817c0 8.284-6.716 15-15 15s-15-6.716-15-15v-154.817c0-39.021 20.694-75.354 54.008-94.819l1.208-.701c16.628-9.597 35.623-14.663 54.946-14.663h149.676c19.324 0 38.318 5.066 54.93 14.652l1.233.716c33.305 19.461 53.999 55.793 53.999 94.815z" fill="#aba6d5"/><path d="m435.5 135.183v19.817c0 8.284-6.716 15-15 15s-15-6.716-15-15v-19.817c0-28.401-14.999-54.809-39.143-68.917l-1.086-.63c-12.056-6.958-25.866-10.636-39.933-10.636h-149.676c-14.067 0-27.877 3.678-39.937 10.637l-1.074.624c-24.152 14.113-39.151 40.52-39.151 68.922v19.817c0 8.284-6.716 15-15 15s-15-6.716-15-15v-19.817c0-39.021 20.694-75.354 54.008-94.819l1.208-.701c16.628-9.597 35.623-14.663 54.946-14.663h149.676c19.324 0 38.318 5.066 54.93 14.652l1.233.716c33.305 19.461 53.999 55.793 53.999 94.815z" fill="#c1bde0"/><path d="m85.5 260v90c0 5.523-4.477 10-10 10h-30c-5.523 0-10-4.477-10-10v-90c0-5.523 4.477-10 10-10h30c5.523 0 10 4.477 10 10zm370-10h-30c-5.523 0-10 4.477-10 10v90c0 5.523 4.477 10 10 10h30c5.523 0 10-4.477 10-10v-90c0-5.523-4.477-10-10-10z" fill="#aba6d5"/><path d="m137.286 384h-70c-11.046 0-20-8.954-20-20v-114c0-11.046 8.954-20 20-20h70c11.046 0 20 8.954 20 20v114c0 11.046-8.954 20-20 20zm206.428-134v114c0 11.046 8.954 20 20 20h70c11.046 0 20-8.954 20-20v-114c0-11.046-8.954-20-20-20h-70c-11.046 0-20 8.954-20 20z" fill="#c1bde0"/><path d="m157.286 250v50c0 11.046-8.954 20-20 20h-70c-11.046 0-20-8.954-20-20v-50c0-11.046 8.954-20 20-20h70c11.046 0 20 8.954 20 20zm276.428-20h-70c-11.046 0-20 8.954-20 20v50c0 11.046 8.954 20 20 20h70c11.046 0 20-8.954 20-20v-50c0-11.046-8.954-20-20-20z" fill="#fff5f5"/><path d="m135.5 60v-25c0-19.33 15.67-35 35-35h160c19.33 0 35 15.67 35 35v25c0 11.046-8.954 20-20 20h-190c-11.046 0-20-8.954-20-20zm41.786 140h-70c-11.046 0-20 8.954-20 20v174c0 11.046 8.954 20 20 20h70c11.046 0 20-8.954 20-20v-174c0-11.046-8.954-20-20-20zm216.428 0h-70c-11.046 0-20 8.954-20 20v174c0 11.046 8.954 20 20 20h70c11.046 0 20-8.954 20-20v-174c0-11.046-8.954-20-20-20z" fill="#3493f8"/><path d="m197.286 220v45c0 30.376-24.624 55-55 55-30.375 0-55-24.624-55-55v-45c0-11.046 8.954-20 20-20h70c11.046 0 20 8.954 20 20zm196.428-20h-70c-11.046 0-20 8.954-20 20v45c0 30.376 24.625 55 55 55 30.375 0 55-24.624 55-55v-45c0-11.046-8.954-20-20-20zm-82.213-145h3.499c5.247 0 9.501-4.254 9.501-9.501v-15.157c0-5.326 4.02-9.977 9.334-10.321 5.824-.376 10.665 4.236 10.665 9.979l.436 10.907c.367 9.168 12.385 12.645 17.369 4.941 2.021-3.125 3.195-6.85 3.195-10.848 0-19.33-15.67-35-35-35h-160c-19.33 0-35 15.67-35 35 0 .383.011.762.032 1.14.681 12.127 18.968 11.348 18.968-.798v-4.999c0-5.326 4.019-9.977 9.334-10.321 5.824-.377 10.666 4.235 10.666 9.978v15.499c0 5.247 4.254 9.501 9.501 9.501h3.499c5.247 0 9.501-4.254 9.501-9.501v-15.156c0-5.326 4.019-9.977 9.334-10.321 5.823-.377 10.665 4.235 10.665 9.978v15.499c0 5.247 4.254 9.501 9.501 9.501h3.499c5.247 0 9.501-4.254 9.501-9.501v-15.156c0-5.326 4.019-9.977 9.334-10.321 5.823-.377 10.665 4.235 10.665 9.978v15.499c0 5.247 4.254 9.501 9.501 9.501h3.499c5.247 0 9.501-4.254 9.501-9.501v-15.156c0-5.326 4.019-9.977 9.334-10.321 5.823-.377 10.665 4.235 10.665 9.978v15.499c0 5.247 4.254 9.501 9.501 9.501z" fill="#76b6fa"/><path d="m252.303 297.197c2.929 2.929 2.929 7.678 0 10.606-1.464 1.465-3.384 2.197-5.303 2.197s-3.839-.732-5.303-2.197c-8.773-8.773-23.048-8.772-31.82 0-2.929 2.929-7.678 2.929-10.606 0-2.929-2.929-2.929-7.678 0-10.606 14.62-14.622 38.411-14.621 53.032 0zm20-20c-25.649-25.649-67.383-25.649-93.033 0-2.929 2.929-2.929 7.678 0 10.606 2.929 2.929 7.678 2.929 10.606 0 19.8-19.801 52.018-19.802 71.82 0 1.465 1.465 3.384 2.197 5.304 2.197s3.839-.732 5.303-2.197c2.929-2.928 2.929-7.678 0-10.606z" fill="#c8e2fd"/><path d="m434.5 355c0 8.284-6.716 15-15 15h-138.369c-5.617 11.825-17.669 20-31.631 20h-40c-19.33 0-35-15.67-35-35 0-19.33 15.67-35 35-35h40c13.962 0 26.014 8.175 31.631 20h138.369c8.284 0 15 6.716 15 15z" fill="#c1bde0"/><path d="m394.5 355c0 8.284-6.716 15-15 15h-98.369c-5.617 11.824-17.669 20-31.631 20h-10c-19.33 0-35-15.67-35-35 0-19.33 15.67-35 35-35h10c13.962 0 26.014 8.175 31.631 20h98.369c8.284 0 15 6.716 15 15z" fill="#fff5f5"/></g></svg>