<svg id="Capa_1" enable-background="new 0 0 501 501" height="512" viewBox="0 0 501 501" width="512" xmlns="http://www.w3.org/2000/svg"><g><path d="m490 250.5c0 135.31-109.69 245-245 245s-245-109.69-245-245 109.69-245 245-245 245 109.69 245 245z" fill="#eac23f"/><path d="m469.174 349.5c-38.033 85.995-124.096 146-224.174 146s-186.141-60.005-224.174-146z" fill="#e1b91e"/><path d="m400.146 384.5h-350c-11.046 0-20-8.954-20-20v-246c0-11.046 8.954-20 20-20h350c11.046 0 20 8.954 20 20v246c0 11.046-8.954 20-20 20z" fill="#453d83"/><path d="m400.146 384.5h-321c-11.046 0-20-8.954-20-20v-246c0-11.046 8.954-20 20-20h321c11.046 0 20 8.954 20 20v246c0 11.046-8.954 20-20 20z" fill="#51489a"/><path d="m420.146 118.5h-390v-20c0-11.046 8.954-20 20-20h350c11.046 0 20 8.954 20 20z" fill="#55a4f9"/><path d="m420.146 118.5h-361v-20c0-11.046 8.954-20 20-20h321c11.046 0 20 8.954 20 20z" fill="#76b6fa"/><path d="m420.146 98.5h-390v-40c0-11.046 8.954-20 20-20h350c11.046 0 20 8.954 20 20z" fill="#86befb"/><path d="m420.146 98.5h-361v-40c0-11.046 8.954-20 20-20h321c11.046 0 20 8.954 20 20z" fill="#a7d0fc"/><path d="m69.146 68.5c0 5.523-4.477 10-10 10s-10-4.477-10-10 4.477-10 10-10 10 4.477 10 10zm30-10c-5.523 0-10 4.477-10 10s4.477 10 10 10 10-4.477 10-10-4.477-10-10-10zm40 0c-5.523 0-10 4.477-10 10s4.477 10 10 10 10-4.477 10-10-4.477-10-10-10z" fill="#55a4f9"/><path d="m111.333 201.806h-31.187c-5.523 0-10-4.477-10-10 0-5.523 4.477-10 10-10h31.187c5.523 0 10 4.477 10 10 0 5.523-4.477 10-10 10z" fill="#aba6d5"/><path d="m70.146 231.806c0-5.523 4.477-10 10-10h20c5.523 0 10 4.477 10 10s-4.477 10-10 10h-20c-5.523 0-10-4.477-10-10zm30 30h-20c-5.523 0-10 4.477-10 10s4.477 10 10 10h20c5.523 0 10-4.477 10-10s-4.477-10-10-10zm0 40h-20c-5.523 0-10 4.477-10 10s4.477 10 10 10h20c5.523 0 10-4.477 10-10s-4.477-10-10-10z" fill="#c1bde0"/><path d="m70.146 151.806c0-5.523 4.477-10 10-10h90c5.523 0 10 4.477 10 10s-4.477 10-10 10h-90c-5.523 0-10-4.477-10-10zm10 190c-5.523 0-10 4.477-10 10s4.477 10 10 10 10-4.477 10-10-4.477-10-10-10zm35 0c-5.523 0-10 4.477-10 10s4.477 10 10 10 10-4.477 10-10-4.477-10-10-10zm35 0c-5.523 0-10 4.477-10 10s4.477 10 10 10 10-4.477 10-10-4.477-10-10-10zm-20-110c0 5.523 4.477 10 10 10h90c5.523 0 10-4.477 10-10s-4.477-10-10-10h-90c-5.523 0-10 4.477-10 10zm10 30c-5.523 0-10 4.477-10 10s4.477 10 10 10h40c5.523 0 10-4.477 10-10s-4.477-10-10-10zm90 40h-90c-5.523 0-10 4.477-10 10s4.477 10 10 10h90c5.523 0 10-4.477 10-10s-4.477-10-10-10z" fill="#8078bf"/><path d="m481 434.5h-302c-11.046 0-20-8.954-20-20v-166c0-11.046 8.954-20 20-20h302c11.046 0 20 8.954 20 20v166c0 11.046-8.954 20-20 20z" fill="#f5e8b4"/><path d="m481 434.5h-273c-11.046 0-20-8.954-20-20v-166c0-11.046 8.954-20 20-20h273c11.046 0 20 8.954 20 20v166c0 11.046-8.954 20-20 20z" fill="#f9f1d2"/><path d="m501 214.5v34h-342v-34c0-11.046 8.954-20 20-20h302c11.046 0 20 8.954 20 20z" fill="#f76937"/><path d="m228 214.5c-5.523 0-10 4.477-10 10s4.477 10 10 10 10-4.477 10-10-4.477-10-10-10zm40 0c-5.523 0-10 4.477-10 10s4.477 10 10 10 10-4.477 10-10-4.477-10-10-10z" fill="#d1462a"/><path d="m214.355 259.855c-19.526 19.526-51.184 19.526-70.711 0-19.526-19.526-19.526-51.185 0-70.711s51.185-19.526 70.711 0c19.527 19.527 19.527 51.185 0 70.711z" fill="#55a4f9"/><path d="m214.355 259.855c-6.845 6.845-15.181 11.29-23.963 13.336-8.782-2.046-17.118-6.491-23.963-13.336-19.526-19.526-19.526-51.185 0-70.711 6.845-6.845 15.181-11.29 23.963-13.336 8.782 2.046 17.118 6.491 23.963 13.336 19.527 19.527 19.527 51.185 0 70.711z" fill="#76b6fa"/><path d="m218.286 224.5c0 4.339-3.518 7.857-7.857 7.857h-23.571v23.572c0 4.339-3.518 7.857-7.857 7.857s-7.857-3.518-7.857-7.857v-23.572h-23.571c-4.339 0-7.857-3.518-7.857-7.857 0-4.339 3.518-7.857 7.857-7.857h23.571v-23.571c0-4.34 3.518-7.857 7.857-7.857s7.857 3.518 7.857 7.857v23.571h23.571c4.339 0 7.857 3.518 7.857 7.857z" fill="#fff5f5"/><path d="m369 319.5c0 5.523-4.477 10-10 10h-40c-5.523 0-10-4.477-10-10 0-5.523 4.477-10 10-10h40c5.523 0 10 4.477 10 10z" fill="#f76937"/><path d="m349 359.5c0 5.523-4.477 10-10 10h-20c-5.523 0-10-4.477-10-10 0-5.523 4.477-10 10-10h20c5.523 0 10 4.477 10 10zm-10 30h-20c-5.523 0-10 4.477-10 10 0 5.523 4.477 10 10 10h20c5.523 0 10-4.477 10-10 0-5.523-4.477-10-10-10z" fill="#ff956a"/><path d="m409 289.5h-90c-5.523 0-10-4.477-10-10 0-5.523 4.477-10 10-10h90c5.523 0 10 4.477 10 10 0 5.523-4.477 10-10 10zm60 60h-90c-5.523 0-10 4.477-10 10 0 5.523 4.477 10 10 10h90c5.523 0 10-4.477 10-10 0-5.523-4.477-10-10-10zm-50 40h-40c-5.523 0-10 4.477-10 10 0 5.523 4.477 10 10 10h40c5.523 0 10-4.477 10-10 0-5.523-4.477-10-10-10z" fill="#ffc5ae"/><path d="m225.146 321.143v18.571c0 5.523-4.477 10-10 10h-5.714c-5.523 0-10-4.477-10-10v-18.571c0-5.523 4.477-10 10-10h5.714c5.523 0 10 4.477 10 10zm-10 101.428h-5.714c-5.523 0-10 4.477-10 10v18.572c0 5.523 4.477 10 10 10h5.714c5.523 0 10-4.477 10-10v-18.572c0-5.523-4.477-10-10-10zm-39.286-33.571v-5.714c0-5.523-4.477-10-10-10h-18.571c-5.523 0-10 4.477-10 10v5.714c0 5.523 4.477 10 10 10h18.571c5.523 0 10-4.478 10-10zm101.429-15.715h-18.571c-5.523 0-10 4.477-10 10v5.715c0 5.523 4.477 10 10 10h18.571c5.523 0 10-4.477 10-10v-5.714c0-5.524-4.477-10.001-10-10.001zm-101.871-42.196c-3.905-3.905-10.237-3.905-14.142 0l-4.041 4.041c-3.905 3.905-3.905 10.237 0 14.142l13.132 13.132c3.905 3.905 10.237 3.905 14.142 0l4.041-4.041c3.905-3.905 3.905-10.237 0-14.142zm78.792 78.792c-3.905-3.905-10.237-3.905-14.142 0l-4.041 4.041c-3.905 3.905-3.905 10.237 0 14.142l13.132 13.132c3.905 3.905 10.237 3.905 14.142 0l4.041-4.041c3.905-3.905 3.905-10.237 0-14.142zm-69.7 0c-3.905-3.905-10.237-3.905-14.142 0l-13.132 13.132c-3.905 3.905-3.905 10.237 0 14.142l4.041 4.041c3.905 3.905 10.237 3.905 14.142 0l13.132-13.132c3.905-3.905 3.905-10.237 0-14.142zm55.558-47.477c3.905 3.905 10.237 3.905 14.142 0l13.132-13.132c3.905-3.905 3.905-10.237 0-14.142l-4.041-4.041c-3.905-3.905-10.237-3.905-14.142 0l-13.132 13.132c-3.905 3.905-3.905 10.237 0 14.142z" fill="#76b6fa"/><path d="m275.192 386.143c0 34.74-28.163 62.903-62.903 62.903-34.741 0-62.903-28.163-62.903-62.903 0-34.741 28.163-62.903 62.903-62.903 34.74-.001 62.903 28.162 62.903 62.903z" fill="#3493f8"/><path d="m260.676 386.142c0 26.723-21.664 48.387-48.387 48.387s-48.387-21.664-48.387-48.387 21.664-48.387 48.387-48.387 48.387 21.664 48.387 48.387z" fill="#76b6fa"/><path d="m173.931 372.164h-.22c-3.935 0-6.474-4.146-4.711-7.664 7.996-15.963 24.562-26.889 43.665-26.743 25.688.195 46.959 20.757 47.972 46.426.228 5.767-.555 11.322-2.184 16.5-.697 2.215-2.728 3.739-5.05 3.739h-.21c-3.596 0-6.093-3.503-5.01-6.931 1.222-3.867 1.835-8.004 1.729-12.299-.501-20.338-17.404-36.75-37.749-36.684-14.636.048-27.305 8.451-33.487 20.689-.91 1.803-2.726 2.967-4.745 2.967z" fill="#a7d0fc"/><path d="m238.923 386.142c0 15.262-12.372 27.634-27.634 27.634s-27.634-12.372-27.634-27.634 12.372-27.634 27.634-27.634 27.634 12.372 27.634 27.634z" fill="#f5f0eb"/></g></svg>