<svg id="Capa_1" enable-background="new 0 0 501 501" height="512" viewBox="0 0 501 501" width="512" xmlns="http://www.w3.org/2000/svg"><g><path d="m400.908 439.5c-42.36 34.983-96.679 56-155.908 56-135.133 0-244.713-109.404-244.999-244.47-.287-135.498 108.367-244.914 243.864-245.527 95.005-.43 177.521 53.217 218.542 131.933-36.891 13.236-61.5 48.209-61.5 87.402v214.662z" fill="#453d83"/><path d="m199 439.5h-68c-11.046 0-20-8.954-20-20v-246c0-11.046 8.954-20 20-20h68c11.046 0 20 8.954 20 20v246c0 11.046-8.954 20-20 20z" fill="#f5e8b4"/><path d="m490 250.5c0 76.082-34.679 144.063-89.092 189h-240.908c-11.046 0-20-8.954-20-20v-246c0-11.046 8.954-20 20-20h310.048c12.838 29.746 19.952 62.542 19.952 97z" fill="#f9f1d2"/><path d="m389 400.5c0 5.523-4.477 10-10 10h-190c-5.523 0-10-4.477-10-10 0-5.523 4.477-10 10-10h190c5.523 0 10 4.477 10 10zm24-109v64c0 2.761 2.239 5 5 5h45.977c11.501-22.85 19.531-47.748 23.396-74h-69.373c-2.761 0-5 2.239-5 5zm71.894-91h-66.894c-2.761 0-5 2.239-5 5v64c0 2.761 2.239 5 5 5h70.839c.768-7.896 1.161-15.902 1.161-24 0-17.134-1.759-33.858-5.106-50z" fill="#edd578"/><path d="m151 173.5h-40v-20c0-11.046 8.954-20 20-20 11.046 0 20 8.954 20 20z" fill="#ff956a"/><path d="m409 173.5h-269v-20c0-11.046 8.954-20 20-20h229c11.046 0 20 8.954 20 20z" fill="#ffad8c"/><path d="m141.667 153.5h-30.667v-40c0-11.046 8.954-20 20-20h30.667c11.046 0 20 8.954 20 20 0 22.091-17.909 40-40 40z" fill="#d1462a"/><path d="m470.048 153.5h-330.048v-40c0-11.046 8.954-20 20-20h273.093c15.034 17.993 27.535 38.176 36.955 60z" fill="#f76937"/><path d="m190 123.5c0 5.523-4.477 10-10 10s-10-4.477-10-10 4.477-10 10-10 10 4.477 10 10zm-50-10c-5.523 0-10 4.477-10 10s4.477 10 10 10 10-4.477 10-10-4.477-10-10-10zm80 0c-5.523 0-10 4.477-10 10s4.477 10 10 10 10-4.477 10-10-4.477-10-10-10z" fill="#bc3f2a"/><path d="m189 410.5h-110c-5.523 0-10-4.477-10-10 0-5.523 4.477-10 10-10h110c5.523 0 10 4.477 10 10 0 5.523-4.477 10-10 10z" fill="#f76937"/><path d="m219 400.5c0 13.807-11.193 25-25 25s-25-11.193-25-25 11.193-25 25-25 25 11.193 25 25z" fill="#bc3f2a"/><path d="m394.5 360.5h-331c-2.761 0-5-2.239-5-5v-150c0-2.761 2.239-5 5-5h331c2.761 0 5 2.239 5 5v150c0 2.761-2.239 5-5 5z" fill="#f76937"/><path d="m91.265 360.5h-27.765c-2.761 0-5-2.238-5-5v-150c0-2.761 2.239-5 5-5h27.765c-2.761 0-5 2.239-5 5v150c0 2.762 2.239 5 5 5z" fill="#ea552d"/><path d="m279 280.5c0 27.614-22.386 50-50 50s-50-22.386-50-50 22.386-50 50-50 50 22.386 50 50z" fill="#d1462a"/><path d="m89 109.5c0 19.33-15.67 35-35 35s-35-15.67-35-35 15.67-35 35-35 35 15.67 35 35z" fill="#d1462a"/><path d="m89 109.5c0 6.24-1.633 12.098-4.495 17.171-5.073 2.862-10.932 4.495-17.172 4.495-19.33 0-35-15.67-35-35 0-6.24 1.634-12.098 4.495-17.171 5.074-2.862 10.932-4.495 17.172-4.495 19.33 0 35 15.67 35 35z" fill="#f76937"/><path d="m89 289.5c0 19.33-15.67 35-35 35s-35-15.67-35-35 15.67-35 35-35 35 15.67 35 35z" fill="#55a4f9"/><path d="m89 289.5c0 6.24-1.633 12.098-4.495 17.171-5.073 2.862-10.932 4.495-17.172 4.495-19.33 0-35-15.67-35-35 0-6.24 1.634-12.098 4.495-17.171 5.074-2.862 10.932-4.495 17.172-4.495 19.33 0 35 15.67 35 35z" fill="#76b6fa"/><path d="m416 46.167c46.944 0 85 38.056 85 85s-38.056 85-85 85-85-38.056-85-85 38.056-85 85-85z" fill="#3493f8"/><path d="m501 131.167c0 15.777-4.298 30.55-11.788 43.212-12.662 7.49-27.435 11.788-43.212 11.788-46.944 0-85-38.056-85-85 0-15.777 4.298-30.55 11.788-43.212 12.662-7.49 27.435-11.788 43.212-11.788 46.944 0 85 38.055 85 85z" fill="#76b6fa"/><path d="m89 199.5c0 19.33-15.67 35-35 35s-35-15.67-35-35 15.67-35 35-35 35 15.67 35 35z" fill="#e1b91e"/><path d="m89 199.5c0 6.24-1.633 12.098-4.495 17.171-5.073 2.862-10.932 4.495-17.172 4.495-19.33 0-35-15.67-35-35 0-6.24 1.634-12.098 4.495-17.171 5.074-2.862 10.932-4.495 17.172-4.495 19.33 0 35 15.67 35 35z" fill="#eac23f"/><path d="m479.869 88.51c5.858-5.858 5.858-15.355 0-21.213s-15.355-5.858-21.213 0c-3.308 3.308-4.748 7.777-4.32 12.096-7.574-3.657-16.545-3.897-24.494-.284l-59.574 27.079 18.031 18.031c-1.375.911-2.679 1.971-3.889 3.182-9.763 9.763-9.763 25.592 0 35.355s25.592 9.763 35.355 0c1.211-1.21 2.271-2.515 3.182-3.889l18.031 18.032 27.079-59.575c3.613-7.949 3.372-16.92-.284-24.494 4.319.428 8.788-1.011 12.096-4.32zm-14.584-6.629c-2.197-2.197-2.197-5.758 0-7.955s5.758-2.197 7.955 0 2.197 5.758 0 7.955-5.758 2.197-7.955 0z" fill="#e1b91e"/><path d="m468.058 117.324-27.079 59.575-18.032-18.032c-.91 1.375-1.97 2.679-3.181 3.89-7.385 7.385-18.241 9.184-27.316 5.396-3.788-9.076-1.989-19.932 5.396-27.316 1.211-1.211 2.515-2.271 3.89-3.181l-10.737-10.737c-2.929 2.929-7.678 2.929-10.606 0l-17.195-17.195c-2.929-2.929-2.929-7.678 0-10.606 2.929-2.929 7.678-2.929 10.606 0l17.195 17.195c1.177 1.177 1.881 2.648 2.112 4.178l53.703-24.411c7.098-3.226 15.011-3.379 22.017-.772 2.607 7.005 2.453 14.918-.773 22.016z" fill="#e9cc5a"/><path d="m437.443 183.97-57.276-57.276c-2.929-2.929-2.929-7.678 0-10.607 2.929-2.929 7.678-2.929 10.607 0l57.276 57.276c2.929 2.929 2.929 7.678 0 10.607-2.929 2.929-7.678 2.929-10.607 0z" fill="#f1de96"/><path d="m246.872 284.642-26.931 18.204c-3.321 2.245-7.8-.134-7.8-4.142v-36.409c0-4.008 4.48-6.387 7.8-4.142l26.931 18.204c2.933 1.983 2.933 6.303 0 8.285zm-175.939 7.093-22.503 15.211c-1.992 1.347-4.68-.081-4.68-2.485v-30.421c0-2.405 2.688-3.832 4.68-2.485l22.503 15.211c1.76 1.188 1.76 3.78 0 4.969zm-21.933-81.235v-22c0-2.209-1.791-4-4-4h-2c-2.209 0-4 1.791-4 4v22c0 2.209 1.791 4 4 4h2c2.209 0 4-1.791 4-4zm20 0v-22c0-2.209-1.791-4-4-4h-2c-2.209 0-4 1.791-4 4v22c0 2.209 1.791 4 4 4h2c2.209 0 4-1.791 4-4zm-30-112v22c0 2.209 1.791 4 4 4h22c2.209 0 4-1.791 4-4v-22c0-2.209-1.791-4-4-4h-22c-2.209 0-4 1.791-4 4z" fill="#fff5f5"/></g></svg>