<svg id="Capa_1" enable-background="new 0 0 501 501" height="512" viewBox="0 0 501 501" width="512" xmlns="http://www.w3.org/2000/svg"><g><path d="m448.736 400c-15.128 20.79-33.446 39.108-54.236 54.236h-16.774c-26.568 0-50.933 14.768-63.226 38.321-20.402 5.506-41.858 8.444-64 8.444-5.376 0-10.711-.173-16-.514-14.204-65.263-71.967-111.807-138.758-111.807h-51.242c-24.227-37.54-38.474-82.126-38.986-130.005-1.462-136.713 110.629-248.952 247.343-247.664 75.085.708 142.094 35.191 186.567 88.989v280.814c0 7.484 3.432 14.555 9.312 19.186z" fill="#e1b91e"/><path d="m59.5 0h160c8.284 0 15 6.716 15 15v485.486c-79.742-5.14-149.096-48.43-190-111.808v-373.678c0-8.284 6.716-15 15-15z" fill="#51489a"/><path d="m214.5 72.5c0 4.142-3.358 7.5-7.5 7.5h-132.5v346.438c-11.185-11.548-21.245-24.194-30-37.76v-373.678c0-8.284 6.716-15 15-15h30c-8.284 0-15 6.716-15 15v17.5h132.5c4.142 0 7.5 3.358 7.5 7.5s-3.358 7.5-7.5 7.5h-132.5v17.5h132.5c4.142 0 7.5 3.358 7.5 7.5zm-75 97.5h-30c-8.284 0-15 6.716-15 15v110c0 8.284 6.716 15 15 15h30c8.284 0 15-6.716 15-15v-110c0-8.284-6.716-15-15-15z" fill="#453d83"/><path d="m314.5 380h80v74.236c-23.79 17.311-50.816 30.444-80 38.321z" fill="#6a61b4"/><path d="m448.833 399.867-.097.133h-309.236c-8.284 0-15-6.716-15-15v-270c0-8.284 6.716-15 15-15h299.924c10.209 12.349 19.23 25.717 26.888 39.927.966 1.793.348 3.986-1.369 5.081-4.175 2.663-6.943 7.336-6.943 12.655v213.613c0 10.252-3.14 20.296-9.167 28.591z" fill="#86befb"/><path d="m159.5 400h-20c-8.284 0-15-6.716-15-15v-270c0-8.284 6.716-15 15-15h20c-8.284 0-15 6.716-15 15v270c0 8.284 6.716 15 15 15z" fill="#55a4f9"/><path d="m207 440c-4.142 0-7.5-3.358-7.5-7.5 0-4.142 3.358-7.5 7.5-7.5 4.142 0 7.5 3.358 7.5 7.5 0 4.142-3.358 7.5-7.5 7.5z" fill="#e9f3fe"/><path d="m182 440c-4.142 0-7.5-3.358-7.5-7.5 0-4.142 3.358-7.5 7.5-7.5 4.142 0 7.5 3.358 7.5 7.5 0 4.142-3.358 7.5-7.5 7.5z" fill="#80bf95"/><path d="m476.818 350c-7.413 17.829-16.872 34.593-28.083 50h-309.235c-8.284 0-15-6.716-15-15v-35z" fill="#c8e2fd"/><path d="m159.5 400h-20c-8.284 0-15-6.716-15-15v-35h20v35c0 8.284 6.716 15 15 15z" fill="#a7d0fc"/><path d="m164.5 335.5v-190.5c0-2.761 2.239-5 5-5h296.852c18.596 34.53 29.148 74.033 29.148 116 0 28.044-4.712 54.987-13.387 80.082-4.965 14.362-312.613 4.418-312.613 4.418-2.761 0-5-2.239-5-5z" fill="#453d83"/><path d="m482.313 335.5c-2.874 8.381-6.189 16.557-9.918 24.5h-302.895c-2.761 0-5-2.239-5-5v-19.5z" fill="#8078bf"/><path d="m200.5 342c0 4.418-3.582 8-8 8s-8-3.582-8-8 3.582-8 8-8 8 3.582 8 8zm24-8c-4.418 0-8 3.582-8 8s3.582 8 8 8 8-3.582 8-8-3.582-8-8-8zm32 0c-4.418 0-8 3.582-8 8s3.582 8 8 8 8-3.582 8-8-3.582-8-8-8z" fill="#aba6d5"/><path d="m249.837 172.26v41.792c0 4.228-3.427 7.655-7.655 7.655h-54.682c-1.657 0-3-1.343-3-3v-53.707c0-2.761 2.239-5 5-5h15.409c2.761 0 5 2.239 5 5v2.26h34.928c2.761 0 5 2.238 5 5zm-5 76.707h-34.928v-2.26c0-2.761-2.239-5-5-5h-15.409c-2.761 0-5 2.239-5 5v53.707c0 1.657 1.343 3 3 3h54.682c4.228 0 7.655-3.427 7.655-7.655v-41.792c0-2.761-2.239-5-5-5z" fill="#c3a01a"/><path d="m258.912 176.334v41.743c0 2.005-1.625 3.63-3.63 3.63h-65.337c2.005 0 3.63-1.625 3.63-3.63v-41.743c0-2.005 1.625-3.63 3.63-3.63h58.077c2.005 0 3.63 1.626 3.63 3.63zm-3.63 78.078h-58.077c-2.005 0-3.63 1.625-3.63 3.63v41.743c0 2.005-1.625 3.63-3.63 3.63h65.337c2.005 0 3.63-1.625 3.63-3.63v-41.743c0-2.005-1.625-3.63-3.63-3.63z" fill="#eac23f"/><path d="m354.5 205.359c-3.72 2.148-8.477.873-10.625-2.847l-7.222-12.509c-2.148-3.72-.873-8.477 2.847-10.625 3.72-2.148 8.477-.873 10.625 2.847l7.222 12.509c2.148 3.72.873 8.477-2.847 10.625z" fill="#e9f3fe"/><path d="m409.141 220c-2.148-3.72-.873-8.477 2.847-10.625l12.509-7.222c3.72-2.148 8.477-.873 10.625 2.847 2.148 3.72.873 8.477-2.847 10.625l-12.509 7.222c-3.72 2.148-8.477.873-10.625-2.847z" fill="#6a61b4"/><path d="m444.5 240c0 4.296-3.482 7.778-7.778 7.778h-14.444c-4.296 0-7.778-3.482-7.778-7.778 0-4.295 3.482-7.778 7.778-7.778h14.444c4.296 0 7.778 3.483 7.778 7.778zm-12.225 24.375-12.509-7.222c-3.72-2.148-8.477-.873-10.625 2.847-2.148 3.72-.873 8.477 2.847 10.625l12.509 7.222c3.72 2.148 8.477.873 10.625-2.847 2.147-3.72.873-8.477-2.847-10.625z" fill="#8078bf"/><path d="m374.5 200c-4.296 0-7.778-3.482-7.778-7.778v-14.444c0-4.296 3.482-7.778 7.778-7.778 4.296 0 7.778 3.482 7.778 7.778v14.444c0 4.296-3.482 7.778-7.778 7.778zm30.625 2.512 7.222-12.509c2.148-3.72.873-8.477-2.847-10.625-3.72-2.148-8.477-.873-10.625 2.847l-7.222 12.509c-2.148 3.72-.873 8.477 2.847 10.625 3.72 2.148 8.477.873 10.625-2.847z" fill="#5f55af"/><path d="m326.722 247.778h-14.444c-4.296 0-7.778-3.482-7.778-7.778s3.482-7.778 7.778-7.778h14.444c4.296 0 7.778 3.482 7.778 7.778 0 4.295-3.482 7.778-7.778 7.778zm13.137 12.222c-2.148-3.72-6.905-4.995-10.625-2.847l-12.509 7.222c-3.72 2.148-4.995 6.905-2.847 10.625s6.905 4.995 10.625 2.847l12.509-7.222c3.72-2.148 4.995-6.905 2.847-10.625z" fill="#86befb"/><path d="m339.859 220c-2.148 3.72-6.905 4.995-10.625 2.847l-12.509-7.222c-3.72-2.148-4.995-6.905-2.847-10.625s6.905-4.995 10.625-2.847l12.509 7.222c3.72 2.148 4.995 6.905 2.847 10.625z" fill="#c8e2fd"/><path d="m382.278 287.778v14.444c0 4.296-3.482 7.778-7.778 7.778s-7.778-3.482-7.778-7.778v-14.444c0-4.296 3.482-7.778 7.778-7.778s7.778 3.482 7.778 7.778zm30.069 2.219-7.222-12.509c-2.148-3.72-6.905-4.995-10.625-2.847-3.72 2.148-4.995 6.905-2.847 10.625l7.222 12.509c2.148 3.72 6.905 4.995 10.625 2.847s4.995-6.905 2.847-10.625zm-57.847-15.356c-3.72-2.148-8.477-.873-10.625 2.847l-7.222 12.509c-2.148 3.72-.873 8.477 2.847 10.625s8.477.873 10.625-2.847l7.222-12.509c2.148-3.721.873-8.477-2.847-10.625z" fill="#55a4f9"/></g></svg>