<svg id="Capa_1" enable-background="new 0 0 501 501" height="512" viewBox="0 0 501 501" width="512" xmlns="http://www.w3.org/2000/svg"><g><path d="m489.998 251.516c-.348 85.82-44.821 161.229-111.907 204.717v-162.378c0-135.69-109.999-245.689-245.689-245.689-7.486 0-9.964-9.986-3.373-13.535 34.751-18.708 74.537-29.271 116.802-29.13 135.81.451 244.718 110.205 244.167 246.015z" fill="#e1b91e"/><path d="m411 70.307v254.193c0 16.569-13.431 30-30 30h-357.895c-7.426-15.816-13.21-32.556-17.134-50 48.776-24.524 79.558-74.453 79.558-129.047v-110.953c13.403-11.502 28.063-21.58 43.746-30h231.45c18.27 9.809 35.152 21.868 50.275 35.807z" fill="#8078bf"/><path d="m381 354.5h-220.864c-16.569 0-30-13.431-30-30v-260c0-16.569 13.431-30 30-30h220.864c16.569 0 30 13.431 30 30v260c0 16.569-13.431 30-30 30z" fill="#958fca"/><path d="m381 79.5v210c0 8.284-6.716 15-15 15h-360.029c-3.908-17.374-5.971-35.446-5.971-54 0-74.407 33.17-141.067 85.529-186h280.471c8.284 0 15 6.716 15 15z" fill="#86befb"/><path d="m130.136 304.5v-240h235.864c8.284 0 15 6.716 15 15v210c0 8.284-6.716 15-15 15z" fill="#a7d0fc"/><path d="m249 24.5c-22.056 0-40 17.944-40 40v100c0 5.522 4.478 10 10 10h60c5.522 0 10-4.478 10-10v-100c0-22.056-17.944-40-40-40zm20 130h-40v-90c0-11.028 8.972-20 20-20s20 8.972 20 20z" fill="#fff5f5"/><path d="m314 264.5h-130c-8.284 0-15-6.716-15-15v-110c0-8.284 6.716-15 15-15h130c8.284 0 15 6.716 15 15v110c0 8.284-6.716 15-15 15z" fill="#f76937"/><path d="m214 264.5h-30c-8.284 0-15-6.716-15-15v-110c0-8.284 6.716-15 15-15h30c-8.284 0-15 6.716-15 15v110c0 8.284 6.716 15 15 15z" fill="#ea552d"/><path d="m249 234.5c-8.284 0-15-6.716-15-15v-50c0-8.284 6.716-15 15-15 8.284 0 15 6.716 15 15v50c0 8.284-6.716 15-15 15z" fill="#bc3f2a"/><path d="m137.486 227.283c0 10.863-8.806 19.67-19.67 19.67h-117.791c.19-13.401 1.456-26.542 3.716-39.339h114.075c10.863-.001 19.67 8.806 19.67 19.669zm-19.67-85.236h-92.565c-6.202 12.543-11.363 25.694-15.367 39.339h107.932c10.863 0 19.67-8.806 19.67-19.67 0-10.862-8.807-19.669-19.67-19.669z" fill="#c8e2fd"/><path d="m30.818 161.717c0 6.025-4.884 10.909-10.909 10.909-2.451 0-4.713-.808-6.534-2.173 2.302-6.662 4.883-13.193 7.729-19.58 5.463.596 9.714 5.223 9.714 10.844zm18.485 54.657c-6.025 0-10.909 4.884-10.909 10.909s4.884 10.909 10.909 10.909 10.909-4.884 10.909-10.909-4.884-10.909-10.909-10.909zm0-65.566c-6.025 0-10.909 4.884-10.909 10.909s4.884 10.909 10.909 10.909 10.909-4.884 10.909-10.909-4.884-10.909-10.909-10.909zm29.394 0c-6.025 0-10.909 4.884-10.909 10.909s4.884 10.909 10.909 10.909 10.909-4.884 10.909-10.909-4.884-10.909-10.909-10.909zm0 65.566c-6.025 0-10.909 4.884-10.909 10.909s4.884 10.909 10.909 10.909 10.909-4.884 10.909-10.909-4.884-10.909-10.909-10.909zm29.394-43.748c6.025 0 10.909-4.884 10.909-10.909s-4.884-10.909-10.909-10.909-10.909 4.884-10.909 10.909 4.884 10.909 10.909 10.909zm0 43.748c-6.025 0-10.909 4.884-10.909 10.909s4.884 10.909 10.909 10.909 10.909-4.884 10.909-10.909-4.884-10.909-10.909-10.909zm-88.182 0c-6.025 0-10.909 4.884-10.909 10.909s4.884 10.909 10.909 10.909 10.909-4.884 10.909-10.909-4.884-10.909-10.909-10.909z" fill="#3493f8"/><path d="m411 374.5v56.193c-20.349 18.756-43.883 34.108-69.698 45.155-1.156.495-3.221-1.825-4.386-1.348-9.008 3.69-17.993 6.306-27.5 8.917-1.173.322-1.736 3.995-2.916 4.3-9.516 2.46-19.256 4.363-29.184 5.671-10.575 1.393-55.553 1.29-66.829-.299-4.68-.66-9.318-1.452-13.91-2.372-1.274-.255-2.436-4.566-3.703-4.841-9.589-2.082-17.241-2.956-26.375-6.125-.891-.309-3.615 1.652-4.501 1.333-3.728-1.342-7.413-2.772-11.055-4.287-1.022-.425-.845-1.94-1.861-2.379-4.545-1.964-7.103-3.315-11.5-5.542-.895-.453-4.898-.576-5.787-1.04-7.38-3.852-14.539-8.068-21.453-12.626-40.602-26.763-12.342-110.71-12.342-110.71h283c16.569 0 30 13.431 30 30z" fill="#6a61b4"/><path d="m110.34 455.207c-7.949-5.24-15.575-10.93-22.842-17.035-.791-.665-1.029-3.373-1.811-4.048-4.858-4.186-8.236-7.013-12.75-11.563-.622-.627-3.103-.765-3.718-1.399-5.171-5.325-10.103-10.885-14.777-16.661-.606-.748 2.071-2.747 1.474-3.503-5.971-7.559-11.507-15.479-16.568-23.721-.81-1.319-4.886-1.4-5.671-2.735-5.656-9.614-10.674-19.648-14.997-30.045h121.66c-16.568 0-30 13.431-30 30z" fill="#5f55af"/><path d="m87.5 384.5v10c0 5.523-4.477 10-10 10h-23.06c-7.643-9.445-14.598-19.47-20.788-29.999.033 0 .065-.001.098-.001h43.75c5.523 0 10 4.477 10 10zm99.5 83.333h-15c-5.523 0-10 4.477-10 10v3.25c11.172 4.022 22.72 7.255 34.578 9.632.274-.913.422-1.88.422-2.882v-10c0-5.522-4.477-10-10-10zm-3-26.666v-10c0-5.523-4.477-10-10-10h-15c-5.523 0-10 4.477-10 10v10c0 5.523 4.477 10 10 10h15c5.523 0 10-4.478 10-10zm-43 26.666h-9.207c6.232 3.253 12.621 6.246 19.154 8.964-.519-5.036-4.774-8.964-9.947-8.964zm65.5-63.333h15c5.523 0 10-4.477 10-10v-10c0-5.523-4.477-10-10-10h-15c-5.523 0-10 4.477-10 10v10c0 5.523 4.477 10 10 10zm-47.5 0h15c5.523 0 10-4.477 10-10v-10c0-5.523-4.477-10-10-10h-15c-5.523 0-10 4.477-10 10v10c0 5.523 4.477 10 10 10zm-49 0h15c5.523 0 10-4.477 10-10v-10c0-5.523-4.477-10-10-10h-15c-5.523 0-10 4.477-10 10v10c0 5.523 4.477 10 10 10zm-32.5 16.667h-8.278c5.799 5.972 11.9 11.649 18.278 17.007v-7.007c0-5.523-4.477-10-10-10zm57.5 20v-10c0-5.523-4.477-10-10-10h-15c-5.523 0-10 4.477-10 10v10c0 5.523 4.477 10 10 10h15c5.523 0 10-4.478 10-10zm96.5 0v-10c0-5.523-4.477-10-10-10h-15c-5.523 0-10 4.477-10 10v10c0 5.523 4.477 10 10 10h15c5.523 0 10-4.478 10-10zm100 26.666h-15c-5.523 0-10 4.477-10 10v9.883c11.981-3.097 23.606-7.078 34.802-11.869-.921-4.571-4.959-8.014-9.802-8.014zm-62.5 0h-50c-5.523 0-10 4.477-10 10v10c0 1.928.546 3.728 1.491 5.255 11.275 1.589 22.796 2.412 34.509 2.412 10.955 0 21.742-.719 32.317-2.113 1.063-1.589 1.683-3.499 1.683-5.554v-10c0-5.522-4.477-10-10-10z" fill="#958fca"/><path d="m89 344.5c0 5.523-4.477 10-10 10h-30c-5.523 0-10-4.477-10-10 0-5.523 4.477-10 10-10h30c5.523 0 10 4.477 10 10zm240-10h-30c-5.523 0-10 4.477-10 10 0 5.523 4.477 10 10 10h30c5.523 0 10-4.477 10-10 0-5.523-4.477-10-10-10z" fill="#51489a"/><path d="m454.667 464.5h-205.667c-16.569 0-30-13.431-30-30v-30c0-16.569 13.431-30 30-30h205.667c16.569 0 30 13.431 30 30v30c0 16.569-13.432 30-30 30z" fill="#c8e2fd"/><path d="m456 444.5h-177c-16.569 0-30-13.431-30-30v-10c0-16.569 13.431-30 30-30h177c16.569 0 30 13.431 30 30v10c0 16.569-13.431 30-30 30z" fill="#e9f3fe"/><path d="m300.818 419.5c0 6.025-4.884 10.909-10.909 10.909s-10.909-4.884-10.909-10.909 4.884-10.909 10.909-10.909 10.909 4.884 10.909 10.909zm18.485-10.909c-6.025 0-10.909 4.884-10.909 10.909s4.884 10.909 10.909 10.909 10.909-4.884 10.909-10.909-4.884-10.909-10.909-10.909zm29.394 0c-6.025 0-10.909 4.884-10.909 10.909s4.884 10.909 10.909 10.909 10.909-4.884 10.909-10.909-4.884-10.909-10.909-10.909zm29.394 0c-6.025 0-10.909 4.884-10.909 10.909s4.884 10.909 10.909 10.909 10.909-4.884 10.909-10.909-4.884-10.909-10.909-10.909zm-118.788 0c-6.025 0-10.909 4.884-10.909 10.909s4.884 10.909 10.909 10.909 10.909-4.884 10.909-10.909-4.884-10.909-10.909-10.909z" fill="#86befb"/><path d="m456 464.5c-24.853 0-45-20.147-45-45 0-24.853 20.147-45 45-45 24.853 0 45 20.147 45 45 0 24.853-20.147 45-45 45z" fill="#f76937"/><path d="m499.888 429.485c-4.542 20.047-22.467 35.015-43.888 35.015-21.421 0-39.346-14.968-43.888-35.015 8.24 9.215 20.22 15.015 33.554 15.015h20.667c13.335 0 25.314-5.8 33.555-15.015z" fill="#ea552d"/><path d="m480.333 418.94c.006 1.653-.621 3.308-1.883 4.57l-24.896 24.896c-2.51 2.51-6.581 2.51-9.091 0-2.51-2.511-2.51-6.581 0-9.092l20.375-20.375-20.375-20.375c-2.51-2.51-2.51-6.581 0-9.092 2.51-2.51 6.581-2.51 9.091 0l24.896 24.896c1.262 1.263 1.889 2.918 1.883 4.572z" fill="#fff5f5"/></g></svg>