<svg id="Capa_1" enable-background="new 0 0 501 501" height="512" viewBox="0 0 501 501" width="512" xmlns="http://www.w3.org/2000/svg"><g><path d="m11 250.5c0-135.31 109.69-245 245-245s245 109.69 245 245c0 66.755-26.698 127.275-70 171.464-3.269 3.336-310.155 32.928-311.999 31.682-65.161-44.03-108.001-118.585-108.001-203.146z" fill="#e1b91e"/><path d="m487.5 142.64v70c0 20.678-16.822 37.5-37.5 37.5h-210c-4.143 0-7.5-3.357-7.5-7.5s3.357-7.5 7.5-7.5h210c12.406 0 22.5-10.094 22.5-22.5v-70c0-12.406-10.094-22.5-22.5-22.5h-131.221c-4.143 0-7.5-3.357-7.5-7.5s3.357-7.5 7.5-7.5h131.221c20.678 0 37.5 16.822 37.5 37.5z" fill="#d1462a"/><path d="m340 181.024c0 41.421-33.579 75-75 75h-190c-41.421 0-75-33.579-75-75 0-31.406 19.303-58.303 46.693-69.474 8.212-3.35 13.326-11.49 13.307-20.36 0-.055 0-.111 0-.166 0-41.421 33.579-75 75-75h70c41.421 0 75 33.579 75 75v.166c-.019 8.869 5.095 17.01 13.308 20.359 27.389 11.172 46.692 38.069 46.692 69.475z" fill="#a7d0fc"/><path d="m79.021 256.024h-4.021c-41.421 0-75-33.579-75-75 0-31.406 19.303-58.303 46.693-69.474 8.212-3.35 13.327-11.49 13.307-20.36 0-.056 0-.111 0-.167 0-41.421 33.579-75 75-75h47.359c-43.364 0-78.517 35.153-78.517 78.517v.174c.02 9.285-5.334 17.807-13.931 21.313-28.674 11.695-48.882 39.854-48.882 72.732 0 28.538 15.224 53.518 37.992 67.265z" fill="#86befb"/><path d="m440 328.024v26c0 6.627-5.373 12-12 12h-6c-6.627 0-12-5.373-12-12v-26c0-6.627 5.373-12 12-12h6c6.627 0 12 5.372 12 12zm-249.446-122h-41.554c-16.569 0-30 13.431-30 30v20.378c-5.176 1.333-9 6.031-9 11.622v56c0 5.591 3.824 10.29 9 11.622v118c12.84 8.676 26.546 16.167 40.962 22.315 23.231 9.908 49.038-7.126 49.038-32.382v-219.109c0-10.187-8.259-18.446-18.446-18.446zm237.446 50h-6c-6.627 0-12 5.373-12 12v26c0 6.627 5.373 12 12 12h6c6.627 0 12-5.373 12-12v-26c0-6.628-5.373-12-12-12z" fill="#453d83"/><path d="m431 421.964c-11.489 11.725-24.147 22.3-37.786 31.536-4.893 3.314-11.758 6.345-20.084 9.086-105.589 34.769-214.13-44.882-214.13-156.049v-70.513c0-16.569 13.431-30 30-30h212c16.569 0 30 13.431 30 30z" fill="#51489a"/><path d="m391 256.024v198.958c-38.709 25.608-85.113 40.518-135 40.518-34.458 0-67.254-7.114-97-19.952v-219.524c0-5.523 4.477-10 10-10h212c5.523 0 10 4.477 10 10z" fill="#c8e2fd"/><path d="m391 256.024v198.958c-38.709 25.608-85.113 40.518-135 40.518-23.23 0-45.705-3.233-67-9.274v-230.202c0-5.523 4.477-10 10-10h182c5.523 0 10 4.477 10 10z" fill="#e9f3fe"/><path d="m314.75 256.024h-79.5c-8.975 0-16.25-7.275-16.25-16.25 0-8.975 7.275-16.25 16.25-16.25h79.5c8.975 0 16.25 7.275 16.25 16.25 0 8.975-7.275 16.25-16.25 16.25z" fill="#51489a"/><path d="m255 232c0 4.142-3.358 7.5-7.5 7.5s-7.5-3.358-7.5-7.5 3.358-7.5 7.5-7.5 7.5 3.358 7.5 7.5zm47.5-7.5h-30c-4.142 0-7.5 3.358-7.5 7.5s3.358 7.5 7.5 7.5h30c4.142 0 7.5-3.358 7.5-7.5s-3.358-7.5-7.5-7.5z" fill="#19305c"/><path d="m295.304 180.713c2.929 2.929 2.929 7.678 0 10.606-1.464 1.464-3.384 2.197-5.303 2.197s-3.839-.732-5.303-2.197c-8.773-8.773-23.048-8.772-31.82 0-2.929 2.929-7.678 2.929-10.606 0-2.929-2.929-2.929-7.678 0-10.606 14.62-14.622 38.411-14.621 53.032 0zm20-20c-25.649-25.649-67.383-25.649-93.033 0-2.929 2.929-2.929 7.678 0 10.606 2.929 2.929 7.678 2.929 10.606 0 19.8-19.801 52.018-19.802 71.82 0 1.464 1.464 3.384 2.197 5.303 2.197s3.839-.732 5.303-2.197c2.93-2.928 2.93-7.677.001-10.606z" fill="#fff5f5"/><path d="m340.297 139.763c2.929 2.93 2.929 7.678-.001 10.607-2.929 2.929-7.678 2.928-10.606-.001l-32.426-32.427c-2.929-2.929-2.929-7.677 0-10.605l32.426-32.427c1.465-1.465 3.385-2.197 5.304-2.197s3.839.732 5.303 2.196c2.93 2.93 2.93 7.678.001 10.607l-27.123 27.123z" fill="#d1462a"/><path d="m241.591 117.943-32.426 32.427c-1.465 1.465-3.385 2.197-5.304 2.197s-3.839-.732-5.303-2.196c-2.93-2.93-2.93-7.678-.001-10.607l19.623-19.623h-81.894c-4.143 0-7.5-3.357-7.5-7.5s3.357-7.5 7.5-7.5h81.894l-19.623-19.623c-2.929-2.93-2.929-7.678.001-10.607 2.929-2.929 7.678-2.928 10.606.001l32.426 32.427c2.929 2.927 2.929 7.675.001 10.604z" fill="#1380e2"/><path d="m350 364.5h-140c-5.523 0-10-4.477-10-10v-60c0-5.523 4.477-10 10-10h140c5.523 0 10 4.477 10 10v60c0 5.523-4.477 10-10 10zm10 100v-70c0-5.523-4.477-10-10-10h-140c-5.523 0-10 4.477-10 10v70c0 5.523 4.477 10 10 10h140c5.523 0 10-4.477 10-10z" fill="#a7d0fc"/><path d="m337.5 319.5h-115c-4.142 0-7.5-3.358-7.5-7.5 0-4.142 3.358-7.5 7.5-7.5h115c4.142 0 7.5 3.358 7.5 7.5 0 4.142-3.358 7.5-7.5 7.5zm-27.5 15c0-4.142-3.358-7.5-7.5-7.5h-80c-4.142 0-7.5 3.358-7.5 7.5 0 4.142 3.358 7.5 7.5 7.5h80c4.142 0 7.5-3.358 7.5-7.5z" fill="#76b6fa"/><path d="m380.203 363.248v122.252c0 5.523-4.477 10-10 10h-150.703c-5.523 0-10-4.477-10-10v-141.219c0-5.523 4.477-10 10-10h46.385c5.523 0 10 4.477 10 10v8.967h94.319c5.522 0 9.999 4.477 9.999 10z" fill="#c3a01a"/><path d="m414.093 376.956v109.06c0 5.238-4.246 9.483-9.484 9.483h-170.702c5.238 0 9.484-4.246 9.484-9.483v-109.06c0-5.238 4.246-9.483 9.484-9.483h151.735c5.237 0 9.483 4.246 9.483 9.483z" fill="#e9cc5a"/></g></svg>