<svg id="Capa_1" enable-background="new 0 0 501 501" height="512" viewBox="0 0 501 501" width="512" xmlns="http://www.w3.org/2000/svg"><g><path d="m489.999 255.17c.253 76.374-34.441 144.652-88.999 189.754h-15.456c-22.367 0-41.726 15.553-46.544 37.395-29.434 12.239-61.768 18.903-95.685 18.675-135.042-.908-243.315-109.949-243.315-244.994 0-135.31 109.69-245 245-245 135.253 0 244.551 108.918 244.999 244.17z" fill="#453d83"/><path d="m422.857 87.5h-46.357v230c0 4.143-3.357 7.5-7.5 7.5h-302.5v98.818c-5.267-5.6-10.273-11.448-15-17.525v-300.586c4.727-6.077 9.733-11.925 15-17.525v221.818h295v-222.5h-294.357c4.95-5.223 10.128-10.229 15.518-15h324.678c5.39 4.771 10.567 9.777 15.518 15z" fill="#6a61b4"/><path d="m169 262.5h-70c-4.142 0-7.5-3.357-7.5-7.5s3.358-7.5 7.5-7.5h70c4.142 0 7.5 3.357 7.5 7.5s-3.358 7.5-7.5 7.5zm-22.5 22.5c0-4.143-3.358-7.5-7.5-7.5h-40c-4.142 0-7.5 3.357-7.5 7.5s3.358 7.5 7.5 7.5h40c4.142 0 7.5-3.357 7.5-7.5zm177.5-147.5v70c0 4.142 3.357 7.5 7.5 7.5s7.5-3.358 7.5-7.5v-70c0-4.142-3.357-7.5-7.5-7.5s-7.5 3.358-7.5 7.5zm-30 30v40c0 4.142 3.357 7.5 7.5 7.5s7.5-3.358 7.5-7.5v-40c0-4.142-3.357-7.5-7.5-7.5s-7.5 3.358-7.5 7.5zm-30 20v20c0 4.142 3.357 7.5 7.5 7.5s7.5-3.358 7.5-7.5v-20c0-4.142-3.357-7.5-7.5-7.5s-7.5 3.358-7.5 7.5z" fill="#958fca"/><path d="m339 360h62v84.924c-18.565 15.347-39.429 28.01-62 37.396z" fill="#55a4f9"/><path d="m501 240v132c0 5.523-4.477 10-10 10h-242c-5.523 0-10-4.477-10-10v-132c0-5.523 4.477-10 10-10h242c5.523 0 10 4.477 10 10z" fill="#55a4f9"/><path d="m491 382h-212c-5.523 0-10-4.477-10-10v-132c0-5.523 4.477-10 10-10h212c5.523 0 10 4.477 10 10v132c0 5.523-4.477 10-10 10z" fill="#86befb"/><path d="m471 265v115.539c0 2.761-2.239 5-5 5h-192c-2.761 0-5-2.239-5-5v-115.539c0-2.761 2.239-5 5-5h192c2.761 0 5 2.239 5 5z" fill="#e1b91e"/><path d="m89 315c0 13.807-11.193 25-25 25s-25-11.193-25-25 11.193-25 25-25 25 11.193 25 25zm275-255c-13.807 0-25 11.193-25 25s11.193 25 25 25 25-11.193 25-25-11.193-25-25-25z" fill="#86befb"/><path d="m389 85c0 2.989-.525 5.856-1.487 8.513-2.657.962-5.524 1.487-8.513 1.487-13.807 0-25-11.193-25-25 0-2.989.525-5.856 1.487-8.513 2.657-.962 5.524-1.487 8.513-1.487 13.807 0 25 11.193 25 25zm-325 205c-2.989 0-5.856.525-8.513 1.487-.962 2.657-1.487 5.524-1.487 8.513 0 13.807 11.193 25 25 25 2.989 0 5.856-.525 8.513-1.487.962-2.657 1.487-5.524 1.487-8.513 0-13.807-11.193-25-25-25z" fill="#a7d0fc"/><path d="m501 370v30.539c0 8.284-6.716 15-15 15h-232c-8.284 0-15-6.716-15-15v-30.539z" fill="#a7d0fc"/><path d="m486 415.539h-202c-8.284 0-15-6.716-15-15v-30.539h232v30.539c0 8.284-6.716 15-15 15z" fill="#c8e2fd"/><path d="m393.273 322.714-38.533 26.047c-4.751 3.211-11.16-.192-11.16-5.927v-52.093c0-5.735 6.409-9.139 11.16-5.927l38.533 26.047c4.197 2.836 4.197 9.016 0 11.853z" fill="#fff5f5"/><path d="m189.5 370v90c0 5.523-4.477 10-10 10h-20c-5.523 0-10-4.477-10-10v-90c0-5.523 4.477-10 10-10h20c5.523 0 10 4.477 10 10zm-70-10h-20c-5.523 0-10 4.477-10 10v90c0 5.523 4.477 10 10 10h20c5.523 0 10-4.477 10-10v-90c0-5.523-4.477-10-10-10zm-60 0h-20c-5.523 0-10 4.477-10 10v90c0 5.523 4.477 10 10 10h20c5.523 0 10-4.477 10-10v-90c0-5.523-4.477-10-10-10z" fill="#eac23f"/><path d="m0 445v-60c0-8.284 6.716-15 15-15h189c8.284 0 15 6.716 15 15v60c0 8.284-6.716 15-15 15h-189c-8.284 0-15-6.716-15-15z" fill="#55a4f9"/><path d="m45 460h-30c-8.284 0-15-6.716-15-15v-60c0-8.284 6.716-15 15-15h30c-8.284 0-15 6.716-15 15v60c0 8.284 6.716 15 15 15z" fill="#3493f8"/><path d="m84.5 400v30c0 5.523-4.477 10-10 10h-10c-5.523 0-10-4.477-10-10v-30c0-5.523 4.477-10 10-10h10c5.523 0 10 4.477 10 10zm-60-10c-5.523 0-10 4.477-10 10s4.477 10 10 10 10-4.477 10-10-4.477-10-10-10zm0 30c-5.523 0-10 4.477-10 10s4.477 10 10 10 10-4.477 10-10-4.477-10-10-10zm170-10c5.523 0 10-4.477 10-10s-4.477-10-10-10-10 4.477-10 10 4.477 10 10 10zm-80-20h-10c-5.523 0-10 4.477-10 10v30c0 5.523 4.477 10 10 10h10c5.523 0 10-4.477 10-10v-30c0-5.523-4.477-10-10-10zm80 30c-5.523 0-10 4.477-10 10s4.477 10 10 10 10-4.477 10-10-4.477-10-10-10zm-40-30h-10c-5.523 0-10 4.477-10 10v30c0 5.523 4.477 10 10 10h10c5.523 0 10-4.477 10-10v-30c0-5.523-4.477-10-10-10z" fill="#1380e2"/><path d="m249 97.62c0 33.137-15.67 60-35 60s-35-26.863-35-60 15.67-60 35-60 35 26.863 35 60z" fill="#3493f8"/><path d="m249 97.62c0 33.137-15.67 60-35 60s-35-26.863-35-60c0-8.02.918-15.673 2.584-22.667 5.216 21.9 17.765 37.333 32.416 37.333s27.2-15.433 32.416-37.333c1.666 6.994 2.584 14.646 2.584 22.667z" fill="#1380e2"/><path d="m139 57.62v80c0 11.046-8.954 20-20 20h-60c-11.046 0-20-8.954-20-20v-80c0-11.046 8.954-20 20-20h60c11.046 0 20 8.954 20 20z" fill="#55a4f9"/><path d="m139 57.62v44.021c0 11.045-8.954 20-20 20h-60c-11.046 0-20-8.955-20-20v-44.021c0-11.046 8.954-20 20-20h60c11.046 0 20 8.954 20 20z" fill="#86befb"/><path d="m219 5.005v194.525c0 3.717-3.912 6.135-7.236 4.472l-92.764-46.382v-120l93.143-37.257c3.284-1.314 6.857 1.105 6.857 4.642z" fill="#55a4f9"/><path d="m219 5.005v158.233c0 3.717-3.912 6.134-7.236 4.472l-92.764-46.381v-83.709l93.143-37.257c3.284-1.314 6.857 1.105 6.857 4.642z" fill="#86befb"/><path d="m119 37.62v87.714h-40v-87.714z" fill="#c8e2fd"/><path d="m119 121.64v35.979h-40v-35.979z" fill="#a7d0fc"/></g></svg>