<svg id="Capa_1" enable-background="new 0 0 501 501" height="512" viewBox="0 0 501 501" width="512" xmlns="http://www.w3.org/2000/svg"><g><path d="m472.917 370c-11.456 21.752-26.087 41.572-43.278 58.842-3.677 3.694-9.502 4.195-13.702 1.108-40.588-29.829-90.704-47.45-144.937-47.45-61.141 0-117.051 22.396-159.974 59.432-4.174 3.601-10.355 3.624-14.537.033-52.336-44.932-85.489-111.577-85.489-185.965 0-135.184 109.486-244.795 244.621-245 119.326-.18 219.363 85.813 241.03 199-14.557 7.36-23.734 22.284-23.734 38.596z" fill="#453d83"/><path d="m92.323 145.91c2.929 2.929 2.929 7.678 0 10.606-2.929 2.929-7.678 2.929-10.606 0-14.622-14.621-14.621-38.412 0-53.033 2.929-2.929 7.678-2.929 10.606 0 1.464 1.464 2.197 3.384 2.197 5.303s-.732 3.839-2.197 5.303c-8.773 8.774-8.772 23.049 0 31.821zm-20-51.82c1.464-1.464 2.197-3.384 2.197-5.303s-.732-3.839-2.197-5.303c-2.929-2.929-7.678-2.929-10.606 0-25.649 25.649-25.649 67.383 0 93.033 2.929 2.929 7.678 2.929 10.606 0 2.929-2.929 2.929-7.678 0-10.606-19.8-19.801-19.801-52.019 0-71.821z" fill="#958fca"/><path d="m337 210h159.688c2.83 14.899 4.312 30.277 4.312 46 0 41.159-10.15 79.948-28.083 114h-135.917c-8.284 0-15-6.716-15-15v-130c0-8.284 6.716-15 15-15z" fill="#5f55af"/><path d="m490 237.5c0 4.143-3.357 7.5-7.5 7.5h-80c-4.142 0-7.5-3.357-7.5-7.5s3.358-7.5 7.5-7.5h80c4.143 0 7.5 3.357 7.5 7.5zm-87.5 32.5h30c4.143 0 7.5-3.357 7.5-7.5s-3.357-7.5-7.5-7.5h-30c-4.142 0-7.5 3.357-7.5 7.5s3.358 7.5 7.5 7.5zm0 35h57.5c4.143 0 7.5-3.357 7.5-7.5s-3.357-7.5-7.5-7.5h-57.5c-4.142 0-7.5 3.357-7.5 7.5s3.358 7.5 7.5 7.5zm70 10h-70c-4.142 0-7.5 3.357-7.5 7.5s3.358 7.5 7.5 7.5h70c4.143 0 7.5-3.357 7.5-7.5s-3.357-7.5-7.5-7.5z" fill="#958fca"/><path d="m127.692 464.755c-11.192-6.894-21.788-14.662-31.692-23.21v-79.545c0-38.66 31.34-70 70-70h44c-38.66 0-70 31.34-70 70v95.851c0 6.316-6.931 10.216-12.308 6.904z" fill="#54a770"/><path d="m416 362v79.545c-42.926 37.049-98.847 59.455-160 59.455-47.757 0-92.322-13.664-130-37.296v-101.704c0-38.66 31.34-70 70-70h150c38.66 0 70 31.34 70 70z" fill="#69b482"/><path d="m370 414.75v58.167c-6.5 3.423-13.172 6.563-20 9.402v-67.569c0-5.523 4.477-10 10-10s10 4.477 10 10zm-218-10c-5.523 0-10 4.477-10 10v58.167c6.5 3.423 13.172 6.563 20 9.402v-67.569c0-5.523-4.477-10-10-10z" fill="#54a770"/><path d="m256 350c-27.614 0-50-22.386-50-50v-8h100v8c0 27.614-22.386 50-50 50z" fill="#489160"/><path d="m382 110c0 60.752-49.249 110-110 110h-32c-60.751 0-110-49.249-110-110 0-60.751 49.249-110 110-110h32c60.751 0 110 49.249 110 110z" fill="#eac23f"/><path d="m146 202c-13.807 0-25-11.193-25-25v-10c0-13.807 11.193-25 25-25 13.807 0 25 11.193 25 25v10c0 13.807-11.193 25-25 25z" fill="#ffbeaa"/><path d="m136 162v20c0 8.178 3.927 15.439 9.998 20-13.806-.001-24.998-11.194-24.998-25v-10c0-13.806 11.192-24.999 24.998-25-6.071 4.561-9.998 11.822-9.998 20zm120-150c-60.752 0-110 49.249-110 110v40c0 50.351 33.83 92.801 80 105.859v34.141c0 16.569 13.431 30 30 30s30-13.431 30-30v-34.141c46.17-13.059 80-55.508 80-105.859v-40c0-60.751-49.249-110-110-110z" fill="#faa68e"/><path d="m366 122v40c0 50.792-34.425 93.543-81.216 106.195-9.023 2.44-18.545 2.44-27.568 0-46.791-12.652-81.216-55.403-81.216-106.195v-40c0-55.663 41.345-101.669 95-108.985 53.655 7.316 95 53.322 95 108.985z" fill="#ffbeaa"/><path d="m286.303 206.939c-8.354 8.354-19.329 12.531-30.303 12.531s-21.949-4.177-30.303-12.531c-2.929-2.93-2.929-7.678 0-10.607 2.929-2.928 7.678-2.928 10.606 0 10.861 10.861 28.532 10.861 39.394 0 2.929-2.928 7.678-2.928 10.606 0 2.929 2.93 2.929 7.678 0 10.607z" fill="#e09380"/><path d="m374.501 70h-26.501c-26.793 0-51.349-9.579-70.429-25.5-18.948 33.155-54.65 55.5-95.571 55.5h-32c-6.614 0-13.092-.584-19.384-1.703 5.842-55.249 52.586-98.297 109.384-98.297h32c46.64 0 86.499 29.027 102.501 70z" fill="#eac23f"/><path d="m130.616 98.297c5.842-55.249 52.586-98.297 109.384-98.297h32c2.078 0 4.143.058 6.193.172-53.972 2.994-97.564 44.897-103.193 98.125 4.313.767-38.092 1.119-44.384 0z" fill="#e1b91e"/><path d="m402 110v40c0 11.046-8.954 20-20 20h-252c-11.046 0-20-8.954-20-20v-40c0-11.046 8.954-20 20-20h252c11.046 0 20 8.954 20 20z" fill="#c8e2fd"/><path d="m402 103v26c0 7.18-8.954 13-20 13h-252c-11.046 0-20-5.82-20-13v-26c0-7.18 8.954-13 20-13h252c11.046 0 20 5.82 20 13z" fill="#e9f3fe"/><path d="m231 180h-81c-11.046 0-20-8.954-20-20v-60c0-11.046 8.954-20 20-20h81c27.614 0 50 22.386 50 50 0 27.614-22.386 50-50 50z" fill="#1380e2"/><path d="m362 180h-142c-27.614 0-50-22.386-50-50 0-27.614 22.386-50 50-50h142c11.046 0 20 8.954 20 20v60c0 11.046-8.954 20-20 20z" fill="#55a4f9"/><path d="m300 80-30 100h-40l30-100zm20 0-30 100h20l30-100z" fill="#86befb"/><path d="m414 187c0 19.33-15.67 35-35 35s-35-15.67-35-35 15.67-35 35-35 35 15.67 35 35z" fill="#86befb"/><path d="m430 310h-60v-50c0-16.569 13.431-30 30-30 16.569 0 30 13.431 30 30z" fill="#ffbeaa"/><path d="m390 200v92.667c0 5.523-4.477 10-10 10-5.523 0-10-4.477-10-10v-92.667c0-5.523 4.477-10 10-10 5.523 0 10 4.477 10 10z" fill="#faa68e"/><path d="m370 300h60v128.479c-17.54 17.694-37.76 32.726-60 44.439z" fill="#80bf95"/><path d="m393.06 300h36.94v128.479c-11.266 11.365-23.637 21.631-36.94 30.626z" fill="#96cba8"/><path d="m432.5 305h-65c-4.142 0-7.5-3.358-7.5-7.5 0-4.142 3.358-7.5 7.5-7.5h65c4.142 0 7.5 3.358 7.5 7.5 0 4.142-3.358 7.5-7.5 7.5z" fill="#add6bb"/><path d="m432.5 305h-45c-4.142 0-7.5-3.358-7.5-7.5 0-4.142 3.358-7.5 7.5-7.5h45c4.142 0 7.5 3.358 7.5 7.5 0 4.142-3.358 7.5-7.5 7.5z" fill="#c8e2fd"/><path d="m393 187c0 7.732-6.268 14-14 14s-14-6.268-14-14 6.268-14 14-14 14 6.268 14 14z" fill="#fff5f5"/><path d="m35 380h-20c-8.284 0-15-6.716-15-15v-130c0-8.284 6.716-15 15-15h20c8.284 0 15 6.716 15 15v130c0 8.284-6.716 15-15 15z" fill="#86befb"/><path d="m195 380h-160c-8.284 0-15-6.716-15-15v-130c0-8.284 6.716-15 15-15h160c8.284 0 15 6.716 15 15v130c0 8.284-6.716 15-15 15z" fill="#a7d0fc"/><path d="m190 360h-130c0-66.274 17.909-120 40-120 12.205 0 23.133 16.398 30.47 42.251 1.75 6.165 8.067 9.762 14.315 8.338 1.707-.389 3.448-.59 5.215-.59 22.091.001 40 31.341 40 70.001z" fill="#86befb"/><path d="m190 360h-170c0-33.137 17.909-60 40-60 10.771 0 20.548 6.386 27.739 16.772 4.079 5.891 11.39 8.557 18.269 6.554 7.348-2.139 15.462-3.326 23.992-3.326 33.137 0 60 17.908 60 40zm40 47.5c0-4.143-3.357-7.5-7.5-7.5h-80c-4.142 0-7.5 3.357-7.5 7.5s3.358 7.5 7.5 7.5h80c4.143 0 7.5-3.357 7.5-7.5zm-50 25c0-4.143-3.357-7.5-7.5-7.5h-30c-4.142 0-7.5 3.357-7.5 7.5s3.358 7.5 7.5 7.5h30c4.143 0 7.5-3.357 7.5-7.5z" fill="#e9f3fe"/><path d="m43 253.75h-26c-3.866 0-7-3.134-7-7v-1c0-3.866 3.134-7 7-7h26c3.866 0 7 3.134 7 7v1c0 3.866-3.134 7-7 7zm7 19.25v-1c0-3.866-3.134-7-7-7h-26c-3.866 0-7 3.134-7 7v1c0 3.866 3.134 7 7 7h26c3.866 0 7-3.134 7-7zm132.5-34.25c-4.142 0-7.5 3.358-7.5 7.5s3.358 7.5 7.5 7.5 7.5-3.358 7.5-7.5-3.358-7.5-7.5-7.5zm-25 0c-4.142 0-7.5 3.358-7.5 7.5s3.358 7.5 7.5 7.5 7.5-3.358 7.5-7.5-3.358-7.5-7.5-7.5zm25 26.25c-4.142 0-7.5 3.358-7.5 7.5s3.358 7.5 7.5 7.5 7.5-3.358 7.5-7.5-3.358-7.5-7.5-7.5z" fill="#fff5f5"/></g></svg>