<svg id="Capa_1" enable-background="new 0 0 501 501" height="512" viewBox="0 0 501 501" width="512" xmlns="http://www.w3.org/2000/svg"><g><path d="m68.2 419.685c-38.982-43.387-62.7-100.766-62.7-163.685 0-135.002 110.14-245.077 245.142-245 135.245.077 244.858 109.738 244.858 245 0 50.287-15.15 97.034-41.135 135.928-1.188 1.779-3.617 2.185-5.362.947-46.664-33.105-105.671-52.875-169.836-52.875-80.116 0-152.192 30.821-202.24 79.941-2.457 2.411-6.427 2.304-8.727-.256z" fill="#453d83"/><path d="m84.871 58.807 275.102-58.476c8.103-1.722 16.068 3.45 17.791 11.553l37.425 176.066c1.722 8.103-3.45 16.069-11.553 17.791l-275.102 58.476c-8.103 1.722-16.069-3.45-17.791-11.553l-37.425-176.066c-1.723-8.104 3.45-16.069 11.553-17.791z" fill="#c3a01a"/><path d="m414.5 53v385.016c-25.969 23.413-56.973 41.348-91.192 51.984h-145.616c-42.705-13.273-80.404-37.915-109.556-70.386v-366.614c0-8.284 6.716-15 15-15h316.364c8.284 0 15 6.716 15 15z" fill="#e9cc5a"/><path d="m108.573 455.728c-14.781-10.522-28.345-22.644-40.437-36.114v-366.614c0-8.284 6.716-15 15-15h52.5c-8.284 0-15 6.716-15 15v396.522c0 6.202-7.01 9.803-12.063 6.206z" fill="#eac23f"/><path d="m159.136 461.747c0 10.429-11.036 17.137-20.315 12.377-10.71-5.494-20.962-11.754-30.685-18.708v-360.416c0-8.284 6.716-15 15-15h36z" fill="#76b6fa"/><path d="m153.136 80h211.364l1 2.242c17.574 39.405 49.352 70.74 89 87.758v221.727c-43.916 65.875-118.89 109.273-204 109.273-40.502 0-78.708-9.828-112.364-27.229v-378.771c0-8.284 6.716-15 15-15z" fill="#a7d0fc"/><path d="m384.5 220c0 60.751-49.249 110-110 110s-110-49.249-110-110 49.249-110 110-110 110 49.249 110 110z" fill="#c8e2fd"/><path d="m189.5 370c0-5.523 4.477-10 10-10h150c5.523 0 10 4.477 10 10s-4.477 10-10 10h-150c-5.523 0-10-4.477-10-10zm160 30h-150c-5.523 0-10 4.477-10 10s4.477 10 10 10h150c5.523 0 10-4.477 10-10s-4.477-10-10-10zm-20 40h-110c-5.523 0-10 4.477-10 10s4.477 10 10 10h110c5.523 0 10-4.477 10-10s-4.477-10-10-10z" fill="#55a4f9"/><path d="m339.735 190.434-27.893 48.313c-1.949 3.375-5.551 5.455-9.449 5.455h-10.987v52.095c0 9.337-7.569 16.906-16.906 16.906s-16.906-7.569-16.906-16.906v-52.095h-10.987c-3.898 0-7.5-2.08-9.449-5.455l-27.893-48.313c-1.949-3.376-1.949-7.535 0-10.91l24.398-42.259c4.112-7.122 11.711-11.509 19.935-11.509 1.607 0 2.91 1.302 2.91 2.909v61.175c0 9.488 7.343 17.26 16.656 17.944 10.615.78 19.33-7.806 19.33-18.45v-60.67c0-1.607 1.303-2.909 2.91-2.909 8.224 0 15.823 4.387 19.935 11.509l24.398 42.259c1.947 3.376 1.947 7.535-.002 10.911z" fill="#51489a"/><path d="m257.594 244.202h-10.987c-3.898 0-7.5-2.08-9.449-5.455l-27.893-48.313c-1.949-3.376-1.949-7.535 0-10.91l24.398-42.259c4.112-7.122 11.711-11.509 19.935-11.509 1.095 0 2.049.606 2.545 1.5-.691.903-1.328 1.855-1.906 2.855l-28.056 48.594c-2.241 3.882-2.241 8.664 0 12.546z" fill="#453d83"/><path d="m304.931 307.843c0 10.735-8.254 19.666-18.956 20.506-10.938.859-22.384 1.148-24.996.827-5.788-.71-11.437-1.869-16.911-3.441v-17.892c0-11.046 8.954-20 20-20h20.863c11.046.001 20 8.955 20 20z" fill="#d1462a"/><path d="m304.931 307.844v17.892c-9.664 2.776-19.874 4.264-30.431 4.264-4.579 0-9.093-.28-13.525-.824v-21.333c0-11.046 8.954-20 20-20h3.956c11.046.001 20 8.955 20 20.001z" fill="#ea552d"/><path d="m291.406 313.203v15.506c-5.511.85-11.157 1.292-16.906 1.292v-16.797c0-4.668 3.785-8.453 8.453-8.453s8.453 3.783 8.453 8.452z" fill="#d1462a"/><path d="m364.5 160v-80l90 90h-80c-5.523 0-10-4.477-10-10z" fill="#fff5f5"/></g></svg>