<svg id="Capa_1" enable-background="new 0 0 501 501" height="512" viewBox="0 0 501 501" width="512" xmlns="http://www.w3.org/2000/svg"><g><path d="m489.988 252.93c-.687 70.711-31.33 134.254-79.847 178.55-13.344 12.183-34.808 2.737-34.808-15.333v-118.98c0-133.101-107.9-241-241-241-11.814 0-15.894-15.821-5.497-21.43 34.988-18.877 75.091-29.492 117.695-29.231 136.086.83 244.78 111.343 243.457 247.424z" fill="#e1b91e"/><path d="m177 354.5h-153.895c-7.426-15.816-13.21-32.556-17.134-50 46.462-10.22 79.558-51.387 79.558-98.96v-141.04c13.403-11.502 28.063-21.58 43.746-30h27.725c11.046 0 20 8.954 20 20z" fill="#8078bf"/><path d="m381 354.5h-194.917c-32.815 0-59.417-26.602-59.417-59.417v-230.583c0-16.569 13.431-30 30-30h224.334c16.569 0 30 13.431 30 30v260c0 16.569-13.431 30-30 30z" fill="#958fca"/><path d="m381 79.5v210c0 8.284-6.716 15-15 15h-360.029c-3.908-17.374-5.971-35.446-5.971-54 0-51.4 15.828-99.102 42.876-138.5.477-.695 3.452-.998 3.936-1.688 2.65-3.776 4.709-7.697 7.563-11.313.485-.614-.828-1.391-.338-2 9.479-11.777 20.025-22.66 31.492-32.5h280.471c8.284.001 15 6.717 15 15.001z" fill="#453d83"/><path d="m126.667 295.083v-230.583h239.333c8.284 0 15 6.716 15 15v210c0 8.284-6.716 15-15 15h-238.591c-.489-3.067-.742-6.212-.742-9.417z" fill="#51489a"/><path d="m79 197c0 4.142-3.358 7.5-7.5 7.5h-15c-4.142 0-7.5-3.358-7.5-7.5s3.358-7.5 7.5-7.5h15c4.142 0 7.5 3.358 7.5 7.5zm-7.5-67.5h-15c-4.142 0-7.5 3.358-7.5 7.5s3.358 7.5 7.5 7.5h15c4.142 0 7.5-3.358 7.5-7.5s-3.358-7.5-7.5-7.5zm0 30h-15c-4.142 0-7.5 3.358-7.5 7.5s3.358 7.5 7.5 7.5h15c4.142 0 7.5-3.358 7.5-7.5s-3.358-7.5-7.5-7.5zm37.5 67.5c0-4.142-3.358-7.5-7.5-7.5h-75c-4.142 0-7.5 3.358-7.5 7.5s3.358 7.5 7.5 7.5h75c4.142 0 7.5-3.358 7.5-7.5zm-30-122.5c0-4.142-3.358-7.5-7.5-7.5h-17.463c-3.905 4.852-7.628 9.855-11.16 15h28.623c4.142 0 7.5-3.358 7.5-7.5zm27.5 7.5h75c4.142 0 7.5-3.358 7.5-7.5s-3.358-7.5-7.5-7.5h-75c-4.142 0-7.5 3.358-7.5 7.5s3.358 7.5 7.5 7.5zm0 32.5h55c4.142 0 7.5-3.358 7.5-7.5s-3.358-7.5-7.5-7.5h-55c-4.142 0-7.5 3.358-7.5 7.5s3.358 7.5 7.5 7.5zm0 30h55c4.142 0 7.5-3.358 7.5-7.5s-3.358-7.5-7.5-7.5h-55c-4.142 0-7.5 3.358-7.5 7.5s3.358 7.5 7.5 7.5zm-35 75h-15c-4.142 0-7.5 3.358-7.5 7.5s3.358 7.5 7.5 7.5h15c4.142 0 7.5-3.358 7.5-7.5s-3.358-7.5-7.5-7.5zm35-45h115c4.142 0 7.5-3.358 7.5-7.5s-3.358-7.5-7.5-7.5h-115c-4.142 0-7.5 3.358-7.5 7.5s3.358 7.5 7.5 7.5zm115 45h-115c-4.142 0-7.5 3.358-7.5 7.5s3.358 7.5 7.5 7.5h115c4.142 0 7.5-3.358 7.5-7.5s-3.358-7.5-7.5-7.5z" fill="#6a61b4"/><path d="m164.5 443.331c0 19.143-20.525 31.258-37.302 22.041-14.142-7.77-27.434-16.895-39.702-27.201-.708-.595-.858-3.318-1.559-3.921-4.8-4.125-8.597-7.082-13.063-11.563-.757-.76-2.907-.752-3.654-1.522-5.172-5.326-10.104-10.886-14.779-16.663-.593-.732 2.059-2.43 1.474-3.169-6.249-7.907-12.021-16.208-17.272-24.861-.583-.96-4.399-.963-4.968-1.931-5.655-9.613-10.673-19.647-14.995-30.042h145.82z" fill="#5f55af"/><path d="m156.667 344.5h224.333c16.569 0 30 13.431 30 30v56.193c-20.349 18.756-43.883 34.108-69.698 45.155-1.042.446-2.429-1.395-3.478-.963-9.024 3.713-18.319 6.903-27.846 9.532-1.269.35-2.201 2.97-3.478 3.3-9.516 2.46-19.256 4.363-29.184 5.671-10.575 1.393-55.552 1.29-66.827-.299-4.679-.66-9.316-1.452-13.907-2.372-1.34-.269-3.584-5.26-4.917-5.55-9.183-2.002-15.817-2.892-24.583-5.892-1.213-.415-3.871 2.245-5.076 1.811-3.727-1.342-7.413-2.771-11.054-4.286-.86-.358-1.099-1.766-1.954-2.133-4.758-2.044-9.403-3.814-14-6.145-.853-.432-2.356-.244-3.203-.687-1.722-.899-3.432-1.818-5.13-2.756v-90.579c.002-16.569 13.433-30 30.002-30z" fill="#6a61b4"/><path d="m87.5 384.5v10c0 5.523-4.477 10-10 10h-23.06c-7.643-9.445-14.598-19.47-20.788-29.999.033 0 .065-.001.098-.001h43.75c5.523 0 10 4.477 10 10zm53.5 83.333h-9.207c6.232 3.253 12.621 6.246 19.154 8.964-.519-5.036-4.774-8.964-9.947-8.964zm43-26.666v-10c0-5.523-4.477-10-10-10h-15c-5.523 0-10 4.477-10 10v10c0 5.523 4.477 10 10 10h15c5.523 0 10-4.478 10-10zm3 26.666h-15c-5.523 0-10 4.477-10 10v3.25c11.172 4.022 22.72 7.255 34.578 9.632.274-.913.422-1.88.422-2.882v-10c0-5.522-4.477-10-10-10zm-52-26.666v-10c0-5.523-4.477-10-10-10h-15c-5.523 0-10 4.477-10 10v10c0 5.523 4.477 10 10 10h15c5.523 0 10-4.478 10-10zm71.5-36.667h15c5.523 0 10-4.477 10-10v-10c0-5.523-4.477-10-10-10h-15c-5.523 0-10 4.477-10 10v10c0 5.523 4.477 10 10 10zm-47.5 0h15c5.523 0 10-4.477 10-10v-10c0-5.523-4.477-10-10-10h-15c-5.523 0-10 4.477-10 10v10c0 5.523 4.477 10 10 10zm-81.5 16.667h-8.278c5.799 5.972 11.9 11.649 18.278 17.007v-7.007c0-5.523-4.477-10-10-10zm32.5-16.667h15c5.523 0 10-4.477 10-10v-10c0-5.523-4.477-10-10-10h-15c-5.523 0-10 4.477-10 10v10c0 5.523 4.477 10 10 10zm159 16.667h-15c-5.523 0-10 4.477-10 10v10c0 5.523 4.477 10 10 10h15c5.523 0 10-4.477 10-10v-10c0-5.523-4.477-10-10-10zm110 0h-15c-5.523 0-10 4.477-10 10v10c0 5.523 4.477 10 10 10h15c5.523 0 10-4.477 10-10v-10c0-5.523-4.477-10-10-10zm-147.5 20v-10c0-5.523-4.477-10-10-10h-15c-5.523 0-10 4.477-10 10v10c0 5.523 4.477 10 10 10h15c5.523 0 10-4.478 10-10zm100-20h-15c-5.523 0-10 4.477-10 10v10c0 5.523 4.477 10 10 10h15c5.523 0 10-4.477 10-10v-10c0-5.523-4.477-10-10-10zm47.5-46.667h-15c-5.523 0-10 4.477-10 10v10c0 5.523 4.477 10 10 10h15c5.523 0 10-4.477 10-10v-10c0-5.523-4.477-10-10-10zm-47.5 0h-15c-5.523 0-10 4.477-10 10v10c0 5.523 4.477 10 10 10h15c5.523 0 10-4.477 10-10v-10c0-5.523-4.477-10-10-10zm-62.5 93.333h-50c-5.523 0-10 4.477-10 10v10c0 1.928.546 3.728 1.491 5.255 11.275 1.589 22.796 2.412 34.509 2.412 10.955 0 21.742-.719 32.317-2.113 1.063-1.589 1.683-3.499 1.683-5.554v-10c0-5.522-4.477-10-10-10zm0-93.333h-15c-5.523 0-10 4.477-10 10v10c0 5.523 4.477 10 10 10h15c5.523 0 10-4.477 10-10v-10c0-5.523-4.477-10-10-10zm62.5 93.333h-15c-5.523 0-10 4.477-10 10v9.883c11.981-3.097 23.606-7.078 34.802-11.869-.921-4.571-4.959-8.014-9.802-8.014z" fill="#958fca"/><path d="m89 344.5c0 5.523-4.477 10-10 10h-30c-5.523 0-10-4.477-10-10s4.477-10 10-10h30c5.523 0 10 4.477 10 10zm240-10h-30c-5.523 0-10 4.477-10 10s4.477 10 10 10h30c5.523 0 10-4.477 10-10s-4.477-10-10-10z" fill="#51489a"/><path d="m426 204.5h-222c-41.421 0-75-33.579-75-75 0-41.421 33.579-75 75-75h222c41.421 0 75 33.579 75 75 0 41.421-33.579 75-75 75z" fill="#76b6fa"/><path d="m501 129.5c0 41.421-33.579 75-75 75h-78.327l-28.487 43.595c-1.973 3.02-6.398 3.02-8.371 0l-28.488-43.595h-38.327c-41.421 0-75-33.579-75-75 0-41.421 33.579-75 75-75h182c41.421 0 75 33.579 75 75z" fill="#a7d0fc"/><path d="m279 94.5c0-5.523 4.477-10 10-10h120c5.523 0 10 4.477 10 10s-4.477 10-10 10h-120c-5.523 0-10-4.477-10-10zm170 30h-160c-5.523 0-10 4.477-10 10 0 5.523 4.477 10 10 10h160c5.523 0 10-4.477 10-10 0-5.523-4.477-10-10-10z" fill="#3493f8"/><path d="m379 164.5h50c5.523 0 10 4.477 10 10 0 5.523-4.477 10-10 10h-50c-5.523 0-10-4.477-10-10 0-5.523 4.477-10 10-10z" fill="#54a770"/><path d="m259 129.5c0 30.376-24.624 55-55 55s-55-24.624-55-55 24.624-55 55-55 55 24.624 55 55z" fill="#d1462a"/><path d="m259 129.5c0 30.376-24.624 55-55 55-4.294 0-8.472-.492-12.483-1.423-13.895-13.613-22.517-32.588-22.517-53.577s8.622-39.964 22.517-53.577c4.01-.931 8.189-1.423 12.483-1.423 30.376 0 55 24.624 55 55z" fill="#ea552d"/><path d="m289 164.5h50c5.523 0 10 4.477 10 10 0 5.523-4.477 10-10 10h-50c-5.523 0-10-4.477-10-10 0-5.523 4.477-10 10-10z" fill="#ea552d"/><path d="m231.779 146.167c3.068 3.068 3.068 8.043 0 11.112-3.068 3.068-8.043 3.068-11.112 0l-16.667-16.667-16.667 16.668c-3.068 3.068-8.043 3.068-11.112 0-3.068-3.069-3.068-8.043 0-11.112l16.668-16.667-16.668-16.667c-3.068-3.068-3.068-8.043 0-11.112 3.068-3.068 8.043-3.068 11.112 0l16.667 16.666 16.667-16.667c3.068-3.068 8.043-3.068 11.112 0 3.068 3.068 3.068 8.043 0 11.112l-16.667 16.667z" fill="#fff5f5"/></g></svg>