<svg id="Capa_1" enable-background="new 0 0 501 501" height="512" viewBox="0 0 501 501" width="512" xmlns="http://www.w3.org/2000/svg"><g><path d="m490 250.5c0 135.31-109.69 245-245 245s-245-109.69-245-245 109.69-245 245-245 245 109.69 245 245z" fill="#453d83"/><path d="m399 124.5v260c0 11.046-8.954 20-20 20h-320c-11.046 0-20-8.954-20-20v-300c0-11.046 8.954-20 20-20h100c11.046 0 20 8.954 20 20v20h200c11.046 0 20 8.954 20 20z" fill="#c3a01a"/><path d="m449 154.5v230c0 11.046-8.954 20-20 20h-360c11.046 0 20-8.954 20-20v-230c0-11.046 8.954-20 20-20h320c11.046 0 20 8.954 20 20z" fill="#eac23f"/><path d="m429 404.5h-330c11.046 0 20-8.954 20-20v-230c0-11.046 8.954-20 20-20h290c11.046 0 20 8.954 20 20v230c0 11.046-8.954 20-20 20z" fill="#e9cc5a"/><path d="m77.065 389.928v26.143c0 9.626-7.803 17.429-17.429 17.429l-57.934-27.795c-2.27-1.089-2.27-4.321 0-5.41l57.934-27.795c9.626 0 17.429 7.803 17.429 17.428z" fill="#f1de96"/><path d="m77.065 389.928-17.429 19.072-57.934-3.295c-2.27-1.089-2.27-4.321 0-5.41l57.934-27.795c9.626 0 17.429 7.803 17.429 17.428z" fill="#f9f1d2"/><path d="m304.247 372.5v61h-244.611v-61z" fill="#f76937"/><path d="m76.065 391.5c0-4.142 3.358-7.5 7.5-7.5h196.753c4.142 0 7.5 3.358 7.5 7.5s-3.358 7.5-7.5 7.5h-196.753c-4.143 0-7.5-3.358-7.5-7.5zm-16.429 17.5v24.5h244.61v-24.5z" fill="#d1462a"/><path d="m1.702 400.295 24.362-11.688v28.787l-24.362-11.689c-2.269-1.089-2.269-4.321 0-5.41z" fill="#453d83"/><path d="m300.947 394.084c5.858 5.858 5.858 15.355 0 21.213l-35.153 35.153c-5.858 5.858-15.355 5.858-21.213 0l-16.365-16.364c-5.858-5.858-5.858-15.355 0-21.213l35.153-35.153c5.858-5.858 15.355-5.858 21.213 0zm106.47-106.47c5.858 5.858 15.355 5.858 21.213 0l35.153-35.153c5.858-5.858 5.858-15.355 0-21.213l-16.365-16.364c-5.858-5.858-15.355-5.858-21.213 0l-35.153 35.153c-5.858 5.858-5.858 15.355 0 21.213zm-141.623-72.731c-5.858-5.858-15.355-5.858-21.213 0l-16.365 16.364c-5.858 5.858-5.858 15.355 0 21.213l35.153 35.153c5.858 5.858 15.355 5.858 21.213 0l16.365-16.364c5.858-5.858 5.858-15.355 0-21.213zm4.92 129.355v-23.143c0-8.284-6.716-15-15-15h-49.714c-8.284 0-15 6.716-15 15v23.143c0 8.285 6.716 15 15 15h49.714c8.285 0 15-6.716 15-15zm86.857 63.714h-23.143c-8.284 0-15 6.716-15 15v49.714c0 8.284 6.716 15 15 15h23.143c8.284 0 15-6.716 15-15v-49.714c0-8.284-6.715-15-15-15zm128.429-101.857h-49.714c-8.284 0-15 6.716-15 15v23.143c0 8.285 6.716 15 15 15h49.714c8.284 0 15-6.715 15-15v-23.143c0-8.284-6.716-15-15-15zm-128.429-128.429h-23.143c-8.284 0-15 6.716-15 15v49.714c0 8.284 6.716 15 15 15h23.143c8.284 0 15-6.716 15-15v-49.714c0-8.284-6.715-15-15-15zm71.059 200.053c-5.858-5.858-15.355-5.858-21.213 0l-16.365 16.365c-5.858 5.858-5.858 15.355 0 21.213l35.153 35.153c5.858 5.858 15.355 5.858 21.213 0l16.365-16.364c5.858-5.858 5.858-15.355 0-21.213z" fill="#3493f8"/><path d="m476 332.667c0 71.797-58.203 130-130 130s-130-58.203-130-130 58.203-130 130-130 130 58.203 130 130z" fill="#76b6fa"/><path d="m446 332.667c0 55.228-44.772 100-100 100s-100-44.772-100-100 44.772-100 100-100 100 44.771 100 100z" fill="#1380e2"/><path d="m266.728 303.778h-.455c-8.133 0-13.379-8.568-9.736-15.839 16.526-32.99 50.762-55.57 90.242-55.269 53.088.404 97.048 42.898 99.142 95.947.471 11.919-1.146 23.398-4.514 34.101-1.441 4.578-5.638 7.727-10.437 7.727h-.434c-7.431 0-12.593-7.239-10.355-14.325 2.524-7.992 3.793-16.541 3.574-25.417-1.036-42.033-35.969-75.951-78.014-75.813-30.249.099-56.431 17.465-69.206 42.758-1.883 3.723-5.635 6.13-9.807 6.13z" fill="#3493f8"/><path d="m423.778 332.667c0 42.955-34.822 77.778-77.778 77.778s-77.778-34.822-77.778-77.778 34.822-77.778 77.778-77.778 77.778 34.822 77.778 77.778z" fill="#eac23f"/><path d="m400.761 326.777-21.463-35.6c-2.852-4.731-8.999-6.253-13.728-3.401s-6.252 8.998-3.401 13.727l18.412 30.539-18.501 31.939c-2.768 4.779-1.138 10.897 3.641 13.666 1.578.914 3.302 1.349 5.003 1.348 3.451 0 6.809-1.788 8.663-4.989l21.463-37.054c1.827-3.154 1.793-7.053-.089-10.175zm-89.343 5.265 18.412-30.539c2.851-4.729 1.328-10.875-3.401-13.727-4.73-2.853-10.876-1.329-13.728 3.401l-21.463 35.6c-1.882 3.122-1.916 7.021-.089 10.175l21.463 37.054c1.854 3.201 5.212 4.99 8.663 4.989 1.7 0 3.425-.435 5.003-1.348 4.778-2.769 6.408-8.887 3.641-13.666z" fill="#fff5f5"/></g></svg>