<svg id="Capa_1" enable-background="new 0 0 501 501" height="512" viewBox="0 0 501 501" width="512" xmlns="http://www.w3.org/2000/svg"><g><path d="m495.496 257.397c-.52 93.159-53.034 174.004-129.996 214.991-21.109-43.262-65.035-70.705-113.173-70.705h-198.827c-30.162-40.719-48-91.118-48-145.683 0-135.309 109.69-245 244.999-245 135.521 0 245.754 110.878 244.997 246.397z" fill="#76b6fa"/><path d="m318 90v58.099c0 20.678-16.822 37.5-37.5 37.5h-43.5v83.451c0 4.143-3.357 7.5-7.5 7.5s-7.5-3.357-7.5-7.5v-83.451h-61.719c-16.052 0-29.781-10.139-35.12-24.349h-100.667c2.136-5.09 4.44-10.092 6.903-15h91.384v-54.463c0-4.143 3.357-7.5 7.5-7.5s7.5 3.357 7.5 7.5v56.312c0 12.406 10.094 22.5 22.5 22.5h120.219c12.406 0 22.5-10.094 22.5-22.5v-58.099c0-4.143 3.357-7.5 7.5-7.5s7.5 3.357 7.5 7.5zm88.642-28.5h-240c-4.143 0-7.5 3.357-7.5 7.5s3.357 7.5 7.5 7.5h240c12.406 0 22.5 10.094 22.5 22.5v170c0 4.143 3.357 7.5 7.5 7.5s7.5-3.357 7.5-7.5v-170c0-20.678-16.823-37.5-37.5-37.5z" fill="#1380e2"/><path d="m51.5 153.75c0 11.046-8.954 20-20 20s-20-8.954-20-20 8.954-20 20-20 20 8.954 20 20z" fill="#a7d0fc"/><path d="m51.5 153.75c0 2.254-.373 4.422-1.061 6.444-2.022.688-4.189 1.061-6.444 1.061-11.046 0-20-8.954-20-20 0-2.254.373-4.422 1.061-6.444 2.022-.688 4.189-1.061 6.444-1.061 11.046 0 20 8.954 20 20z" fill="#c8e2fd"/><path d="m164.5 230v181.606c0 36.254-42.258 56.295-70.179 33.169-15.279-12.655-28.997-27.13-40.821-43.092v-72.061c-5.176-1.332-9-6.031-9-11.622v-56c0-5.592 3.824-10.29 9-11.622v-20.378c0-16.569 13.431-30 30-30h51c16.569 0 30 13.431 30 30zm198 80h-6c-6.627 0-12 5.373-12 12v26c0 6.627 5.373 12 12 12h6c6.627 0 12-5.373 12-12v-26c0-6.627-5.373-12-12-12zm0-60h-6c-6.627 0-12 5.373-12 12v26c0 6.627 5.373 12 12 12h6c6.627 0 12-5.373 12-12v-26c0-6.627-5.373-12-12-12z" fill="#453d83"/><path d="m365.5 230v242.388c-12.708 6.768-26.083 12.449-40 16.92-3.447 1.107-9.919 1.686-18.591 1.755-117.728.948-213.409-94.868-213.409-212.6v-48.463c0-16.569 13.431-30 30-30h212c16.569 0 30 13.431 30 30z" fill="#51489a"/><path d="m134.5 471.852c-14.622-7.875-28.352-17.191-41-27.759v-194.093c0-5.523 4.477-10 10-10h41c-5.523 0-10 4.477-10 10z" fill="#e1b91e"/><path d="m325.5 250v239.308c-23.637 7.592-48.84 11.692-75 11.692-46.495 0-89.966-12.952-127-35.444v-215.556c0-5.523 4.477-10 10-10h182c5.523 0 10 4.477 10 10z" fill="#eac23f"/><path d="m237 432.922v38.712c0 5.756-3.134 10.423-7 10.423h-1c-3.866 0-7-4.667-7-10.423v-38.712c0-5.756 3.134-10.423 7-10.423h1c3.866.001 7 4.667 7 10.423z" fill="#edd578"/><path d="m265.5 233.75c0 8.975-7.275 16.25-16.25 16.25h-79.5c-8.975 0-16.25-7.275-16.25-16.25s7.275-16.25 16.25-16.25h79.5c8.975 0 16.25 7.275 16.25 16.25z" fill="#51489a"/><path d="m189.5 225c0 4.142-3.358 7.5-7.5 7.5s-7.5-3.358-7.5-7.5 3.358-7.5 7.5-7.5 7.5 3.358 7.5 7.5zm47.5-7.5h-30c-4.142 0-7.5 3.358-7.5 7.5s3.358 7.5 7.5 7.5h30c4.142 0 7.5-3.358 7.5-7.5s-3.358-7.5-7.5-7.5z" fill="#19305c"/><path d="m370.5 60c0 22.576-12.469 42.241-30.896 52.481-2.534 1.408-4.104 4.079-4.104 6.979v10.54h-50v-10.54c0-2.896-1.564-5.568-4.095-6.974-19.309-10.727-32.078-31.799-30.819-55.729 1.608-30.574 26.498-55.286 57.082-56.692 34.425-1.583 62.832 25.859 62.832 59.935z" fill="#e1b91e"/><path d="m370.5 60c0 18.11-8.024 34.345-20.709 45.347-18.618-1.695-36.773-9.668-51.026-23.921-19.091-19.091-26.917-45.182-23.477-70.011 9.889-7.181 22.056-11.415 35.212-11.415 33.137 0 60 26.863 60 60z" fill="#e9cc5a"/><path d="m208.063 48.787c7.81 7.811 7.81 20.474 0 28.285l-28.284 28.284c-27.337 27.336-71.658 27.336-98.995 0l-28.284-28.285c-7.81-7.811-7.81-20.474 0-28.285l28.284-28.284c27.337-27.336 71.658-27.336 98.995 0zm77.437 71.213v15c0 13.807 11.193 25 25 25s25-11.193 25-25v-15z" fill="#c8e2fd"/><path d="m305 135v-15h30.5v15c0 10.348-6.287 19.228-15.25 23.027-8.963-3.799-15.25-12.679-15.25-23.027zm-96.937-86.213c7.81 7.811 7.81 20.474 0 28.285l-12.743 12.743c-3.459.452-6.988.686-10.571.686-44.596-.001-80.749-36.154-80.749-80.751 0-1.579.045-3.146.135-4.703 25.239-10.146 55.194-4.995 75.644 15.455zm278.579 274.963c0 27.614-22.386 50-50 50s-50-22.386-50-50c0-18.507 10.055-34.665 25-43.31v-101.69c0-13.807 11.193-25 25-25 13.807 0 25 11.193 25 25v101.69c14.945 8.645 25 24.803 25 43.31z" fill="#e9f3fe"/><path d="m486.642 323.75c0 27.614-22.386 50-50 50s-50-22.386-50-50c0-6.87 1.386-13.417 3.893-19.375 7.57 17.992 25.363 30.625 46.107 30.625s38.537-12.633 46.107-30.625c2.507 5.959 3.893 12.505 3.893 19.375z" fill="#c8e2fd"/><path d="m466.642 323.75c0 16.568-13.432 30-30 30-16.569 0-30-13.432-30-30 0-13.062 8.348-24.174 20-28.293v-71.707c0-5.523 4.477-10 10-10s10 4.477 10 10v71.707c11.652 4.119 20 15.231 20 28.293z" fill="#d1462a"/><path d="m466.615 325.023c-.667 15.978-13.831 28.727-29.973 28.727s-29.306-12.749-29.973-28.727c8.352 6.265 18.729 9.977 29.973 9.977s21.621-3.712 29.973-9.977z" fill="#bc3f2a"/><path d="m155.03 87.678c-13.668 13.668-35.829 13.668-49.497 0s-13.668-35.829 0-49.498 35.829-13.668 49.497 0c13.669 13.669 13.669 35.829 0 49.498z" fill="#1380e2"/><path d="m147.959 80.606c-9.763 9.763-25.592 9.763-35.355 0s-9.763-25.592 0-35.355 25.592-9.763 35.355 0 9.763 25.593 0 35.355z" fill="#453d83"/><path d="m325.5 472.148v14.408c-4.045.192-157.249.296-157.249.296-11.473-4.088-22.552-9.007-33.164-14.684 4.166-.205 186.368-.212 190.413-.02z" fill="#f1de96"/><path d="m193.59 298.991c19.8-19.801 52.018-19.802 71.82 0 1.464 1.464 3.384 2.196 5.303 2.196s3.839-.732 5.303-2.196c2.929-2.929 2.929-7.678 0-10.606-25.649-25.649-67.383-25.649-93.033 0-2.929 2.929-2.929 7.678 0 10.606s7.678 2.928 10.607 0zm90.91 80.946v52.768c0 5.523-4.477 10-10 10h-90c-5.523 0-10-4.477-10-10v-52.768c0-3.105 1.442-6.033 3.903-7.926l45-34.615c3.595-2.765 8.6-2.765 12.194 0l45 34.615c2.461 1.893 3.903 4.821 3.903 7.926zm-81.516-71.553c-2.929 2.929-2.929 7.678 0 10.606 2.929 2.929 7.678 2.929 10.606 0 8.772-8.772 23.047-8.773 31.82 0 1.464 1.464 3.384 2.196 5.303 2.196s3.839-.732 5.303-2.196c2.929-2.929 2.929-7.678 0-10.606-14.621-14.621-38.411-14.622-53.032 0zm26.516 153.949c-8.284 0-15 6.716-15 15s6.716 15 15 15 15-6.716 15-15-6.716-15-15-15z" fill="#fff5f5"/><path d="m300.444 392.278c-1.477 1.92-3.701 2.927-5.95 2.927-1.596.001-3.204-.507-4.567-1.556l-60.427-46.482-60.427 46.482c-3.284 2.527-7.993 1.912-10.518-1.371s-1.912-7.992 1.371-10.518l65-50c2.697-2.074 6.449-2.074 9.146 0l65 50c3.284 2.526 3.898 7.235 1.372 10.518z" fill="#d1462a"/><path d="m111 272.375h26c3.866 0 7-3.134 7-7v-1c0-3.866-3.134-7-7-7h-26c-3.866 0-7 3.134-7 7v1c0 3.866 3.134 7 7 7zm33 19.25v-1c0-3.866-3.134-7-7-7h-26c-3.866 0-7 3.134-7 7v1c0 3.866 3.134 7 7 7h26c3.866 0 7-3.134 7-7zm-30.333 151.08h-2.667c-3.866 0-7-3.134-7-7v-1c0-3.866 3.134-7 7-7h2.667c3.866 0 7 3.134 7 7v1c0 3.866-3.134 7-7 7zm0-25.667h-2.667c-3.866 0-7-3.134-7-7v-1c0-3.866 3.134-7 7-7h2.667c3.866 0 7 3.134 7 7v1c0 3.867-3.134 7-7 7z" fill="#f1de96"/></g></svg>