<svg id="Capa_1" enable-background="new 0 0 501 501" height="512" viewBox="0 0 501 501" width="512" xmlns="http://www.w3.org/2000/svg"><g><path d="m380.727 460c-39.467 26.311-87.002 41.474-138.105 40.989-134.77-1.279-242.622-110.213-242.622-244.989 0-134.067 107.684-242.983 241.278-244.972 135.677-2.021 247.864 107.707 248.717 243.396.358 56.958-18.721 109.448-50.995 151.225h-3.922c-30.017 0-54.351 24.334-54.351 54.351z" fill="#55a4f9"/><path d="m299 50.727v21.273c0 5.422-4.396 9.818-9.818 9.818h-4.909c-5.422 0-9.818-4.396-9.818-9.818v-21.273c0-5.422 4.396-9.818 9.818-9.818h4.909c5.422 0 9.818 4.396 9.818 9.818zm-196.333-50.727h-36.303c-16.568 0-30 13.431-30 30v11.218c-4.235 1.09-7.364 4.934-7.364 9.509v45.818c0 4.575 3.129 8.419 7.364 9.509v281.218c0 16.569 13.432 30 30 30h36.303c16.568 0 30-13.431 30-30v-357.272c0-16.569-13.432-30-30-30zm186.515 90h-4.909c-5.422 0-9.818 4.396-9.818 9.818v21.273c0 5.422 4.396 9.818 9.818 9.818h4.909c5.422 0 9.818-4.396 9.818-9.818v-21.273c0-5.422-4.396-9.818-9.818-9.818z" fill="#453d83"/><path d="m291.636 30v357.273c0 16.569-13.431 30-30 30h-162.545c-16.568 0-30-13.431-30-30v-357.273c0-16.569 13.432-30 30-30h162.545c16.569 0 30 13.431 30 30z" fill="#5f55af"/><path d="m119 384.545h-39.909c-5.523 0-10-4.477-10-10v-331.818c0-5.523 4.477-10 10-10h39.909c5.523 0 10 4.477 10 10v331.818c0 5.523-4.477 10-10 10z" fill="#c8e2fd"/><path d="m248.909 384.545h-145.273c-5.523 0-10-4.477-10-10v-331.818c0-5.523 4.477-10 10-10h145.273c5.523 0 10 4.477 10 10v331.818c0 5.523-4.477 10-10 10z" fill="#e9f3fe"/><path d="m209.818 27.614c0 7.343-5.953 13.296-13.295 13.296h-65.045c-7.343 0-13.295-5.953-13.295-13.295 0-7.343 5.953-13.295 13.295-13.295h65.045c7.343-.002 13.295 5.951 13.295 13.294z" fill="#5f55af"/><path d="m147.636 20.455c0 3.389-2.747 6.136-6.136 6.136s-6.136-2.747-6.136-6.136 2.747-6.136 6.136-6.136 6.136 2.746 6.136 6.136zm38.864-6.137h-24.545c-3.389 0-6.136 2.747-6.136 6.136s2.747 6.136 6.136 6.136h24.545c3.389 0 6.136-2.747 6.136-6.136s-2.747-6.136-6.136-6.136z" fill="#19305c"/><path d="m160.818 356.922c-5.523 0-10-4.477-10-10s4.477-10 10-10 10 4.477 10 10-4.477 10-10 10zm-39.999 0c-5.523 0-10-4.477-10-10s4.477-10 10-10 10 4.477 10 10-4.477 10-10 10zm89.999-10c0-5.523-4.477-10-10-10s-10 4.477-10 10 4.477 10 10 10 10-4.477 10-10zm-118-271.511h26c3.866 0 7-3.134 7-7v-1c0-3.866-3.134-7-7-7h-26c-3.866 0-7 3.134-7 7v1c0 3.866 3.134 7 7 7zm-7 19.25c0 3.866 3.134 7 7 7h26c3.866 0 7-3.134 7-7v-1c0-3.866-3.134-7-7-7h-26c-3.866 0-7 3.134-7 7zm130 25.75h-120c-5.523 0-10 4.477-10 10v150c0 5.523 4.477 10 10 10h120c5.523 0 10-4.477 10-10v-150c0-5.523-4.477-10-10-10z" fill="#a7d0fc"/><path d="m205.508 244.494c2.929 2.929 2.929 7.678 0 10.607-2.929 2.929-7.678 2.929-10.607 0l-39.083-39.083-39.083 39.083c-2.929 2.929-7.678 2.929-10.607 0-2.929-2.929-2.929-7.678 0-10.607l39.083-39.083-39.083-39.083c-2.929-2.929-2.929-7.678 0-10.607 2.929-2.929 7.678-2.929 10.607 0l39.083 39.083 39.083-39.083c2.929-2.929 7.678-2.929 10.607 0 2.929 2.929 2.929 7.678 0 10.607l-39.083 39.083z" fill="#86befb"/><path d="m254.667 460h-30.667c-8.284 0-15-6.716-15-15v-320c0-8.284 6.716-15 15-15h30.667c8.284 0 15 6.716 15 15v320c0 8.284-6.716 15-15 15z" fill="#eac23f"/><path d="m439 405.649c-16.32 21.125-36.013 39.511-58.273 54.351h-126.727c-8.284 0-15-6.716-15-15v-320c0-8.284 6.716-15 15-15h170c8.284 0 15 6.716 15 15z" fill="#e9cc5a"/><path d="m399 170v110c0 5.523-4.477 10-10 10h-110c-5.523 0-10-4.477-10-10v-110c0-5.523 4.477-10 10-10h110c5.523 0 10 4.477 10 10zm-105 210c-13.807 0-25 11.193-25 25 0 13.807 11.193 25 25 25s25-11.193 25-25c0-13.807-11.193-25-25-25zm70 0c-13.807 0-25 11.193-25 25 0 13.807 11.193 25 25 25s25-11.193 25-25c0-13.807-11.193-25-25-25zm-70-70c-13.807 0-25 11.193-25 25 0 13.807 11.193 25 25 25s25-11.193 25-25c0-13.807-11.193-25-25-25zm70 0c-13.807 0-25 11.193-25 25 0 13.807 11.193 25 25 25s25-11.193 25-25c0-13.807-11.193-25-25-25zm-112.625-160.781h-18.75c-3.107 0-5.625 2.518-5.625 5.625s2.518 5.625 5.625 5.625h18.75c3.107 0 5.625-2.518 5.625-5.625s-2.518-5.625-5.625-5.625zm0-19.688h-18.75c-3.107 0-5.625 2.518-5.625 5.625s2.518 5.625 5.625 5.625h18.75c3.107 0 5.625-2.518 5.625-5.625 0-3.106-2.518-5.625-5.625-5.625z" fill="#e1b91e"/><path d="m379 225c0 24.853-20.147 45-45 45s-45-20.147-45-45 20.147-45 45-45 45 20.147 45 45z" fill="#c3a01a"/><path d="m501 145c0 30.376-24.624 55-55 55s-55-24.624-55-55 24.624-55 55-55 55 24.624 55 55z" fill="#ea552d"/><path d="m493.681 172.431c-9.5 16.478-27.295 27.569-47.681 27.569-30.376 0-55-24.624-55-55 0-20.386 11.091-38.181 27.569-47.681-4.655 8.074-7.319 17.442-7.319 27.431 0 30.376 24.624 55 55 55 9.99 0 19.357-2.663 27.431-7.319z" fill="#d1462a"/><path d="m501 275c0 30.376-24.624 55-55 55s-55-24.624-55-55 24.624-55 55-55 55 24.624 55 55z" fill="#8078bf"/><path d="m493.681 302.431c-9.5 16.478-27.295 27.569-47.681 27.569-30.376 0-55-24.624-55-55 0-20.386 11.091-38.181 27.569-47.681-4.655 8.074-7.319 17.442-7.319 27.431 0 30.376 24.624 55 55 55 9.99 0 19.357-2.663 27.431-7.319z" fill="#6a61b4"/><path d="m446 156.112-16.667 16.668c-3.068 3.068-8.043 3.068-11.112 0-3.068-3.068-3.068-8.043 0-11.112l16.667-16.668-16.668-16.667c-3.068-3.068-3.068-8.043 0-11.112 3.069-3.068 8.043-3.068 11.112 0l16.668 16.667 16.667-16.668c3.068-3.068 8.043-3.068 11.112 0 3.068 3.068 3.068 8.043 0 11.112l-16.667 16.668 16.667 16.667c3.068 3.068 3.068 8.043 0 11.112s-8.043 3.068-11.112 0zm30.104 113.303-30.429-30.429c-3.068-3.068-8.043-3.068-11.112 0-3.068 3.068-3.068 8.043 0 11.112l24.902 24.902-24.902 24.902c-3.068 3.068-3.068 8.043 0 11.112s8.043 3.069 11.112 0l30.429-30.428c1.542-1.542 2.308-3.565 2.301-5.585.007-2.022-.76-4.045-2.301-5.586z" fill="#fff5f5"/><path d="m196.625 444.171h37.5c9.32 0 16.875 7.555 16.875 16.875 0 9.32-7.555 16.875-16.875 16.875h-37.5c-9.32 0-16.875-7.555-16.875-16.875 0-9.32 7.555-16.875 16.875-16.875z" fill="#5f55af"/><path d="m195.875 444.171h4.5c9.32 0 16.875 7.555 16.875 16.875 0 9.32-7.555 16.875-16.875 16.875h-4.5c-9.32 0-16.875-7.555-16.875-16.875 0-9.32 7.555-16.875 16.875-16.875z" fill="#453d83"/><path d="m135.875 398.438h37.5c9.32 0 16.875 7.555 16.875 16.875 0 9.32-7.555 16.875-16.875 16.875h-37.5c-9.32 0-16.875-7.555-16.875-16.875 0-9.32 7.555-16.875 16.875-16.875z" fill="#ff7c48"/><path d="m168.875 398.438h4.5c9.32 0 16.875 7.555 16.875 16.875 0 9.32-7.555 16.875-16.875 16.875h-4.5c-9.32 0-16.875-7.555-16.875-16.875 0-9.32 7.555-16.875 16.875-16.875z" fill="#d1462a"/></g></svg>