<svg id="Capa_1" enable-background="new 0 0 501 501" height="512" viewBox="0 0 501 501" width="512" xmlns="http://www.w3.org/2000/svg"><g><path d="m495.5 256c0 115.815-80.361 212.861-188.364 238.421-24.004-57.517-80.223-94.973-142.548-94.973h-112.724c-29.41-40.655-46.647-90.695-46.36-144.774.725-137.003 112.55-246.12 249.532-243.633 133.217 2.419 240.464 111.165 240.464 244.959z" fill="#55a4f9"/><path d="m154.5 172.727v232.966c0 36.083-42.955 55.303-69.548 30.915-12.239-11.224-23.333-23.676-33.089-37.161v-150.666c-4.235-1.09-7.364-4.934-7.364-9.509v-45.818c0-4.575 3.129-8.419 7.364-9.509v-11.218c0-16.569 13.431-30 30-30h42.637c16.569 0 30 13.432 30 30z" fill="#453d83"/><path d="m307.136 172.727v321.693c-10.657 2.522-21.583 4.348-32.728 5.428-.901.087-3.515-.152-7.503-.706-104.617-14.519-182.314-104.314-182.314-209.934v-116.48c0-16.569 13.431-30 30-30h162.545c16.569-.001 30 13.431 30 29.999z" fill="#5f55af"/><path d="m274.409 185.455v314.393c-7.867.762-15.842 1.152-23.909 1.152-64 0-122.268-24.54-165.909-64.723v-250.822c0-5.523 4.477-10 10-10h169.818c5.523 0 10 4.477 10 10z" fill="#c8e2fd"/><path d="m274.409 185.455v314.393c-7.867.762-15.842 1.152-23.909 1.152-52.651 0-101.424-16.609-141.364-44.873v-270.672c0-5.523 4.477-10 10-10h145.273c5.523 0 10 4.477 10 10z" fill="#e9f3fe"/><path d="m212.023 183.636h-65.045c-7.343 0-13.295-5.953-13.295-13.295 0-7.343 5.953-13.295 13.295-13.295h65.045c7.343 0 13.295 5.953 13.295 13.295 0 7.343-5.952 13.295-13.295 13.295z" fill="#5f55af"/><path d="m163.136 163.182c0 3.389-2.747 6.136-6.136 6.136s-6.136-2.747-6.136-6.136 2.747-6.136 6.136-6.136 6.136 2.747 6.136 6.136zm38.864-6.137h-24.545c-3.389 0-6.136 2.747-6.136 6.136s2.747 6.136 6.136 6.136h24.545c3.389 0 6.136-2.747 6.136-6.136 0-3.388-2.747-6.136-6.136-6.136z" fill="#19305c"/><path d="m179.5 479.177c-5.523 0-10-4.477-10-10s4.477-10 10-10 10 4.477 10 10-4.477 10-10 10zm-40-20c-5.492 0-9.949 4.427-9.999 9.907 5.152 2.931 10.42 5.682 15.796 8.242 2.544-1.813 4.203-4.787 4.203-8.149 0-5.523-4.477-10-10-10zm90 10c0-5.523-4.477-10-10-10s-10 4.477-10 10 4.477 10 10 10 10-4.477 10-10zm-118-254.177h26c3.866 0 7-3.134 7-7v-1c0-3.866-3.134-7-7-7h-26c-3.866 0-7 3.134-7 7v1c0 3.866 3.134 7 7 7zm-7 19.25c0 3.866 3.134 7 7 7h26c3.866 0 7-3.134 7-7v-1c0-3.866-3.134-7-7-7h-26c-3.866 0-7 3.134-7 7zm130 25.75h-120c-5.523 0-10 4.477-10 10v150c0 5.523 4.477 10 10 10h120c5.523 0 10-4.477 10-10v-150c0-5.523-4.477-10-10-10z" fill="#a7d0fc"/><path d="m224.189 384.083c2.929 2.929 2.929 7.678 0 10.607-2.929 2.929-7.678 2.929-10.607 0l-39.082-39.084-39.083 39.083c-2.929 2.929-7.678 2.929-10.607 0-2.929-2.929-2.929-7.678 0-10.607l39.083-39.082-39.083-39.083c-2.929-2.929-2.929-7.678 0-10.607 2.929-2.929 7.678-2.929 10.607 0l39.083 39.083 39.083-39.083c2.929-2.929 7.678-2.929 10.607 0 2.929 2.929 2.929 7.678 0 10.607l-39.083 39.083z" fill="#86befb"/><path d="m410.681 126.042c-1.352 2.524-3.942 3.96-6.618 3.96-1.195 0-2.408-.286-3.535-.89l-81.028-43.407-81.028 43.406c-3.651 1.955-8.197.582-10.153-3.07s-.582-8.197 3.07-10.153l80.611-43.182v-56.206c0-4.142 3.358-7.5 7.5-7.5s7.5 3.358 7.5 7.5v56.206l80.611 43.183c3.652 1.956 5.026 6.501 3.07 10.153z" fill="#c8e2fd"/><path d="m419.5 460h-200c-8.284 0-15-6.716-15-15v-320c0-8.284 6.716-15 15-15h200c8.284 0 15 6.716 15 15v320c0 8.284-6.716 15-15 15z" fill="#eac23f"/><path d="m419.5 460h-170c-8.284 0-15-6.716-15-15v-320c0-8.284 6.716-15 15-15h170c8.284 0 15 6.716 15 15v320c0 8.284-6.716 15-15 15z" fill="#e9cc5a"/><path d="m224.5 134.375c0-3.107 2.518-5.625 5.625-5.625h18.75c3.107 0 5.625 2.518 5.625 5.625s-2.518 5.625-5.625 5.625h-18.75c-3.107 0-5.625-2.518-5.625-5.625zm24.375 14.063h-18.75c-3.107 0-5.625 2.518-5.625 5.625s2.518 5.625 5.625 5.625h18.75c3.107 0 5.625-2.518 5.625-5.625s-2.518-5.625-5.625-5.625z" fill="#c3a01a"/><path d="m374.5 405c0 8.25-6.75 15-15 15h-80c-8.25 0-15-6.75-15-15s6.75-15 15-15h80c8.25 0 15 6.75 15 15z" fill="#ea552d"/><path d="m309.978 420h-30.478c-8.25 0-15-6.75-15-15s6.75-15 15-15h30.478c-8.25 0-15 6.75-15 15s6.75 15 15 15z" fill="#d1462a"/><path d="m389.5 210c0 38.66-31.34 70-70 70s-70-31.34-70-70 31.34-70 70-70 70 31.34 70 70z" fill="#ea552d"/><path d="m338.75 20c0 11.046-8.954 20-20 20s-20-8.954-20-20 8.954-20 20-20 20 8.954 20 20z" fill="#f76937"/><path d="m338.75 20c0 2.529-.47 4.947-1.326 7.174-2.227.856-4.646 1.326-7.174 1.326-11.046 0-20-8.954-20-20 0-2.529.469-4.947 1.326-7.174 2.227-.857 4.645-1.326 7.174-1.326 11.046 0 20 8.954 20 20z" fill="#ff7c48"/><path d="m361.537 254.081v11.896c-11.705 8.804-26.262 14.023-42.037 14.023s-30.332-5.219-42.037-14.023v-11.896c0-15.478 12.547-28.025 28.025-28.025h28.025c15.477 0 28.024 12.547 28.024 28.025z" fill="#f1de96"/><path d="m294.978 187.522c0-13.543 10.979-24.522 24.522-24.522s24.522 10.979 24.522 24.522-10.979 24.522-24.522 24.522c-13.543-.001-24.522-10.979-24.522-24.522zm0 66.559c0 8.269 4.794 15.776 12.276 19.296 6.514 3.065 13.578 5.154 21.003 6.081 12.39-1.546 23.775-6.331 33.279-13.48v-11.896c0-15.478-12.547-28.025-28.025-28.025h-10.509c-15.477-.001-28.024 12.546-28.024 28.024z" fill="#f5e8b4"/><g fill="#fff5f5"><path d="m344.022 187.522c0 10.457-6.546 19.386-15.764 22.911-9.218-3.526-15.764-12.454-15.764-22.911s6.546-19.386 15.764-22.911c9.218 3.525 15.764 12.453 15.764 22.911z"/><path d="m234.5 314c0-6.6 5.4-12 12-12h146c6.6 0 12 5.4 12 12s-5.4 12-12 12h-146c-6.6 0-12-5.4-12-12zm158 32h-146c-6.6 0-12 5.4-12 12 0 6.6 5.4 12 12 12h146c6.6 0 12-5.4 12-12 0-6.6-5.4-12-12-12z"/></g></g></svg>