<svg id="Capa_1" enable-background="new 0 0 501 501" height="512" viewBox="0 0 501 501" width="512" xmlns="http://www.w3.org/2000/svg"><g><path d="m5.5 256c0-135.133 109.403-244.713 244.469-244.999 135.486-.287 244.902 108.357 245.528 243.841.342 73.879-32.019 140.209-83.441 185.348-2.998 2.632-7.486 2.557-10.467-.094-43.275-38.485-100.281-61.863-162.749-61.863-55.139 0-106.023 18.215-146.965 48.956-5.474 4.11-13.169 3.621-17.916-1.311-42.393-44.045-68.459-103.918-68.459-169.878z" fill="#453d83"/><path d="m394.5 62v26c0 6.627-5.373 12-12 12h-6c-6.627 0-12-5.373-12-12v-26c0-6.627 5.373-12 12-12h6c6.627 0 12 5.373 12 12zm-12 48h-6c-6.627 0-12 5.373-12 12v26c0 6.627 5.373 12 12 12h6c6.627 0 12-5.373 12-12v-26c0-6.627-5.373-12-12-12zm-249-110h-30c-16.569 0-30 13.431-30 30v20.378c-5.176 1.332-9 6.03-9 11.622v56c0 5.592 3.824 10.29 9 11.622v295.777c12.225 12.77 25.817 24.219 40.543 34.112 20.968 14.087 49.165-.778 49.201-26.039.169-119.086.256-403.472.256-403.472 0-16.569-13.431-30-30-30z" fill="#3493f8"/><path d="m385.5 30v347.699c0 62.655-47.174 115.543-109.496 121.989-8.383.868-16.892 1.312-25.504 1.312-43.24 0-83.863-11.202-119.127-30.861-11.014-6.14-17.873-17.732-17.873-30.342v-409.797c0-16.569 13.431-30 30-30h212c16.569 0 30 13.431 30 30z" fill="#76b6fa"/><path d="m174.5 50v410c0 5.523-4.477 10-10 10h-33.376c-6.037-3.375-11.916-6.998-17.624-10.854v-409.146c0-5.523 4.477-10 10-10h41c5.523 0 10 4.477 10 10z" fill="#c8e2fd"/><path d="m335.5 470h-182c-5.523 0-10-4.477-10-10v-410c0-5.523 4.477-10 10-10h182c5.523 0 10 4.477 10 10v410c0 5.523-4.477 10-10 10z" fill="#e9f3fe"/><path d="m269.25 50h-79.5c-8.975 0-16.25-7.275-16.25-16.25 0-8.975 7.275-16.25 16.25-16.25h79.5c8.975 0 16.25 7.275 16.25 16.25 0 8.975-7.275 16.25-16.25 16.25z" fill="#76b6fa"/><path d="m264.5 25c0 4.142-3.358 7.5-7.5 7.5h-30c-4.142 0-7.5-3.358-7.5-7.5s3.358-7.5 7.5-7.5h30c4.142 0 7.5 3.358 7.5 7.5zm-62.5-7.5c-4.142 0-7.5 3.358-7.5 7.5s3.358 7.5 7.5 7.5 7.5-3.358 7.5-7.5-3.358-7.5-7.5-7.5z" fill="#1380e2"/><path d="m204.5 430c0 5.523-4.477 10-10 10s-10-4.477-10-10 4.477-10 10-10 10 4.477 10 10zm-50-10c-5.523 0-10 4.477-10 10s4.477 10 10 10 10-4.477 10-10-4.477-10-10-10zm80 0c-5.523 0-10 4.477-10 10s4.477 10 10 10 10-4.477 10-10-4.477-10-10-10zm-93-346.25h26c3.866 0 7-3.134 7-7v-1c0-3.866-3.134-7-7-7h-26c-3.866 0-7 3.134-7 7v1c0 3.866 3.134 7 7 7zm0 26.25h26c3.866 0 7-3.134 7-7v-1c0-3.866-3.134-7-7-7h-26c-3.866 0-7 3.134-7 7v1c0 3.866 3.134 7 7 7zm176-41.25c-3.866 0-7 3.134-7 7v1c0 3.866 3.134 7 7 7s7-3.134 7-7v-1c0-3.866-3.134-7-7-7zm0 26.25c-3.866 0-7 3.134-7 7v1c0 3.866 3.134 7 7 7s7-3.134 7-7v-1c0-3.866-3.134-7-7-7zm-13 35h-150c-8.284 0-15 6.716-15 15v80c0 8.284 6.716 15 15 15h150c8.284 0 15-6.716 15-15v-80c0-8.284-6.716-15-15-15zm-5 140h-150c-8.284 0-15 6.716-15 15v100c0 8.284 6.716 15 15 15h150c8.284 0 15-6.716 15-15v-100c0-8.284-6.716-15-15-15z" fill="#86befb"/><path d="m304.5 360c0 5.523-4.477 10-10 10h-130c-5.523 0-10-4.477-10-10 0-5.523 4.477-10 10-10h130c5.523 0 10 4.477 10 10zm-10-80h-130c-5.523 0-10 4.477-10 10v40c0 5.523 4.477 10 10 10h130c5.523 0 10-4.477 10-10v-40c0-5.523-4.477-10-10-10zm-130-60h70c5.523 0 10-4.477 10-10v-40c0-5.523-4.477-10-10-10h-70c-5.523 0-10 4.477-10 10v40c0 5.523 4.477 10 10 10zm130-90h-130c-5.523 0-10 4.477-10 10 0 5.523 4.477 10 10 10h130c5.523 0 10-4.477 10-10 0-5.523-4.477-10-10-10zm0 30h-30c-5.523 0-10 4.477-10 10v40c0 5.523 4.477 10 10 10h30c5.523 0 10-4.477 10-10v-40c0-5.523-4.477-10-10-10z" fill="#a7d0fc"/><path d="m262 180c0 4.143-3.357 7.5-7.5 7.5h-81.893l19.624 19.623c2.929 2.93 2.929 7.678 0 10.607-1.465 1.464-3.385 2.196-5.304 2.196s-3.839-.732-5.304-2.196l-32.427-32.427c-2.929-2.93-2.929-7.678 0-10.607l32.427-32.427c2.93-2.928 7.678-2.928 10.607 0 2.929 2.93 2.929 7.678 0 10.607l-19.623 19.624h81.893c4.143 0 7.5 3.357 7.5 7.5zm197.804-5.304-32.427-32.427c-2.93-2.928-7.678-2.928-10.607 0-2.929 2.93-2.929 7.678 0 10.607l19.624 19.623h-81.894c-4.143 0-7.5 3.357-7.5 7.5s3.357 7.5 7.5 7.5h81.893l-19.624 19.623c-2.929 2.93-2.929 7.678 0 10.607 1.465 1.464 3.385 2.196 5.304 2.196s3.839-.732 5.304-2.196l32.427-32.427c2.928-2.928 2.928-7.676 0-10.606z" fill="#ea552d"/><path d="m444.511 275.278v65.014c0 22.893-6.222 45.355-18 64.986-6.523 10.872-11.342 22.613-14.344 34.814-37.499 32.957-85.15 54.639-137.656 59.746v-35.466c0-17.067-3.458-33.867-10.069-49.418-.124-.167-1.874-1.927-4.473-4.513-16.733-16.654-28.913-37.329-35.361-60.039-2.854-10.05-6.841-19.743-11.885-28.892l-26.967-48.912c-2.66-4.825-.918-10.908 3.905-13.572 14.513-8.019 32.776-2.744 40.78 11.774l34.177 61.99c2.625 4.761 8.429 7.029 13.437 4.912 3.99-1.687 6.457-5.542 6.457-9.708v-162.236c0-10.845 8.433-20.081 19.271-20.467 11.378-.405 20.729 8.699 20.729 19.987v100.417s.759 3.328 2.107.637c3.284-6.554 10.063-11.054 17.893-11.054 8.072 0 15.028 4.782 18.187 11.668.715 1.558 2.91 1.558 3.625 0 3.16-6.886 10.115-11.668 18.187-11.668s15.028 4.782 18.187 11.668c.715 1.558 2.91 1.558 3.625 0 3.16-6.886 10.115-11.668 18.187-11.668 11.047 0 20.001 8.954 20.001 20z" fill="#ffbeaa"/><path d="m285.639 409.753c4.963 13.71 7.543 28.252 7.543 42.994v44.548c-6.147 1.08-12.374 1.931-18.67 2.543v-35.466c0-14.742-2.58-29.284-7.543-42.994-1.479-4.086-3.841-7.794-6.921-10.86-.026-.026-.052-.052-.078-.077-16.733-16.654-28.913-37.329-35.361-60.039-2.854-10.05-6.841-19.743-11.885-28.892l-26.967-48.912c-2.613-4.739-1.036-10.789 3.678-13.446 4.375-2.466 9.099-3.715 13.785-3.859-.164 1.907.215 3.881 1.208 5.68l26.967 48.912c5.044 9.149 9.031 18.842 11.885 28.892 6.448 22.71 18.629 43.386 35.361 60.039.026.026.052.052.078.077 3.078 3.066 5.441 6.774 6.92 10.86zm18.143-264.462c-10.838.385-19.271 9.622-19.271 20.466v162.532c3.458 4.247 9.765 5.195 14.361 1.833 2.709-1.981 4.31-5.136 4.31-8.492v-167.498c0-3.142.708-6.148 1.977-8.844-.456-.014-.915-.013-1.377.003zm102.542 121.655c-.42.916-1.352 1.293-2.194 1.132v54.74c0 5.156 4.179 9.335 9.335 9.335s9.335-4.179 9.335-9.335v-67.468c-7.334.622-13.542 5.202-16.476 11.596zm-79.705-.614c-1.349 2.692-2.108-.637-2.108-.637l-.006 57.123c0 5.156 4.179 9.335 9.335 9.335s9.335-4.179 9.335-9.335v-67.496c-7.259.479-13.461 4.831-16.556 11.01zm39.705.614c-.42.916-1.352 1.293-2.194 1.132v54.74c0 5.156 4.179 9.335 9.335 9.335s9.335-4.179 9.335-9.335v-67.468c-7.334.622-13.542 5.202-16.476 11.596z" fill="#faa68e"/><path d="m314.659 155.278v10c0 5.523-4.477 10-10 10s-10-4.477-10-10v-10c0-5.523 4.477-10 10-10s10 4.477 10 10z" fill="#ffeee5"/></g></svg>