<svg id="Capa_1" enable-background="new 0 0 501 501" height="512" viewBox="0 0 501 501" width="512" xmlns="http://www.w3.org/2000/svg"><g><path d="m180.084 483.511c-98.162-31.961-169.103-124.224-169.084-233.054.023-135.177 109.825-244.958 245.002-244.957 105.425.001 195.298 66.591 229.853 160.004 2.66 7.19-2.695 14.829-10.361 14.829-154.008 0-278.857 124.848-278.857 278.857v12.301c-.001 8.588-8.387 14.678-16.553 12.02z" fill="#eac23f"/><path d="m49 380.5h-29c-11.046 0-20-8.954-20-20v-246c0-11.046 8.954-20 20-20h29c11.046 0 20 8.954 20 20v246c0 11.046-8.954 20-20 20z" fill="#453d83"/><path d="m370 380.5h-321c-11.046 0-20-8.954-20-20v-246c0-11.046 8.954-20 20-20h321c11.046 0 20 8.954 20 20v246c0 11.046-8.954 20-20 20z" fill="#51489a"/><path d="m54.5 114.5h-54.5v-20c0-11.046 8.954-20 20-20h14.5c11.046 0 20 8.954 20 20z" fill="#55a4f9"/><path d="m390 114.5h-361v-20c0-11.046 8.954-20 20-20h321c11.046 0 20 8.954 20 20z" fill="#76b6fa"/><path d="m75 94.5h-75v-40c0-11.046 8.954-20 20-20h35c11.046 0 20 8.954 20 20z" fill="#86befb"/><path d="m390 54.5v40h-361v-40c0-11.046 8.954-20 20-20h321c.637 0 1.267.03 1.889.088 4.94 2.657 9.779 5.479 14.508 8.458 2.271 3.245 3.603 7.194 3.603 11.454z" fill="#a7d0fc"/><path d="m39 64.5c0 5.523-4.477 10-10 10s-10-4.477-10-10 4.477-10 10-10 10 4.477 10 10zm30-10c-5.523 0-10 4.477-10 10s4.477 10 10 10 10-4.477 10-10-4.477-10-10-10zm40 0c-5.523 0-10 4.477-10 10s4.477 10 10 10 10-4.477 10-10-4.477-10-10-10z" fill="#55a4f9"/><path d="m40 147.806c0-5.523 4.477-10 10-10h90c5.523 0 10 4.477 10 10s-4.477 10-10 10h-90c-5.523 0-10-4.477-10-10zm10 190c-5.523 0-10 4.477-10 10s4.477 10 10 10 10-4.477 10-10-4.477-10-10-10zm35 0c-5.523 0-10 4.477-10 10s4.477 10 10 10 10-4.477 10-10-4.477-10-10-10zm35 0c-5.523 0-10 4.477-10 10s4.477 10 10 10 10-4.477 10-10-4.477-10-10-10zm-20-110c0 5.523 4.477 10 10 10h90c5.523 0 10-4.477 10-10s-4.477-10-10-10h-90c-5.523 0-10 4.477-10 10zm10 30c-5.523 0-10 4.477-10 10s4.477 10 10 10h40c5.523 0 10-4.477 10-10s-4.477-10-10-10zm90 40h-90c-5.523 0-10 4.477-10 10s4.477 10 10 10h90c5.523 0 10-4.477 10-10s-4.477-10-10-10z" fill="#8078bf"/><path d="m100 187.806c0 5.523-4.477 10-10 10h-40c-5.523 0-10-4.477-10-10s4.477-10 10-10h40c5.523 0 10 4.477 10 10z" fill="#c1bde0"/><path d="m40 227.806c0-5.523 4.477-10 10-10h20c5.523 0 10 4.477 10 10s-4.477 10-10 10h-20c-5.523 0-10-4.477-10-10zm30 30h-20c-5.523 0-10 4.477-10 10s4.477 10 10 10h20c5.523 0 10-4.477 10-10s-4.477-10-10-10zm0 40h-20c-5.523 0-10 4.477-10 10s4.477 10 10 10h20c5.523 0 10-4.477 10-10s-4.477-10-10-10z" fill="#aba6d5"/><path d="m209.239 491.042c-9.975-1.928-19.735-4.46-29.239-7.559v-238.983c0-11.046 8.954-20 20-20h21.996v256c0 6.738-6.141 11.821-12.757 10.542z" fill="#f5e8b4"/><path d="m229 224.5h270.636c.901 8.543 1.364 17.218 1.364 26 0 135.31-109.69 245-245 245-16.073 0-31.785-1.548-46.994-4.502-.004-.166-.006-.332-.006-.498v-246c0-11.046 8.954-20 20-20z" fill="#f9f1d2"/><path d="m410 244.5h-230v-20c0-11.046 8.954-20 20-20h190c11.046 0 20 8.954 20 20z" fill="#ff956a"/><path d="m500.928 244.5h-291.928v-20c0-11.046 8.954-20 20-20h267.688c2.469 12.999 3.912 26.361 4.24 40z" fill="#ffad8c"/><path d="m300 224.5h-120v-40c0-11.046 8.954-20 20-20h80c11.046 0 20 8.954 20 20z" fill="#ea552d"/><path d="m499.636 224.5h-290.636v-40c0-11.046 8.954-20 20-20h256.481c7.121 18.993 11.951 39.105 14.155 60z" fill="#f76937"/><path d="m259 194.5c0 5.523-4.477 10-10 10s-10-4.477-10-10 4.477-10 10-10 10 4.477 10 10zm-50-10c-5.523 0-10 4.477-10 10s4.477 10 10 10 10-4.477 10-10-4.477-10-10-10zm80 0c-5.523 0-10 4.477-10 10s4.477 10 10 10 10-4.477 10-10-4.477-10-10-10z" fill="#d1462a"/><path d="m437.402 415.179c-7.207 1.707-14.331 2.655-21.069 2.655-23.078 0-43.726-11.115-57.515-25.781-9.588-10.199-24.172-13.919-37.34-9.17-11.548 4.166-25.696 6.617-40.979 6.617-38.936 0-78.5-15.912-78.5-35.54s39.564-35.54 78.5-35.54c15.131 0 29.148 2.403 40.633 6.493 13.327 4.746 28.054.945 37.611-9.486 13.789-15.05 34.47-26.593 57.59-26.593 24.817 0 54.865 13.3 75.021 29.961-10.517 36.308-29.208 69.144-53.952 96.384z" fill="#ffc5ae"/><path d="m425 284.5v140c0 1.54-.348 2.998-.97 4.301-1.825 1.721-3.677 3.414-5.554 5.078-1.083.401-2.254.621-3.476.621-5.523 0-10-4.477-10-10v-140c0-5.523 4.477-10 10-10s10 4.477 10 10zm25 25c-5.523 0-10 4.477-10 10v70c0 5.523 4.477 10 10 10 .171 0 .341-.004.509-.013 3.306-4.31 6.472-8.732 9.491-13.26v-66.727c0-5.523-4.477-10-10-10zm-180-10c-5.523 0-10 4.477-10 10v90c0 5.523 4.477 10 10 10s10-4.477 10-10v-90c0-5.523-4.477-10-10-10zm110 10c-5.523 0-10 4.477-10 10v70c0 5.523 4.477 10 10 10s10-4.477 10-10v-70c0-5.523-4.477-10-10-10zm-145 10c-5.523 0-10 4.477-10 10v50c0 5.523 4.477 10 10 10s10-4.477 10-10v-50c0-5.523-4.477-10-10-10zm70 0c-5.523 0-10 4.477-10 10v50c0 5.523 4.477 10 10 10s10-4.477 10-10v-50c0-5.523-4.477-10-10-10zm39 20c-5.523 0-10 4.477-10 10v10c0 5.523 4.477 10 10 10s10-4.477 10-10v-10c0-5.523-4.477-10-10-10z" fill="#ff7c48"/></g></svg>