<svg id="Capa_1" enable-background="new 0 0 501 501" height="512" viewBox="0 0 501 501" width="512" xmlns="http://www.w3.org/2000/svg"><g><path d="m5.5 256c0-135.31 109.69-245 245-245s245 109.69 245 245c0 94.088-53.038 175.789-130.846 216.836-3.413 1.801-77.059-17.836-114.154-17.836s-110.743 19.636-114.156 17.835c-77.807-41.047-130.844-122.747-130.844-216.835z" fill="#eac23f"/><path d="m495.5 256c0 36.305-7.897 70.765-22.066 101.757-13.115-7.384-24.251-32.45-30.767-66.975-1.709-9.054-10.091-15.295-19.251-14.3-1.291.14-2.597.212-3.916.212-.077 0-.155 0-.232-.001-9.308-.059-17.133 6.863-17.989 16.131-6.644 71.999-22.846 122.842-41.78 122.842-24.853 0-45-87.603-45-195.667 0-90.399 14.099-166.479 33.257-188.937 11.683 5.058 22.895 11 33.551 17.742 8.998 21.718 16.104 56.46 19.972 98.371.855 9.268 8.681 16.19 17.989 16.131.077 0 .154-.001.232-.001 1.319 0 2.625.072 3.916.212 9.16.995 17.542-5.246 19.251-14.3 2.361-12.512 5.33-23.782 8.779-33.418 27.766 39.723 44.054 88.06 44.054 140.201zm-394-176c-16.881 0-31.591 28.92-39.291 71.703-1.923 10.685-12.841 16.937-23.137 13.495-3.692-1.234-7.571-1.892-11.571-1.892-1.329 0-2.645.073-3.946.215-11.64 28.536-18.055 59.758-18.055 92.479 0 4.609.128 9.187.379 13.733 6.417 4.437 13.785 6.961 21.621 6.961 4 0 7.879-.658 11.571-1.892 10.296-3.442 21.215 2.81 23.137 13.495 7.701 42.783 22.411 71.703 39.292 71.703 24.853 0 45-62.68 45-140s-20.147-140-45-140z" fill="#e1b91e"/><path d="m364.654 270v130c0 11.046-8.954 20-20 20h-188.308c-11.046 0-20-8.954-20-20v-360c0-22.091 17.909-40 40-40h54.122c4.124 0 7.468 3.344 7.468 7.468v262.532z" fill="#51489a"/><path d="m283.654 344.615h-12.462c-44.735 0-81-36.265-81-81v-223.615c0-22.091 17.909-40 40-40h94.462c22.091 0 40 17.909 40 40v223.615c0 44.735-36.265 81-81 81z" fill="#5f55af"/><path d="m237.936 139.231v1.539c0 5.523-4.477 10-10 10h-1.538c-5.523 0-10-4.477-10-10v-1.539c0-5.523 4.477-10 10-10h1.538c5.523 0 10 4.477 10 10zm-10 205.384h-1.538c-5.523 0-10 4.477-10 10v1.538c0 5.523 4.477 10 10 10h1.538c5.523 0 10-4.477 10-10v-1.538c0-5.522-4.477-10-10-10zm0-43.077h-1.538c-5.523 0-10 4.477-10 10v1.538c0 5.523 4.477 10 10 10h1.538c5.523 0 10-4.477 10-10v-1.538c0-5.522-4.477-10-10-10zm0-215.384h-1.538c-5.523 0-10 4.477-10 10v1.539c0 5.523 4.477 10 10 10h1.538c5.523 0 10-4.477 10-10v-1.539c0-5.523-4.477-10-10-10zm-46.667 0h-1.539c-5.523 0-10 4.477-10 10v1.539c0 5.523 4.477 10 10 10h1.539c5.523 0 10-4.477 10-10v-1.539c0-5.523-4.477-10-10-10zm0 215.384h-1.539c-5.523 0-10 4.477-10 10v1.538c0 5.523 4.477 10 10 10h1.539c5.523 0 10-4.477 10-10v-1.538c0-5.522-4.477-10-10-10zm0-258.461h-1.539c-5.523 0-10 4.477-10 10v1.539c0 5.523 4.477 10 10 10h1.539c5.523 0 10-4.477 10-10v-1.539c0-5.523-4.477-10-10-10zm0 86.154h-1.539c-5.523 0-10 4.477-10 10v1.539c0 5.523 4.477 10 10 10h1.539c5.523 0 10-4.477 10-10v-1.539c0-5.523-4.477-10-10-10zm46.667-86.154h-1.538c-5.523 0-10 4.477-10 10v1.539c0 5.523 4.477 10 10 10h1.538c5.523 0 10-4.477 10-10v-1.539c0-5.523-4.477-10-10-10zm-46.667 301.538h-1.539c-5.523 0-10 4.477-10 10v1.538c0 5.523 4.477 10 10 10h1.539c5.523 0 10-4.477 10-10v-1.538c0-5.522-4.477-10-10-10zm140-215.384h-1.539c-5.523 0-10 4.477-10 10v1.539c0 5.523 4.477 10 10 10h1.539c5.523 0 10-4.477 10-10v-1.539c0-5.523-4.477-10-10-10zm0 215.384h-1.539c-5.523 0-10 4.477-10 10v1.538c0 5.523 4.477 10 10 10h1.539c5.523 0 10-4.477 10-10v-1.538c0-5.522-4.477-10-10-10zm0-43.077h-1.539c-5.523 0-10 4.477-10 10v1.538c0 5.523 4.477 10 10 10h1.539c5.523 0 10-4.477 10-10v-1.538c0-5.522-4.477-10-10-10zm0-215.384h-1.539c-5.523 0-10 4.477-10 10v1.539c0 5.523 4.477 10 10 10h1.539c5.523 0 10-4.477 10-10v-1.539c0-5.523-4.477-10-10-10zm-46.666 258.461h-1.538c-5.523 0-10 4.477-10 10v1.538c0 5.523 4.477 10 10 10h1.538c5.523 0 10-4.477 10-10v-1.538c0-5.522-4.478-10-10-10zm46.666-301.538h-1.539c-5.523 0-10 4.477-10 10v1.539c0 5.523 4.477 10 10 10h1.539c5.523 0 10-4.477 10-10v-1.539c0-5.523-4.477-10-10-10zm-46.666 86.154h-1.538c-5.523 0-10 4.477-10 10v1.539c0 5.523 4.477 10 10 10h1.538c5.523 0 10-4.477 10-10v-1.539c0-5.523-4.478-10-10-10zm0-86.154h-1.538c-5.523 0-10 4.477-10 10v1.539c0 5.523 4.477 10 10 10h1.538c5.523 0 10-4.477 10-10v-1.539c0-5.523-4.478-10-10-10zm0 258.461h-1.538c-5.523 0-10 4.477-10 10v1.538c0 5.523 4.477 10 10 10h1.538c5.523 0 10-4.477 10-10v-1.538c0-5.522-4.478-10-10-10zm0-215.384h-1.538c-5.523 0-10 4.477-10 10v1.539c0 5.523 4.477 10 10 10h1.538c5.523 0 10-4.477 10-10v-1.539c0-5.523-4.478-10-10-10zm-36.667 182.537v1.539c0 5.523-4.477 10-10 10h-1.538c-5.523 0-10-4.477-10-10v-1.539c0-5.523 4.477-10 10-10h1.538c5.523 0 10 4.477 10 10zm-10-53.077h-1.538c-5.523 0-10 4.477-10 10v1.539c0 5.523 4.477 10 10 10h1.538c5.523 0 10-4.477 10-10v-1.539c0-5.523-4.477-10-10-10zm-46.667 0h-1.539c-5.523 0-10 4.477-10 10v1.539c0 5.523 4.477 10 10 10h1.539c5.523 0 10-4.477 10-10v-1.539c0-5.523-4.477-10-10-10zm0-43.077h-1.539c-5.523 0-10 4.477-10 10v1.539c0 5.523 4.477 10 10 10h1.539c5.523 0 10-4.477 10-10v-1.539c0-5.523-4.477-10-10-10zm0 86.154h-1.539c-5.523 0-10 4.477-10 10v1.539c0 5.523 4.477 10 10 10h1.539c5.523 0 10-4.477 10-10v-1.539c0-5.523-4.477-10-10-10zm46.667-86.154h-1.538c-5.523 0-10 4.477-10 10v1.539c0 5.523 4.477 10 10 10h1.538c5.523 0 10-4.477 10-10v-1.539c0-5.523-4.477-10-10-10zm93.333 86.154h-1.539c-5.523 0-10 4.477-10 10v1.539c0 5.523 4.477 10 10 10h1.539c5.523 0 10-4.477 10-10v-1.539c0-5.523-4.477-10-10-10zm0-43.077h-1.539c-5.523 0-10 4.477-10 10v1.539c0 5.523 4.477 10 10 10h1.539c5.523 0 10-4.477 10-10v-1.539c0-5.523-4.477-10-10-10zm0-43.077h-1.539c-5.523 0-10 4.477-10 10v1.539c0 5.523 4.477 10 10 10h1.539c5.523 0 10-4.477 10-10v-1.539c0-5.523-4.477-10-10-10zm-46.666 86.154h-1.538c-5.523 0-10 4.477-10 10v1.539c0 5.523 4.477 10 10 10h1.538c5.523 0 10-4.477 10-10v-1.539c0-5.523-4.478-10-10-10zm0-86.154h-1.538c-5.523 0-10 4.477-10 10v1.539c0 5.523 4.477 10 10 10h1.538c5.523 0 10-4.477 10-10v-1.539c0-5.523-4.478-10-10-10zm0 43.077h-1.538c-5.523 0-10 4.477-10 10v1.539c0 5.523 4.477 10 10 10h1.538c5.523 0 10-4.477 10-10v-1.539c0-5.523-4.478-10-10-10z" fill="#453d83"/><path d="m364.654 428.077c-3.057 4.951-3.057 11.203 0 16.154v28.605c-34.089 17.984-72.933 28.164-114.154 28.164-20.923 0-41.234-2.623-60.621-7.558-5.52-1.405-9.379-6.384-9.379-12.08v-73.84c0-5.004 4.057-9.061 9.061-9.061h175.093z" fill="#55a4f9"/><path d="m136.346 398.462h53.846v95.06c-18.922-4.79-36.967-11.781-53.846-20.685v-28.605c3.516-4.811 3.516-11.344 0-16.154z" fill="#3493f8"/><path d="m364.654 444.231h-228.308v-16.154h228.308z" fill="#e9f3fe"/><path d="m190.192 444.231h-53.846v-16.154h53.846z" fill="#c8e2fd"/><path d="m227.936 480h-1.538c-5.523 0-10-4.477-10-10v-1.538c0-5.523 4.477-10 10-10h1.538c5.523 0 10 4.477 10 10v1.538c0 5.523-4.477 10-10 10z" fill="#c8e2fd"/><path d="m274.603 480h-1.538c-5.523 0-10-4.477-10-10v-1.538c0-5.523 4.477-10 10-10h1.538c5.523 0 10 4.477 10 10v1.538c0 5.523-4.478 10-10 10z" fill="#e9f3fe"/><path d="m261.5 170v90c0 5.523-4.477 10-10 10s-10-4.477-10-10v-90c0-5.523 4.477-10 10-10s10 4.477 10 10zm-45 10c-5.523 0-10 4.477-10 10v50c0 5.523 4.477 10 10 10s10-4.477 10-10v-50c0-5.523-4.477-10-10-10zm70 0c-5.523 0-10 4.477-10 10v50c0 5.523 4.477 10 10 10s10-4.477 10-10v-50c0-5.523-4.477-10-10-10zm-111 20c-5.523 0-10 4.477-10 10v10c0 5.523 4.477 10 10 10s10-4.477 10-10v-10c0-5.523-4.477-10-10-10zm150 0c-5.523 0-10 4.477-10 10v10c0 5.523 4.477 10 10 10s10-4.477 10-10v-10c0-5.523-4.477-10-10-10zm-189-20c-5.523 0-10 4.477-10 10v50c0 5.523 4.477 10 10 10s10-4.477 10-10v-50c0-5.523-4.477-10-10-10zm-41 20c-5.523 0-10 4.477-10 10v10c0 5.523 4.477 10 10 10s10-4.477 10-10v-10c0-5.523-4.477-10-10-10zm271-20c-5.523 0-10 4.477-10 10v50c0 5.523 4.477 10 10 10s10-4.477 10-10v-50c0-5.523-4.477-10-10-10zm39 20c-5.523 0-10 4.477-10 10v10c0 5.523 4.477 10 10 10s10-4.477 10-10v-10c0-5.523-4.477-10-10-10zm-361 5c-5.523 0-10 4.477-10 10s4.477 10 10 10 10-4.477 10-10-4.477-10-10-10zm410 0c-5.523 0-10 4.477-10 10s4.477 10 10 10 10-4.477 10-10-4.477-10-10-10z" fill="#fff5f5"/></g></svg>