<svg id="Capa_1" enable-background="new 0 0 501.085 501.085" height="512" viewBox="0 0 501.085 501.085" width="512" xmlns="http://www.w3.org/2000/svg"><g><path d="m489.977 247.143c1.822 133.948-105.151 245.181-239.075 248.33-63.115 1.484-120.978-20.906-165.192-58.775v-15.362c0-32.329-26.208-58.537-58.537-58.537-17.455-33.802-27.273-72.188-27.172-112.877.335-135.37 109.629-244.38 244.999-244.38 134.175.001 243.158 107.858 244.977 241.601z" fill="#55a4f9"/><path d="m381.904 75.57c13.056 0 25.822 1.238 38.188 3.603 42.511 43.429 68.995 102.608 69.884 167.97 1.385 101.813-60.085 190.502-148.47 228.58-92.257-18.717-161.699-100.277-161.699-198.057.001-111.615 90.483-202.096 202.097-202.096z" fill="#76b6fa"/><path d="m288.516 73.78c2.929 2.929 2.929 7.677 0 10.606-1.464 1.464-3.384 2.197-5.303 2.197s-3.839-.732-5.303-2.197c-8.772-8.772-23.048-8.772-31.82 0-2.929 2.929-7.678 2.929-10.606 0-2.929-2.929-2.929-7.678 0-10.606 14.62-14.622 38.411-14.622 53.032 0zm20-20c-25.649-25.649-67.384-25.649-93.033 0-2.929 2.929-2.929 7.678 0 10.606 2.929 2.93 7.678 2.929 10.606 0 19.801-19.8 52.02-19.8 71.82 0 1.464 1.464 3.384 2.197 5.303 2.197s3.839-.732 5.303-2.197c2.931-2.929 2.931-7.678.001-10.606z" fill="#fff5f5"/><path d="m160 114.542c0-11.046 8.954-20 20-20h12c11.046 0 20 8.954 20 20 0 11.046-8.954 20-20 20h-12c-11.046 0-20-8.954-20-20zm172 20h12c11.046 0 20-8.954 20-20 0-11.046-8.954-20-20-20h-12c-11.046 0-20 8.954-20 20 0 11.046 8.954 20 20 20zm168.985 281.812-7.985-102.812-202.445-9h-57.11l-202.445 9-3.826 49.256c14.609 28.29 34.567 53.369 58.537 73.899l57.675-51.593c21.577-19.302 49.389-30.139 78.299-30.55 3.46 5.971 9.919 9.987 17.317 9.987h46c7.398 0 13.857-4.016 17.317-9.987 28.909.411 56.721 11.248 78.297 30.55l65.35 58.459c10.107 9.041 24.71 10.996 36.839 4.931 12.033-6.016 19.222-18.725 18.18-32.14z" fill="#453d83"/><path d="m489.466 263.314 3.534 50.228c0 .852-.01 1.702-.03 2.549-1.252 52.542-66.749 76.276-101.915 37.218-19.219-21.346-47.069-34.767-78.054-34.767h-102.001c-30.985 0-58.835 13.421-78.054 34.767-35.167 39.058-100.664 15.324-101.916-37.218-.02-.847-.03-1.697-.03-2.549l4.831-53.414c7.457-82.444 76.569-145.586 159.349-145.586h134.68c84.009 0 153.711 64.971 159.606 148.772z" fill="#5f55af"/><path d="m101.322 181.007c-27.337 27.337-27.337 71.658 0 98.995s71.658 27.337 98.995 0 27.337-71.658 0-98.995c-27.336-27.337-71.658-27.337-98.995 0zm81.318 81.317c-17.574 17.574-46.066 17.574-63.64 0s-17.574-46.066 0-63.64c17.574-17.573 46.066-17.573 63.64 0 17.573 17.574 17.573 46.067 0 63.64zm235.857-81.317c-27.337-27.337-71.658-27.337-98.995 0s-27.337 71.658 0 98.995 71.658 27.337 98.995 0 27.337-71.658 0-98.995zm-17.677 81.317c-17.574 17.573-46.066 17.573-63.64 0-17.574-17.574-17.574-46.066 0-63.64 17.574-17.573 46.066-17.573 63.64 0 17.573 17.574 17.573 46.067 0 63.64zm-131.32 19.718h-15c-4.142 0-7.5-3.358-7.5-7.5 0-4.142 3.358-7.5 7.5-7.5h15c4.142 0 7.5 3.358 7.5 7.5 0 4.143-3.358 7.5-7.5 7.5zm-44.59-132.5c0 8.284-6.716 15-15 15s-15-6.716-15-15 6.716-15 15-15 15 6.716 15 15zm85-15c-8.284 0-15 6.716-15 15s6.716 15 15 15 15-6.716 15-15-6.716-15-15-15z" fill="#453d83"/><path d="m168.497 212.827c9.763 9.763 9.763 25.592 0 35.355s-25.592 9.763-35.355 0-9.763-25.592 0-35.355 25.592-9.763 35.355 0zm218.181 35.355c-9.763 9.763-25.592 9.763-35.355 0s-9.763-25.592 0-35.355 25.592-9.763 35.355 0 9.763 25.592 0 35.355zm-109.678-.515c0-4.142-3.358-7.5-7.5-7.5h-15c-4.142 0-7.5 3.358-7.5 7.5 0 4.142 3.358 7.5 7.5 7.5h15c4.142 0 7.5-3.357 7.5-7.5zm0-26.875c0-4.142-3.358-7.5-7.5-7.5h-15c-4.142 0-7.5 3.358-7.5 7.5 0 4.142 3.358 7.5 7.5 7.5h15c4.142 0 7.5-3.357 7.5-7.5z" fill="#958fca"/><path d="m269.5 201.417h-15c-4.142 0-7.5-3.358-7.5-7.5 0-4.142 3.358-7.5 7.5-7.5h15c4.142 0 7.5 3.358 7.5 7.5 0 4.143-3.358 7.5-7.5 7.5z" fill="#aba6d5"/><path d="m269.5 174.542h-15c-4.142 0-7.5-3.358-7.5-7.5 0-4.142 3.358-7.5 7.5-7.5h15c4.142 0 7.5 3.358 7.5 7.5 0 4.143-3.358 7.5-7.5 7.5z" fill="#c1bde0"/><path d="m122.536 181.007 35.355 35.355c5.858 5.858 5.858 15.355 0 21.213-5.858 5.858-15.355 5.858-21.213 0l-35.355-35.355c-5.858-5.858-5.858-15.355 0-21.213 5.857-5.858 15.355-5.858 21.213 0zm295.961 21.213-35.355 35.355c-5.858 5.858-15.355 5.858-21.213 0-5.858-5.858-5.858-15.355 0-21.213l35.355-35.355c5.858-5.858 15.355-5.858 21.213 0 5.858 5.858 5.858 15.355 0 21.213z" fill="#bc3f2a"/><path d="m136.678 166.865c13.668 13.668 13.668 35.829 0 49.497s-35.829 13.668-49.497 0-13.668-35.829 0-49.497 35.828-13.669 49.497 0zm295.962 49.497c-13.668 13.668-35.829 13.668-49.497 0s-13.668-35.829 0-49.497 35.829-13.668 49.497 0 13.668 35.829 0 49.497z" fill="#ea552d"/><path d="m136.678 166.865c3.095 3.095 5.489 6.626 7.183 10.394-1.693 3.769-4.088 7.299-7.183 10.394-13.668 13.668-35.829 13.668-49.497 0-3.095-3.095-5.489-6.626-7.183-10.394 1.693-3.769 4.088-7.299 7.183-10.394 13.668-13.669 35.828-13.669 49.497 0zm295.962 49.497c-3.095 3.095-6.626 5.489-10.394 7.183-3.769-1.693-7.299-4.088-10.394-7.183-13.668-13.668-13.668-35.829 0-49.497 3.095-3.095 6.626-5.489 10.394-7.183 3.769 1.693 7.299 4.088 10.394 7.183 13.668 13.668 13.668 35.829 0 49.497z" fill="#ff7c48"/></g></svg>