<svg id="Capa_1" enable-background="new 0 0 501 501" height="512" viewBox="0 0 501 501" width="512" xmlns="http://www.w3.org/2000/svg"><g><path d="m501 256c0 98.397-58.007 183.247-141.69 222.218-31.392 14.619-185.377 12.07-220.092-6.788-76.372-41.488-128.218-122.405-128.218-215.43 0-135.31 109.69-245 245-245s245 109.69 245 245z" fill="#453d83"/><path d="m460 257.5h-70c-4.143 0-7.5-3.357-7.5-7.5s3.357-7.5 7.5-7.5h70c4.143 0 7.5 3.357 7.5 7.5s-3.357 7.5-7.5 7.5zm-22.5 20c0-4.143-3.357-7.5-7.5-7.5h-40c-4.143 0-7.5 3.357-7.5 7.5s3.357 7.5 7.5 7.5h40c4.143 0 7.5-3.357 7.5-7.5zm-97.5-160c0-4.143-3.357-7.5-7.5-7.5h-80c-4.142 0-7.5 3.357-7.5 7.5s3.358 7.5 7.5 7.5h80c4.143 0 7.5-3.357 7.5-7.5zm-50 25c0-4.143-3.357-7.5-7.5-7.5h-30c-4.142 0-7.5 3.357-7.5 7.5s3.358 7.5 7.5 7.5h30c4.143 0 7.5-3.357 7.5-7.5zm-192.5 117.5c0-4.143-3.358-7.5-7.5-7.5h-50c-4.142 0-7.5 3.357-7.5 7.5s3.358 7.5 7.5 7.5h50c4.142 0 7.5-3.357 7.5-7.5zm-30 27.5c0-4.143-3.358-7.5-7.5-7.5h-20c-4.142 0-7.5 3.357-7.5 7.5s3.358 7.5 7.5 7.5h20c4.142 0 7.5-3.357 7.5-7.5z" fill="#958fca"/><path d="m477.417 167.968c0 28.949-23.468 52.417-52.417 52.417s-52.417-23.468-52.417-52.417 23.468-52.417 52.417-52.417 52.417 23.468 52.417 52.417z" fill="#489160"/><path d="m471.208 192.734c-8.84 16.459-26.217 27.65-46.208 27.65-28.949 0-52.417-23.468-52.417-52.417 0-19.991 11.191-37.368 27.651-46.208-3.961 7.375-6.208 15.808-6.208 24.766 0 28.949 23.468 52.417 52.417 52.417 8.957 0 17.39-2.247 24.765-6.208z" fill="#3d7a51"/><path d="m269.833 47.5c0 20.677-16.823 37.5-37.5 37.5s-37.5-16.823-37.5-37.5 16.823-37.5 37.5-37.5c20.678 0 37.5 16.823 37.5 37.5z" fill="#f76937"/><path d="m269.833 47.5c0 4.769-.895 9.332-2.526 13.532-4.2 1.631-8.763 2.526-13.532 2.526-20.677 0-37.5-16.822-37.5-37.5 0-4.769.896-9.332 2.526-13.532 4.2-1.63 8.763-2.526 13.532-2.526 20.678 0 37.5 16.823 37.5 37.5z" fill="#ff7c48"/><path d="m85 180c0 20.677-16.823 37.5-37.5 37.5s-37.5-16.823-37.5-37.5 16.823-37.5 37.5-37.5 37.5 16.823 37.5 37.5z" fill="#eac23f"/><path d="m82.474 193.532c-5.439 14.01-19.065 23.968-34.974 23.968-20.677 0-37.5-16.823-37.5-37.5 0-15.909 9.958-29.535 23.968-34.974-1.63 4.2-2.526 8.763-2.526 13.532 0 20.678 16.823 37.5 37.5 37.5 4.769 0 9.332-.895 13.532-2.526z" fill="#e1b91e"/><path d="m260 290c0 22.091-17.909 40-40 40s-40-17.909-40-40 17.909-40 40-40 40 17.909 40 40z" fill="#55a4f9"/><path d="m260 290c0 6.693-1.645 13.003-4.551 18.547-5.544 2.906-11.853 4.551-18.547 4.551-22.091 0-40-17.909-40-40 0-6.694 1.645-13.003 4.551-18.547 5.544-2.906 11.853-4.551 18.547-4.551 22.091 0 40 17.909 40 40z" fill="#86befb"/><path d="m425 105.468c-34.463 0-62.5 28.037-62.5 62.5 0 9.557 2.156 18.62 6.007 26.727l-83.557 53.065c-12.462-19.096-33.111-32.386-56.925-34.847l8.435-118.091c24.266-2.098 43.373-22.521 43.373-47.322 0-26.191-21.309-47.5-47.5-47.5s-47.5 21.309-47.5 47.5c0 22.465 15.677 41.337 36.665 46.253l-8.504 119.061c-21.442 1.93-40.395 12.631-53.233 28.478l-70.332-38.988c3.554-6.654 5.571-14.248 5.571-22.304 0-26.191-21.309-47.5-47.5-47.5s-47.5 21.309-47.5 47.5 21.309 47.5 47.5 47.5c12.686 0 24.226-4.999 32.755-13.13l71.208 39.474c-5.721 10.8-8.963 23.106-8.963 36.156 0 42.733 34.766 77.5 77.5 77.5 42.733 0 77.5-34.767 77.5-77.5 0-10.209-1.984-19.963-5.588-28.897l84.607-53.731c11.469 14.085 28.942 23.097 48.48 23.097 34.463 0 62.5-28.037 62.5-62.5s-28.036-62.501-62.499-62.501zm-377.5 107.032c-17.92 0-32.5-14.579-32.5-32.5s14.58-32.5 32.5-32.5 32.5 14.579 32.5 32.5-14.58 32.5-32.5 32.5zm152.333-165c0-17.921 14.58-32.5 32.5-32.5 17.921 0 32.5 14.579 32.5 32.5s-14.579 32.5-32.5 32.5c-17.92 0-32.5-14.579-32.5-32.5zm20.167 305c-34.462 0-62.5-28.037-62.5-62.5s28.038-62.5 62.5-62.5 62.5 28.037 62.5 62.5-28.038 62.5-62.5 62.5zm205-137.032c-26.191 0-47.5-21.309-47.5-47.5s21.309-47.5 47.5-47.5 47.5 21.309 47.5 47.5-21.309 47.5-47.5 47.5z" fill="#55a4f9"/><path d="m453.685 161.346h-3.141c-.659-2.849-1.783-5.52-3.287-7.929l2.223-2.223c2.318-2.318 2.318-6.076 0-8.394-2.318-2.317-6.075-2.317-8.393 0l-2.223 2.223c-2.409-1.504-5.08-2.627-7.929-3.287v-3.142c0-3.278-2.657-5.935-5.935-5.935s-5.935 2.657-5.935 5.935v3.142c-2.849.659-5.52 1.783-7.929 3.287l-2.223-2.223c-2.318-2.317-6.075-2.317-8.393 0-2.318 2.318-2.318 6.076 0 8.394l2.223 2.223c-1.504 2.409-2.627 5.08-3.287 7.929h-3.141c-3.278 0-5.935 2.657-5.935 5.935s2.657 5.935 5.935 5.935h3.141c.659 2.849 1.783 5.52 3.287 7.929l-2.223 2.223c-2.318 2.318-2.318 6.076 0 8.394 2.318 2.317 6.075 2.317 8.393 0l2.223-2.223c2.409 1.504 5.08 2.627 7.929 3.287v3.142c0 3.277 2.657 5.935 5.935 5.935s5.935-2.657 5.935-5.935v-3.142c2.849-.66 5.52-1.783 7.929-3.287l2.223 2.223c2.318 2.317 6.075 2.317 8.393 0 2.318-2.318 2.318-6.076 0-8.394l-2.223-2.223c1.504-2.409 2.627-5.081 3.286-7.929h3.141c3.278 0 5.935-2.657 5.935-5.935.001-3.278-2.656-5.935-5.934-5.935zm-28.685 18.691c-7.045 0-12.756-5.711-12.756-12.756s5.711-12.756 12.756-12.756 12.756 5.711 12.756 12.756-5.711 12.756-12.756 12.756zm-361.061-6.07v14.85c0 1.992-1.615 3.607-3.607 3.607h-25.664c-1.992 0-3.607-1.615-3.607-3.607v-14.85c0-1.12.52-2.176 1.408-2.859l12.832-9.871c1.297-.997 3.102-.997 4.398 0l12.832 9.871c.888.683 1.408 1.739 1.408 2.859zm186.719-135.865c3.427 4.576 2.633 11.042-1.799 14.653l-14.237 11.6c-1.333 1.086-3.245 1.086-4.578 0l-14.237-11.601c-4.432-3.611-5.226-10.077-1.799-14.653 3.89-5.195 11.481-5.737 16.07-1.148l2.255 2.255 2.255-2.255c4.589-4.589 12.18-4.047 16.07 1.149z" fill="#fff5f5"/><path d="m360.011 399.912v65.014c0 4.453-.235 8.889-.701 13.292-31.393 14.619-66.398 22.782-103.31 22.782-42.376 0-82.24-10.759-117.008-29.694-2.745-8.721-6.352-17.15-10.769-25.162l-26.967-48.913c-2.66-4.825-.918-10.908 3.905-13.572 14.513-8.019 32.776-2.744 40.78 11.774l34.177 61.99c2.625 4.761 8.429 7.029 13.436 4.913 3.99-1.687 6.457-5.542 6.457-9.708v-162.236c0-10.845 8.433-20.081 19.271-20.466 11.378-.405 20.729 8.699 20.729 19.987v100.417s.759 3.329 2.108.637c3.284-6.554 10.063-11.054 17.892-11.054 8.072 0 15.028 4.782 18.187 11.668.715 1.559 2.911 1.559 3.626 0 3.16-6.886 10.115-11.668 18.187-11.668s15.028 4.782 18.187 11.668c.715 1.559 2.911 1.559 3.626 0 3.16-6.886 10.115-11.668 18.187-11.668 11.046-.001 20 8.953 20 19.999z" fill="#ffbeaa"/><path d="m166.513 484.143c-9.476-3.72-18.664-8.013-27.521-12.836-2.745-8.721-6.352-17.15-10.769-25.162l-26.967-48.913c-2.612-4.739-1.036-10.789 3.678-13.445 4.375-2.466 9.099-3.715 13.785-3.86-.164 1.907.215 3.881 1.208 5.68l26.967 48.913c5.044 9.149 9.031 18.842 11.885 28.892 2.025 7.13 4.615 14.062 7.734 20.731zm47.859-29.386c2.709-1.981 4.31-5.136 4.31-8.492v-167.498c0-3.142.708-6.148 1.977-8.844-.455-.015-.914-.014-1.376.002-10.838.385-19.271 9.622-19.271 20.466v162.532c3.457 4.247 9.764 5.195 14.36 1.834zm83.929-7.304v-67.468c-7.335.622-13.543 5.201-16.477 11.595-.42.916-1.352 1.293-2.194 1.133v54.74c0 5.156 4.18 9.335 9.335 9.335s9.336-4.18 9.336-9.335zm-39.625-67.496c-7.26.479-13.462 4.831-16.557 11.009-1.349 2.692-2.108-.637-2.108-.637l-.006 57.124c0 5.156 4.18 9.335 9.335 9.335s9.335-4.18 9.335-9.335v-67.496zm63.148 11.623c-.42.916-1.352 1.293-2.194 1.133v54.74c0 5.156 4.18 9.335 9.335 9.335s9.335-4.18 9.335-9.335v-67.468c-7.335.621-13.542 5.201-16.476 11.595z" fill="#faa68e"/><path d="m220.159 269.912c-5.523 0-10 4.477-10 10v10c0 5.523 4.477 10 10 10s10-4.477 10-10v-10c0-5.523-4.477-10-10-10z" fill="#ffeee5"/></g></svg>