<svg id="Capa_1" enable-background="new 0 0 512 512" height="512" viewBox="0 0 512 512" width="512" xmlns="http://www.w3.org/2000/svg"><g><path d="m501 256c0 130.621-102.221 237.368-231.031 244.608-1.875.105-5.083-5.921-6.969-5.858-2.765.092-46.185-1.114-65.25-5.875-2.138-.534-5.568 3.741-7.683 3.151-103.286-28.791-179.067-123.559-179.067-236.026s75.781-207.235 179.067-236.026c2.038-.568 6.208 5.876 8.266 5.36 19.136-4.799 63.786-6.402 66.167-6.333 2.275.065 3.21-7.735 5.469-7.608 128.81 7.239 231.031 113.986 231.031 244.607z" fill="#55a4f9"/><path d="m187 465.158h-172c-8.284 0-15-6.716-15-15v-245.158c0-8.284 6.716-15 15-15h172c8.284 0 15 6.716 15 15v245.158c0 8.284-6.716 15-15 15z" fill="#eac23f"/><path d="m187 465.158h-131.211c-8.284 0-15-6.716-15-15v-245.158c0-8.284 6.716-15 15-15h131.211c8.284 0 15 6.716 15 15v245.158c0 8.284-6.716 15-15 15z" fill="#e9cc5a"/><path d="m99.756 304.361c0-13.718 11.121-24.839 24.839-24.839s24.839 11.121 24.839 24.839-11.121 24.839-24.839 24.839-24.839-11.121-24.839-24.839zm-44.917 24.839c13.718 0 24.839-11.121 24.839-24.839s-11.121-24.839-24.839-24.839-24.839 11.12-24.839 24.839c0 13.718 11.121 24.839 24.839 24.839zm69.756-63.856c13.718 0 24.839-11.121 24.839-24.839s-11.121-24.839-24.839-24.839-24.839 11.121-24.839 24.839 11.121 24.839 24.839 24.839zm-69.756 0c13.718 0 24.839-11.121 24.839-24.839s-11.121-24.839-24.839-24.839-24.839 11.121-24.839 24.839 11.121 24.839 24.839 24.839zm115.161 127.476c0-5.523-4.477-10-10-10h-120c-5.523 0-10 4.477-10 10 0 5.523 4.477 10 10 10h120c5.523 0 10-4.477 10-10zm-62 35.547c0-5.523-4.477-10-10-10h-58c-5.523 0-10 4.477-10 10 0 5.523 4.477 10 10 10h58c5.523 0 10-4.477 10-10zm0-71c0-5.523-4.477-10-10-10h-58c-5.523 0-10 4.477-10 10 0 5.523 4.477 10 10 10h58c5.523 0 10-4.477 10-10z" fill="#c3a01a"/><path d="m168.609 326.251h123.434v71.309c0 8.373-1.598 16.67-4.708 24.444-10.043 25.108-15.899 51.661-17.367 78.603-4.622.261-9.28.393-13.968.393-22.843 0-44.955-3.126-65.933-8.974-2.144-23.992-7.775-47.583-16.75-70.021-3.11-7.774-4.708-16.071-4.708-24.444zm118.727-236.256c-10.043-25.108-15.899-51.661-17.367-78.603-4.623-.26-9.281-.392-13.969-.392-22.843 0-44.955 3.126-65.933 8.974-2.144 23.992-7.775 47.584-16.75 70.021-3.11 7.774-4.708 16.071-4.708 24.444v71.309h123.434v-71.309c.001-8.373-1.597-16.669-4.707-24.444z" fill="#a7d0fc"/><path d="m292.044 114.439v71.309h-88.778v-71.309c0-8.373 1.598-16.67 4.707-24.444 9.854-24.636 15.678-50.663 17.279-77.084 10.072-1.261 20.334-1.911 30.748-1.911 4.688 0 9.346.132 13.969.392 1.468 26.942 7.324 53.495 17.367 78.603 3.11 7.775 4.708 16.071 4.708 24.444zm-88.779 283.122c0 8.373 1.598 16.67 4.707 24.444 9.854 24.636 15.678 50.663 17.28 77.084 10.072 1.261 20.334 1.911 30.748 1.911 4.688 0 9.346-.132 13.969-.392 1.468-26.942 7.324-53.495 17.367-78.603 3.11-7.774 4.708-16.071 4.708-24.444v-71.309h-88.778v71.309z" fill="#c8e2fd"/><path d="m309.429 113.633v53.674c0 11.046-8.954 20-20 20h-118.205c-11.046 0-20-8.954-20-20v-53.674c0-11.046 8.954-20 20-20h118.204c11.046 0 20.001 8.954 20.001 20zm-20 211.061h-118.205c-11.046 0-20 8.954-20 20v53.673c0 11.046 8.954 20 20 20h118.204c11.046 0 20-8.954 20-20v-53.673c.001-11.046-8.954-20-19.999-20z" fill="#c8e2fd"/><path d="m309.429 113.633v53.674c0 11.046-8.954 20-20 20h-86.98c-11.046 0-20-8.954-20-20v-53.674c0-11.046 8.954-20 20-20h86.98c11.045 0 20 8.954 20 20zm-20 211.061h-86.98c-11.046 0-20 8.954-20 20v53.673c0 11.046 8.954 20 20 20h86.98c11.046 0 20-8.954 20-20v-53.673c0-11.046-8.955-20-20-20z" fill="#e9f3fe"/><path d="m310.653 395.36h-160.653c-16.569 0-30-13.431-30-30v-218.72c0-16.569 13.431-30 30-30h160.653c16.569 0 30 13.431 30 30v218.72c0 16.568-13.431 30-30 30z" fill="#453d83"/><path d="m310.653 395.36h-119.02c-16.569 0-30-13.431-30-30v-218.72c0-16.569 13.431-30 30-30h119.02c16.569 0 30 13.431 30 30v218.72c0 16.568-13.431 30-30 30z" fill="#5f55af"/><path d="m297.98 219.571c0 37.364-30.289 67.653-67.653 67.653s-67.653-30.289-67.653-67.653 30.289-67.653 67.653-67.653 67.653 30.29 67.653 67.653z" fill="#e9f3fe"/><path d="m271.134 212.392c-.751 4.75-7.893 9.519-17.212 11.16-9.319 1.64-17.66-.404-19.988-4.612.751-4.75 7.893-9.519 17.212-11.16 9.319-1.64 17.66.404 19.988 4.612zm-40.04-54.765c-4.611 2.667-8.388 16.521-8.773 33.293s2.754 30.785 7.237 33.66c4.61-2.667 8.388-16.521 8.773-33.293s-2.753-30.785-7.237-33.66z" fill="#453d83"/><path d="m243.857 219.571c0 7.473-6.058 13.531-13.531 13.531s-13.531-6.058-13.531-13.531 6.058-13.531 13.531-13.531c7.473.001 13.531 6.059 13.531 13.531z" fill="#5f55af"/><path d="m221.27 336.248c0 13.163-10.671 23.834-23.834 23.834s-23.834-10.671-23.834-23.834 10.671-23.834 23.834-23.834 23.834 10.671 23.834 23.834z" fill="#a7d0fc"/><path d="m287.051 336.248c0 13.163-10.671 23.834-23.834 23.834s-23.834-10.671-23.834-23.834 10.671-23.834 23.834-23.834 23.834 10.671 23.834 23.834z" fill="#f76937"/><path d="m497 324.842h-162c-8.284 0-15-6.716-15-15v-234.842c0-8.284 6.716-15 15-15h162c8.284 0 15 6.716 15 15v234.842c0 8.284-6.716 15-15 15z" fill="#eac23f"/><path d="m497 324.842h-120.553c-8.284 0-15-6.716-15-15v-234.842c0-8.284 6.716-15 15-15h120.553c8.284 0 15 6.716 15 15v234.842c0 8.284-6.716 15-15 15z" fill="#e9cc5a"/><path d="m482 200.9h-132c-2.209 0-4-1.791-4-4v-104c0-2.209 1.791-4 4-4h132c2.209 0 4 1.791 4 4v104c0 2.209-1.791 4-4 4z" fill="#f9f1d2"/><path d="m392.897 110.9c14.702 0 27.162 37.775 31.45 90h-62.9c4.288-52.225 16.748-90 31.45-90z" fill="#edd578"/><path d="m433.042 140.9c17.277 0 31.918 25.183 36.958 60h-73.915c5.039-34.817 19.681-60 36.957-60z" fill="#f1de96"/><path d="m384.317 233.379c0 9.677-7.844 17.521-17.521 17.521s-17.521-7.844-17.521-17.521 7.844-17.521 17.521-17.521 17.521 7.845 17.521 17.521zm31.683-17.521c-9.677 0-17.521 7.844-17.521 17.521s7.844 17.521 17.521 17.521 17.521-7.844 17.521-17.521-7.844-17.521-17.521-17.521zm49.204 35.042c9.677 0 17.521-7.844 17.521-17.521s-7.844-17.521-17.521-17.521-17.521 7.844-17.521 17.521 7.844 17.521 17.521 17.521zm-98.408 10c-9.677 0-17.521 7.844-17.521 17.521s7.844 17.521 17.521 17.521 17.521-7.844 17.521-17.521-7.844-17.521-17.521-17.521zm49.204 0c-9.677 0-17.521 7.844-17.521 17.521s7.844 17.521 17.521 17.521 17.521-7.844 17.521-17.521-7.844-17.521-17.521-17.521zm49.204 0c-9.677 0-17.521 7.844-17.521 17.521s7.844 17.521 17.521 17.521 17.521-7.844 17.521-17.521-7.845-17.521-17.521-17.521z" fill="#c3a01a"/></g></svg>