<svg id="Capa_1" enable-background="new 0 0 501 501" height="512" viewBox="0 0 501 501" width="512" xmlns="http://www.w3.org/2000/svg"><g><path d="m495.488 258.434c-1.084 111.336-76.431 204.904-178.883 233.544 0-35.362-28.666-64.028-64.028-64.028h-176.6c-43.582-44.231-70.477-104.95-70.477-171.95 0-135.309 109.69-245 244.999-245 135.289 0 246.306 112.151 244.989 247.434z" fill="#eac23f"/><path d="m402.06 280.193c-3.174-4.519-2.084-10.756 2.435-13.931l32.732-22.991c4.519-3.174 10.756-2.084 13.931 2.435 3.174 4.519 2.084 10.756-2.435 13.931l-32.732 22.991c-4.52 3.175-10.757 2.084-13.931-2.435zm4.19 58.159c-3.174-4.519-9.412-5.61-13.931-2.435s-5.61 9.411-2.435 13.931l11.496 16.366c3.175 4.519 9.412 5.61 13.931 2.435 4.519-3.174 5.61-9.411 2.435-13.931zm48.385-30.407-39.403-6.888c-5.44-.951-10.622 2.688-11.573 8.129-.951 5.44 2.688 10.622 8.128 11.573l39.403 6.888c5.44.951 10.622-2.688 11.573-8.129s-2.688-10.622-8.128-11.573z" fill="#f1de96"/><path d="m374.105 108.348c-2.859 10.669-13.826 17.001-24.495 14.142l-109.743-29.405-93.667 349.567c-4.327 16.15-23.436 23.122-37.083 13.462-11.871-8.402-22.961-17.833-33.14-28.164l94.177-351.474c2.859-10.669 13.826-17.001 24.495-14.142l23.036 6.173c.107-.652.248-1.305.422-1.957 2.859-10.669 13.826-17.001 24.495-14.142l4.588 1.229c2.859-10.669 13.826-17.001 24.495-14.142l20.285 5.435 9.059-33.807c2.144-8.002 10.369-12.751 18.371-10.607 8.002 2.144 12.751 10.369 10.607 18.371l-9.059 33.807 20.285 5.435c10.669 2.859 17.001 13.826 14.142 24.495l4.588 1.229c10.669 2.859 17.001 13.825 14.142 24.495z" fill="#453d83"/><path d="m410.67 140.922-94.065 351.057c-21.029 5.879-43.2 9.022-66.105 9.022-52.718 0-101.547-16.651-141.515-44.98.113-.799.275-1.6.49-2.399l98.351-367.052c2.859-10.669 13.825-17.001 24.495-14.142l164.208 43.999c10.668 2.858 17 13.825 14.141 24.495z" fill="#5f55af"/><path d="m261.257 457.287c-34.405 23.066-80.994 13.875-104.06-20.53s-13.875-80.994 20.53-104.06 80.994-13.875 104.06 20.53c23.067 34.405 13.875 80.994-20.53 104.06z" fill="#453d83"/><path d="m244.551 432.369c-20.643 13.84-48.596 8.325-62.436-12.318s-8.325-48.596 12.318-62.436 48.596-8.325 62.436 12.318 8.325 48.597-12.318 62.436z" fill="#6a61b4"/><path d="m233.414 415.757c-11.468 7.689-26.998 4.625-34.687-6.843s-4.625-26.998 6.843-34.687 26.998-4.625 34.687 6.843c7.689 11.469 4.625 26.998-6.843 34.687z" fill="#55a4f9"/><path d="m230.134 404.134c-5.509 6.188-14.99 6.738-21.177 1.23l-104.567-93.09c-6.188-5.508-6.738-14.99-1.23-21.177 5.508-6.188 14.99-6.738 21.177-1.23l104.567 93.09c6.188 5.508 6.738 14.99 1.23 21.177z" fill="#a7d0fc"/><path d="m147.974 330.993c-16.525 18.563-44.97 20.215-63.533 3.689-18.563-16.525-20.215-44.97-3.689-63.533 16.525-18.563 44.97-20.215 63.533-3.689s20.214 44.97 3.689 63.533zm97.749-69.849c-3.465 12.93-16.755 20.603-29.685 17.138l-8.53-2.286c-12.93-3.465-20.603-16.755-17.138-29.685s16.755-20.603 29.685-17.138l8.53 2.286c12.929 3.465 20.603 16.756 17.138 29.685z" fill="#d1462a"/><path d="m147.974 330.993c-3.942 4.427-8.561 7.892-13.563 10.378-5.256-1.891-10.246-4.797-14.673-8.739-18.563-16.525-20.215-44.97-3.689-63.533 3.942-4.428 8.561-7.892 13.563-10.378 5.256 1.891 10.246 4.797 14.673 8.739 18.563 16.525 20.214 44.97 3.689 63.533zm97.749-69.849c-2.827 10.549-12.193 17.598-22.569 17.956-8.807-5.497-13.394-16.286-10.567-26.834 2.827-10.549 12.193-17.598 22.569-17.956 8.806 5.497 13.394 16.286 10.567 26.834z" fill="#ff7c48"/><path d="m323.668 282.03c-3.465 12.93-16.755 20.603-29.685 17.138l-8.53-2.286c-12.93-3.464-20.603-16.755-17.138-29.685s16.755-20.603 29.685-17.138l8.53 2.286c12.93 3.465 20.603 16.755 17.138 29.685z" fill="#e1b91e"/><path d="m323.668 282.03c-2.827 10.549-12.193 17.598-22.569 17.956-8.807-5.497-13.394-16.285-10.567-26.834s12.193-17.598 22.569-17.956c8.807 5.496 13.394 16.285 10.567 26.834z" fill="#e9cc5a"/><path d="m322.214 213.59-96.593-25.882c-8.002-2.144-12.751-10.369-10.607-18.371l7.765-28.978c2.144-8.002 10.369-12.751 18.371-10.607l96.593 25.882c8.002 2.144 12.751 10.369 10.607 18.371l-7.765 28.978c-2.144 8.003-10.369 12.751-18.371 10.607z" fill="#55a4f9"/><path d="m322.214 213.59-68.581-18.376c-8.002-2.144-12.751-10.369-10.607-18.371l7.765-28.978c2.144-8.002 10.369-12.751 18.371-10.607l68.581 18.376c8.002 2.144 12.751 10.369 10.607 18.371l-7.765 28.978c-2.144 8.003-10.369 12.751-18.371 10.607z" fill="#86befb"/><path d="m257.534 165.201c-1.429 5.335-6.913 8.5-12.248 7.071-5.334-1.429-8.5-6.913-7.071-12.247 1.429-5.335 6.913-8.5 12.248-7.071s8.501 6.912 7.071 12.247zm26.737-3.189c-5.335-1.429-10.818 1.736-12.248 7.071-1.429 5.335 1.736 10.818 7.071 12.247 5.334 1.429 10.818-1.736 12.247-7.071 1.43-5.334-1.736-10.817-7.07-12.247zm33.807 9.059c-5.335-1.429-10.818 1.736-12.247 7.071-1.429 5.335 1.737 10.818 7.071 12.247 5.335 1.429 10.818-1.736 12.248-7.071 1.428-5.334-1.737-10.818-7.072-12.247z" fill="#1380e2"/><path d="m114.447 198.847-20.427 41.057c-1.748 3.514-5.285 5.547-8.961 5.548-1.496 0-3.016-.337-4.446-1.049-4.945-2.46-6.959-8.463-4.499-13.408l10.817-21.742c-35.852 17.19-54.17 58.923-41.204 97.566 1.757 5.236-1.063 10.905-6.3 12.662-1.055.354-2.127.522-3.182.522-4.18 0-8.077-2.641-9.479-6.822-16.11-48.013 6.415-99.842 50.696-121.566l-17.48-8.696c-4.945-2.46-6.959-8.463-4.499-13.407 2.459-4.945 8.461-6.96 13.407-4.499l41.058 20.426c2.375 1.181 4.183 3.257 5.026 5.772.844 2.514.655 5.261-.527 7.636z" fill="#fff5f5"/></g></svg>