<svg id="Capa_1" enable-background="new 0 0 501 501" height="512" viewBox="0 0 501 501" width="512" xmlns="http://www.w3.org/2000/svg"><g><path d="m484.167 256c0 56.057-7.992 92.715-39.667 134-3.999 5.212-7.704 25.26-12.101 30.129-8.306 9.199-17.299 17.765-26.899 25.617h-105.645c-34.659 0-65.768 21.263-78.355 53.556-55.69-6.568-105.662-31.814-143.479-69.302v-200.768c0-33.462-18.799-64.087-48.638-79.232 4.933-10.318 10.565-20.232 16.837-29.681 1.986-2.993 16.167-5.939 18.28-8.836 30.978-42.485 63.195-64.275 114.823-79.816 3.215-.968 6.459-12.125 9.729-12.963 19.788-5.073 40.556-7.748 61.978-7.703 97.079.206 180.9 56.873 220.371 138.908 1.155 2.399-6.312 11.649-5.234 14.092 13.341 30.228 18 56.834 18 91.999z" fill="#453d83"/><path d="m189.5 18.655v86.345c0 8.284-6.716 15-15 15h-127.817c33.053-49.437 83.614-86.175 142.817-101.345z" fill="#958fca"/><path d="m164.5 57.5c0 4.143-3.357 7.5-7.5 7.5h-59.954c6.649-5.349 13.583-10.358 20.776-15h39.178c4.143 0 7.5 3.357 7.5 7.5zm-32.5 17.5h-46.62c-4.609 4.207-9.057 8.588-13.333 13.132 1.321 1.162 3.055 1.868 4.953 1.868h55c4.143 0 7.5-3.357 7.5-7.5s-3.357-7.5-7.5-7.5z" fill="#aba6d5"/><path d="m246.551 500.968c-8.461-.134-16.819-.696-25.051-1.667v-174.301c0-8.284 6.716-15 15-15h26.75c-8.284 0-15 6.716-15 15v174.292c0 .933-.766 1.691-1.699 1.676z" fill="#ff7c48"/><path d="m405.5 325v120.746c-42.227 34.535-96.194 55.254-155 55.254-1.671 0-3.337-.017-5-.05v-175.95c0-8.284 6.716-15 15-15h130c8.284 0 15 6.716 15 15z" fill="#ff956a"/><path d="m364.5 447.5c0 4.143-3.357 7.5-7.5 7.5h-80c-4.142 0-7.5-3.357-7.5-7.5s3.358-7.5 7.5-7.5h80c4.143 0 7.5 3.357 7.5 7.5zm-57.5 17.5h-30c-4.142 0-7.5 3.357-7.5 7.5s3.358 7.5 7.5 7.5h30c4.143 0 7.5-3.357 7.5-7.5s-3.357-7.5-7.5-7.5zm-30-60h80c4.143 0 7.5-3.357 7.5-7.5s-3.357-7.5-7.5-7.5h-80c-4.142 0-7.5 3.357-7.5 7.5s3.358 7.5 7.5 7.5zm0 25h55c4.143 0 7.5-3.357 7.5-7.5s-3.357-7.5-7.5-7.5h-55c-4.142 0-7.5 3.357-7.5 7.5s3.358 7.5 7.5 7.5zm-42.5-98.125c0-3.107 2.518-5.625 5.625-5.625h18.75c3.107 0 5.625 2.518 5.625 5.625s-2.518 5.625-5.625 5.625h-18.75c-3.107 0-5.625-2.518-5.625-5.625zm24.375 14.063h-18.75c-3.107 0-5.625 2.518-5.625 5.625s2.518 5.625 5.625 5.625h18.75c3.107 0 5.625-2.518 5.625-5.625s-2.518-5.625-5.625-5.625z" fill="#ea552d"/><path d="m446.5 150h24.945c15.417 32.077 24.055 68.03 24.055 106 0 63.134-23.88 120.69-63.1 164.129-.582-1.6-.9-3.327-.9-5.129v-250c0-8.284 6.716-15 15-15z" fill="#54a770"/><path d="m470.5 150h.945c15.417 32.077 24.055 68.03 24.055 106 0 49.55-14.71 95.664-40 134.214v-225.214c0-8.284 6.716-15 15-15z" fill="#80bf95"/><path d="m444.5 174.687c0-3.107 2.518-5.625 5.625-5.625h18.75c3.107 0 5.625 2.518 5.625 5.625s-2.518 5.625-5.625 5.625h-18.75c-3.107 0-5.625-2.518-5.625-5.625zm24.375 14.063h-18.75c-3.107 0-5.625 2.518-5.625 5.625s2.518 5.625 5.625 5.625h18.75c3.107 0 5.625-2.518 5.625-5.625s-2.518-5.625-5.625-5.625z" fill="#489160"/><path d="m189.5 165v250c0 8.284-6.716 15-15 15h-96.479c-44.784-44.395-72.521-105.958-72.521-174 0-37.97 8.638-73.923 24.055-106h144.945c8.284 0 15 6.716 15 15z" fill="#e9cc5a"/><path d="m189.5 165v250c0 8.284-6.716 15-15 15h-96.479c-19.823-19.65-36.306-42.664-48.521-68.115v-196.885c0-8.284 6.716-15 15-15h130c8.284 0 15 6.716 15 15z" fill="#edd578"/><path d="m174.5 330v70c0 5.523-4.477 10-10 10h-104.56c-19.94-24.643-35.196-53.232-44.416-84.412 1.63-3.31 5.037-5.588 8.976-5.588h140c5.523 0 10 4.477 10 10zm-10-120h-140c-5.523 0-10 4.477-10 10v70c0 5.523 4.477 10 10 10h140c5.523 0 10-4.477 10-10v-70c0-5.523-4.477-10-10-10z" fill="#eac23f"/><path d="m44.5 194.375c0 3.107-2.518 5.625-5.625 5.625h-18.75c-3.107 0-5.625-2.518-5.625-5.625s2.518-5.625 5.625-5.625h18.75c3.107 0 5.625 2.518 5.625 5.625zm-5.625-14.063c3.107 0 5.625-2.518 5.625-5.625s-2.518-5.625-5.625-5.625h-17.502c-1.334 3.514-2.59 7.067-3.765 10.656.757.38 1.612.594 2.517.594zm85.625 63.188c0 4.143-3.357 7.5-7.5 7.5h-80c-4.142 0-7.5-3.357-7.5-7.5s3.358-7.5 7.5-7.5h80c4.143 0 7.5 3.357 7.5 7.5zm-32.5 17.5h-55c-4.142 0-7.5 3.357-7.5 7.5s3.358 7.5 7.5 7.5h55c4.143 0 7.5-3.357 7.5-7.5s-3.357-7.5-7.5-7.5zm13.25 110.5c-3.408 0-6.737.231-9.954.672-5.519.756-10.891-2.174-13.378-7.158-5.824-11.674-14.49-19.076-24.167-19.076-10.384 0-19.603 8.522-25.396 21.698 7.741 15.097 17.004 29.286 27.585 42.364h95.176c.253-1.393.384-2.811.384-4.25 0-18.916-22.498-34.25-50.25-34.25zm50.75-39.937c-4.142 0-7.5 3.358-7.5 7.5s3.358 7.5 7.5 7.5 7.5-3.358 7.5-7.5c0-4.143-3.358-7.5-7.5-7.5zm0-110.563c-4.142 0-7.5 3.358-7.5 7.5s3.358 7.5 7.5 7.5 7.5-3.358 7.5-7.5-3.358-7.5-7.5-7.5z" fill="#c3a01a"/><path d="m390.5 280h-154c-8.284 0-15-6.716-15-15v-250c0-8.284 6.716-15 15-15h154c8.284 0 15 6.716 15 15v250c0 8.284-6.716 15-15 15z" fill="#76b6fa"/><path d="m390.5 280h-130c-8.284 0-15-6.716-15-15v-250c0-8.284 6.716-15 15-15h130c8.284 0 15 6.716 15 15v250c0 8.284-6.716 15-15 15z" fill="#a7d0fc"/><path d="m264.5 167.765c0-4.271 3.494-7.765 7.765-7.765h94.471c4.271 0 7.765 3.494 7.765 7.765s-3.494 7.765-7.765 7.765h-94.471c-4.271-.001-7.765-3.495-7.765-7.765zm102.235 20.706h-94.471c-4.271 0-7.765 3.494-7.765 7.765 0 4.271 3.494 7.765 7.765 7.765h94.471c4.271 0 7.765-3.494 7.765-7.765 0-4.271-3.494-7.765-7.765-7.765z" fill="#76b6fa"/><path d="m345.382 249.412h-51.765c-5.338 0-9.706-4.368-9.706-9.706 0-5.338 4.368-9.706 9.706-9.706h51.765c5.338 0 9.706 4.368 9.706 9.706 0 5.338-4.367 9.706-9.706 9.706zm-80.882-224.724c0-3.107-2.518-5.625-5.625-5.625h-18.75c-3.107 0-5.625 2.518-5.625 5.625 0 3.107 2.518 5.625 5.625 5.625h18.75c3.107 0 5.625-2.519 5.625-5.625zm-5.625 25.312h-18.75c-3.107 0-5.625-2.518-5.625-5.625 0-3.107 2.518-5.625 5.625-5.625h18.75c3.107 0 5.625 2.518 5.625 5.625 0 3.107-2.518 5.625-5.625 5.625zm13.125 35.294c0-26.234 21.266-47.5 47.5-47.5s47.5 21.266 47.5 47.5c0 15.529-7.452 29.317-18.976 37.984-1.023.769-56.026.769-57.049 0-11.523-8.667-18.975-22.455-18.975-37.984z" fill="#3493f8"/><path d="m348.025 115.206v8.072c-7.943 5.975-17.821 9.516-28.525 9.516-10.705 0-20.582-3.541-28.525-9.516v-8.072c0-10.503 8.514-19.017 19.017-19.017h19.017c10.502 0 19.016 8.514 19.016 19.017z" fill="#c8e2fd"/><path d="m302.86 70.041c0-9.19 7.45-16.64 16.64-16.64s16.64 7.45 16.64 16.64-7.45 16.64-16.64 16.64-16.64-7.45-16.64-16.64zm0 45.165c0 5.611 3.253 10.705 8.33 13.093 4.421 2.08 9.214 3.497 14.252 4.126 8.408-1.049 16.133-4.296 22.582-9.147v-8.072c0-10.503-8.514-19.017-19.017-19.017h-7.131c-10.502 0-19.016 8.514-19.016 19.017z" fill="#e9f3fe"/><path d="m336.14 70.041c0 7.096-4.442 13.155-10.697 15.547-6.255-2.392-10.697-8.451-10.697-15.547s4.442-13.155 10.697-15.547c6.255 2.392 10.697 8.451 10.697 15.547z" fill="#fff5f5"/></g></svg>