<svg id="Capa_1" enable-background="new 0 0 501 501" height="512" viewBox="0 0 501 501" width="512" xmlns="http://www.w3.org/2000/svg"><g><path d="m170.778 480.271c-92.594-34.356-158.776-123.081-159.767-227.396-1.283-135.105 109.878-247.375 244.989-247.375 119.916 0 219.709 86.152 240.864 199.937 1.794 9.65-5.617 18.563-15.433 18.563h-48.83c-134.537 0-243.601 109.064-243.601 243.602 0 9.416-9.394 15.945-18.222 12.669z" fill="#55a4f9"/><path d="m50 402.694h-30c-11.046 0-20-8.954-20-20v-246c0-11.046 8.954-20 20-20h30c11.046 0 20 8.954 20 20v246c0 11.045-8.954 20-20 20z" fill="#453d83"/><path d="m370 402.694h-321c-11.046 0-20-8.954-20-20v-246c0-11.046 8.954-20 20-20h321c11.046 0 20 8.954 20 20v246c0 11.045-8.954 20-20 20z" fill="#5f55af"/><path d="m390 136.694h-390v-20c0-11.046 8.954-20 20-20h350c11.046 0 20 8.954 20 20z" fill="#aba6d5"/><path d="m390 136.694h-361v-20c0-11.046 8.954-20 20-20h321c11.046 0 20 8.954 20 20z" fill="#c1bde0"/><path d="m390 116.694h-390v-40c0-11.046 8.954-20 20-20h350c11.046 0 20 8.954 20 20z" fill="#5f55af"/><path d="m390 116.694h-361v-40c0-11.046 8.954-20 20-20h321c11.046 0 20 8.954 20 20z" fill="#8078bf"/><path d="m39 86.694c0 5.523-4.477 10-10 10s-10-4.477-10-10 4.477-10 10-10 10 4.477 10 10zm30-10c-5.523 0-10 4.477-10 10s4.477 10 10 10 10-4.477 10-10-4.477-10-10-10zm40 0c-5.523 0-10 4.477-10 10s4.477 10 10 10 10-4.477 10-10-4.477-10-10-10z" fill="#453d83"/><path d="m100 210c0 5.523-4.477 10-10 10h-40c-5.523 0-10-4.477-10-10s4.477-10 10-10h40c5.523 0 10 4.477 10 10z" fill="#c1bde0"/><path d="m40 250c0-5.523 4.477-10 10-10h20c5.523 0 10 4.477 10 10s-4.477 10-10 10h-20c-5.523 0-10-4.477-10-10zm30 30h-20c-5.523 0-10 4.477-10 10s4.477 10 10 10h20c5.523 0 10-4.477 10-10s-4.477-10-10-10zm0 40h-20c-5.523 0-10 4.477-10 10s4.477 10 10 10h20c5.523 0 10-4.477 10-10s-4.477-10-10-10z" fill="#aba6d5"/><path d="m40 170c0-5.523 4.477-10 10-10h90c5.523 0 10 4.477 10 10s-4.477 10-10 10h-90c-5.523 0-10-4.477-10-10zm10 190c-5.523 0-10 4.477-10 10s4.477 10 10 10 10-4.477 10-10-4.477-10-10-10zm35 0c-5.523 0-10 4.477-10 10s4.477 10 10 10 10-4.477 10-10-4.477-10-10-10zm35 0c-5.523 0-10 4.477-10 10s4.477 10 10 10 10-4.477 10-10-4.477-10-10-10zm-20-110c0 5.523 4.477 10 10 10h90c5.523 0 10-4.477 10-10s-4.477-10-10-10h-90c-5.523 0-10 4.477-10 10zm10 30c-5.523 0-10 4.477-10 10s4.477 10 10 10h40c5.523 0 10-4.477 10-10s-4.477-10-10-10zm90 40h-90c-5.523 0-10 4.477-10 10s4.477 10 10 10h90c5.523 0 10-4.477 10-10s-4.477-10-10-10z" fill="#8078bf"/><path d="m201.358 489.383c-10.738-2.446-21.208-5.597-31.358-9.402v-195.481c0-11.046 8.954-20 20-20h25v213.986c0 7.165-6.656 12.488-13.642 10.897z" fill="#f5e8b4"/><path d="m500.606 264.5c-7.256 128.796-113.995 231-244.606 231-19.624 0-38.71-2.308-57-6.666v-204.334c0-11.046 8.954-20 20-20z" fill="#f9f1d2"/><path d="m260 284.5h-90v-20c0-11.046 8.954-20 20-20h50c11.046 0 20 8.954 20 20z" fill="#ff956a"/><path d="m498.66 284.5h-299.66v-20c0-11.046 8.954-20 20-20h281.928c.048 1.994.072 3.994.072 6 0 11.537-.798 22.888-2.34 34z" fill="#ffad8c"/><path d="m280 264.5h-110v-40c0-11.046 8.954-20 20-20h70c11.046 0 20 8.954 20 20z" fill="#ea552d"/><path d="m500.606 264.5h-301.606v-40c0-11.046 8.954-20 20-20h277.688c2.83 14.899 4.312 30.277 4.312 46 0 4.699-.132 9.367-.394 14z" fill="#f76937"/><path d="m209 234.5c0 5.523-4.477 10-10 10s-10-4.477-10-10 4.477-10 10-10 10 4.477 10 10zm70-10c-5.523 0-10 4.477-10 10s4.477 10 10 10 10-4.477 10-10-4.477-10-10-10zm-40 0c-5.523 0-10 4.477-10 10s4.477 10 10 10 10-4.477 10-10-4.477-10-10-10z" fill="#d1462a"/><path d="m345 454.5h-120c-8.284 0-15-6.716-15-15v-70c0-8.284 6.716-15 15-15h120c8.284 0 15 6.716 15 15v70c0 8.284-6.716 15-15 15z" fill="#ffad8c"/><path d="m477.895 354.5c-19.105 40.691-49.073 75.27-86.168 100h-61.727v-100z" fill="#ffc5ae"/><path d="m340 329.5h-80c-5.523 0-10-4.477-10-10 0-5.523 4.477-10 10-10h80c5.523 0 10 4.477 10 10 0 5.523-4.477 10-10 10z" fill="#ffad8c"/><path d="m410 384.5c0 5.523-4.477 10-10 10h-140c-5.523 0-10-4.477-10-10s4.477-10 10-10h140c5.523 0 10 4.477 10 10zm-70 30h-80c-5.523 0-10 4.477-10 10s4.477 10 10 10h80c5.523 0 10-4.477 10-10s-4.477-10-10-10z" fill="#f76937"/><path d="m361.5 479h-29.833c-8.284 0-15-6.716-15-15 0-8.284 6.716-15 15-15h29.833c8.284 0 15 6.716 15 15 0 8.284-6.716 15-15 15z" fill="#d1462a"/><path d="m225 334.5c-8.284 0-15-6.716-15-15 0-8.284 6.716-15 15-15 8.284 0 15 6.716 15 15 0 8.284-6.716 15-15 15zm156.667 144.5h-20c-8.284 0-15-6.716-15-15 0-8.284 6.716-15 15-15h20c8.284 0 15 6.716 15 15 0 8.284-6.716 15-15 15z" fill="#f76937"/></g></svg>