<svg id="Capa_1" enable-background="new 0 0 501 501" height="512" viewBox="0 0 501 501" width="512" xmlns="http://www.w3.org/2000/svg"><g><path d="m490 256c0 135.31-109.69 245-245 245-66.503 0-126.817-26.497-170.962-69.509-2.626-2.559 58.629-110.641 58.629-175.491s-61.255-172.932-58.628-175.491c44.144-43.012 104.458-69.509 170.961-69.509 135.31 0 245 109.69 245 245z" fill="#eac23f"/><path d="m501 110.509v290.982c0 16.569-13.431 30-30 30h-282c-.003 0-.006 0-.01 0h-114.951c-45.674-44.502-74.039-106.684-74.039-175.491s28.365-130.989 74.039-175.491h396.961c16.569 0 30 13.431 30 30z" fill="#8078bf"/><path d="m32.681 378.333h81.319v53.158h-39.961c-16.098-15.684-30.045-33.565-41.358-53.158z" fill="#6a61b4"/><path d="m501 110.509v261.491c0 16.569-13.431 30-30 30h-422.765c-30.305-40.775-48.235-91.293-48.235-146 0-68.807 28.365-130.989 74.039-175.491h396.961c16.569 0 30 13.431 30 30z" fill="#5f55af"/><path d="m114 402h-65.765c-30.305-40.775-48.235-91.293-48.235-146 0-68.807 28.365-130.989 74.039-175.491h39.961z" fill="#51489a"/><path d="m479 241.254c0 13.807-11.193 25-25 25s-25-11.193-25-25 11.193-25 25-25 25 11.193 25 25zm-15 41.667h-20c-8.284 0-15 6.716-15 15v47.079c0 8.284 6.716 15 15 15h20c8.284 0 15-6.716 15-15v-47.079c0-8.284-6.716-15-15-15zm0-162.921h-20c-8.284 0-15 6.716-15 15v49.588c0 8.284 6.716 15 15 15h20c8.284 0 15-6.716 15-15v-49.588c0-8.284-6.716-15-15-15z" fill="#453d83"/><path d="m411 120v272c0 5.523-4.477 10-10 10h-332c-5.523 0-10-4.477-10-10v-272c0-5.523 4.477-10 10-10h332c5.523 0 10 4.477 10 10z" fill="#c8e2fd"/><path d="m411 120v272c0 5.523-4.477 10-10 10h-310c-5.523 0-10-4.477-10-10v-272c0-5.523 4.477-10 10-10h310c5.523 0 10 4.477 10 10z" fill="#e9f3fe"/><path d="m296.5 356.508c0 4.142-3.358 7.5-7.5 7.5h-140c-31.706 0-57.5-25.794-57.5-57.5s25.794-57.5 57.5-57.5h70c23.435 0 42.5-19.065 42.5-42.5s-19.065-42.5-42.5-42.5h-70c-4.142 0-7.5-3.358-7.5-7.5s3.358-7.5 7.5-7.5h70c31.706 0 57.5 25.794 57.5 57.5s-25.794 57.5-57.5 57.5h-70c-23.435 0-42.5 19.065-42.5 42.5s19.065 42.5 42.5 42.5h140c4.142 0 7.5 3.358 7.5 7.5z" fill="#a7d0fc"/><path d="m178.75 156.493c0 11.046-8.954 20-20 20s-20-8.954-20-20 8.954-20 20-20 20 8.954 20 20zm-52.417 0c0 5.523-4.477 10-10 10s-10-4.477-10-10 4.477-10 10-10 10 4.477 10 10zm-35.333 0c0 5.523-4.477 10-10 10s-10-4.477-10-10 4.477-10 10-10 10 4.477 10 10zm208.5 199.015c0 11.046-8.954 20-20 20s-20-8.954-20-20 8.954-20 20-20 20 8.954 20 20z" fill="#55a4f9"/><path d="m178.75 156.492c0 2.483-.453 4.86-1.28 7.054-2.194.827-4.571 1.28-7.054 1.28-11.046 0-20-8.954-20-20 0-2.483.453-4.86 1.28-7.054 2.194-.827 4.571-1.28 7.054-1.28 11.046 0 20 8.955 20 20zm120.75 199.016c0 2.483-.453 4.86-1.28 7.054-2.194.827-4.571 1.28-7.054 1.28-11.046 0-20-8.954-20-20 0-2.483.453-4.86 1.28-7.054 2.194-.827 4.571-1.28 7.054-1.28 11.046 0 20 8.954 20 20z" fill="#76b6fa"/><path d="m364.5 54.857v226.413c0 11.979-2.69 23.805-7.872 34.605l-19.923 41.526c-1.089 2.27-4.321 2.27-5.41 0l-19.923-41.526c-5.182-10.8-7.872-22.626-7.872-34.605v-226.413z" fill="#f76937"/><path d="m364.5 40v170h-61v-170c0-11.046 8.954-20 20-20h21c11.046 0 20 8.954 20 20z" fill="#d1462a"/><path d="m339 270c-5.523 0-10-4.477-10-10v-50c0-5.523 4.477-10 10-10 5.523 0 10 4.477 10 10v50c0 5.523-4.477 10-10 10z" fill="#ff956a"/><path d="m329 210v-50c0-5.523 4.477-10 10-10s10 4.477 10 10v50z" fill="#ff7c48"/><path d="m349 15v100c0 8.284-6.716 15-15 15-8.284 0-15-6.716-15-15v-100c0-8.284 6.716-15 15-15 8.284 0 15 6.716 15 15z" fill="#f76937"/><path d="m331.295 357.402-11.688-24.362h28.787l-11.688 24.362c-1.09 2.269-4.322 2.269-5.411 0z" fill="#bc3f2a"/></g></svg>