<svg id="Capa_1" enable-background="new 0 0 501 501" height="512" viewBox="0 0 501 501" width="512" xmlns="http://www.w3.org/2000/svg"><g><path d="m5.5 256c0-135.155 109.44-244.75 244.537-245 134.479-.249 244.661 109.037 245.459 243.513.399 67.267-26.313 128.296-69.848 172.8-3.09 3.159-8.128 3.384-11.415.43-43.393-39.008-100.791-62.743-163.733-62.743-62.928 0-120.314 23.724-163.703 62.716-3.275 2.943-8.322 2.788-11.402-.359-43.239-44.179-69.895-104.655-69.895-171.357z" fill="#55a4f9"/><path d="m285.429 39.071c-3.905 3.905-10.237 3.905-14.142 0l-22-22c-3.905-3.905-3.905-10.237 0-14.142 3.905-3.905 10.237-3.905 14.142 0l22 22c3.905 3.905 3.905 10.237 0 14.142zm-24.427 10.426h-40c-5.523 0-10 4.477-10 10 0 5.523 4.477 10 10 10h40c5.523 0 10-4.477 10-10 0-5.522-4.477-10-10-10z" fill="#a7d0fc"/><path d="m435.5 212v26c0 6.627-5.373 12-12 12h-6c-6.627 0-12-5.373-12-12v-26c0-6.627 5.373-12 12-12h6c6.627 0 12 5.373 12 12zm-360.491-92v20.26c-5.432 1.147-9.509 5.967-9.509 11.74v56c0 5.773 4.077 10.594 9.509 11.74v207.221c9.155 9.396 19.058 18.059 29.614 25.894 5.536 4.109 13.386.214 13.386-6.68v-326.175c0-16.569 16.491-30 16.491-30h-29.491c-16.569 0-30 13.431-30 30z" fill="#453d83"/><path d="m365.102 465.028c-133.098 31.624-260.602-70.312-260.602-207.115v-137.913c0-16.569 13.431-30 30-30h261.491c16.569 0 30 13.431 30 30v306.961c-9.12 9.36-18.982 17.993-29.491 25.803-6.553 4.871-17.489 8.959-31.398 12.264z" fill="#5f55af"/><path d="m154.5 130v321.789c0 14.151-15.366 22.955-27.579 15.807-7.756-4.539-15.24-9.493-22.421-14.831v-322.765c0-5.523 4.477-10 10-10h30c5.523 0 10 4.477 10 10z" fill="#a7d0fc"/><path d="m396.5 130v322.765c-40.775 30.305-91.293 48.235-146 48.235-46.078 0-89.184-12.72-126-34.841v-336.159c0-5.523 4.477-10 10-10h252c5.523 0 10 4.477 10 10z" fill="#e9f3fe"/><path d="m360.261 40c52.887 0 95.761 42.874 95.761 95.761s-42.874 95.761-95.761 95.761-95.761-42.874-95.761-95.761 42.874-95.761 95.761-95.761z" fill="#eac23f"/><path d="m360.261 60c41.842 0 75.761 33.919 75.761 75.761s-33.919 75.761-75.761 75.761-75.761-33.92-75.761-75.761 33.919-75.761 75.761-75.761z" fill="#ff7c48"/><path d="m425.552 174.212c-13.179 22.33-37.486 37.309-65.291 37.309-41.841 0-75.761-33.919-75.761-75.761 0-27.806 14.98-52.113 37.309-65.291-6.652 11.272-10.469 24.416-10.469 38.452 0 41.842 33.919 75.761 75.761 75.761 14.035 0 27.18-3.817 38.451-10.47z" fill="#d1462a"/><path d="m254.5 160c0 5.523-4.477 10-10 10h-100c-5.523 0-10-4.477-10-10s4.477-10 10-10h100c5.523 0 10 4.477 10 10zm-110 50h50c5.523 0 10-4.477 10-10s-4.477-10-10-10h-50c-5.523 0-10 4.477-10 10s4.477 10 10 10zm85 45h-85c-5.523 0-10 4.477-10 10s4.477 10 10 10h85c5.523 0 10-4.477 10-10s-4.477-10-10-10zm-85 60h50c5.523 0 10-4.477 10-10s-4.477-10-10-10h-50c-5.523 0-10 4.477-10 10s4.477 10 10 10zm80 30h-80c-5.523 0-10 4.477-10 10s4.477 10 10 10h80c5.523 0 10-4.477 10-10s-4.477-10-10-10zm-30 40h-50c-5.523 0-10 4.477-10 10s4.477 10 10 10h50c5.523 0 10-4.477 10-10s-4.477-10-10-10z" fill="#76b6fa"/><path d="m374.5 270v30c0 11.046-8.954 20-20 20h-30c-11.046 0-20-8.954-20-20v-30c0-11.046 8.954-20 20-20h30c11.046 0 20 8.954 20 20zm-20 70h-30c-11.046 0-20 8.954-20 20v30c0 11.046 8.954 20 20 20h30c11.046 0 20-8.954 20-20v-30c0-11.046-8.954-20-20-20z" fill="#a7d0fc"/><path d="m289.125 501h-19.792c-11.046 0-20-8.954-20-20v-13.254c0-5.698 4.619-10.317 10.317-10.317h38.116c5.974 0 10.817 4.843 10.817 10.817v13.296c0 10.746-8.711 19.458-19.458 19.458z" fill="#d1462a"/><path d="m290.333 501c-11.046 0-20-8.954-20-20v-23.571h28.183c6.526 0 11.817 5.291 11.817 11.817v11.754c0 11.046-8.954 20-20 20z" fill="#ff7c48"/><path d="m292.905 238.961h-26.143c-9.626 0-17.429-7.803-17.429-17.429l16.107-33.571c4.453-.992 8.982-1.517 13.517-1.577 5.118-.068 23.573 52.577 13.948 52.577z" fill="#eac23f"/><path d="m292.905 238.961-19.071-17.429 2.141-37.637 18.254 4.068 16.106 33.569c-.002 9.626-7.805 17.429-17.43 17.429z" fill="#f1de96"/><path d="m282.538 163.599 11.688 24.362h-28.786l11.688-24.362c1.09-2.27 4.321-2.27 5.41 0z" fill="#453d83"/><path d="m310.333 466.143h-61v-244.611h61z" fill="#ea552d"/><path d="m273.583 466.143h-24.5v-244.611h24.5zm17.5-16.429c-4.142 0-7.5-3.358-7.5-7.5v-196.753c0-4.142 3.358-7.5 7.5-7.5 4.142 0 7.5 3.358 7.5 7.5v196.753c0 4.142-3.358 7.5-7.5 7.5z" fill="#bc3f2a"/><path d="m307.333 478.357h-55c-4.142 0-7.5-3.358-7.5-7.5 0-4.142 3.358-7.5 7.5-7.5h55c4.142 0 7.5 3.358 7.5 7.5 0 4.142-3.358 7.5-7.5 7.5z" fill="#ffb52d"/><path d="m307.333 478.357h-36c-4.142 0-7.5-3.358-7.5-7.5 0-4.142 3.358-7.5 7.5-7.5h36c4.142 0 7.5 3.358 7.5 7.5 0 4.142-3.358 7.5-7.5 7.5z" fill="#edd578"/><path d="m432.239 96.333-70.714 86.429c-1.889 2.309-4.711 3.654-7.694 3.667h-.045c-2.967 0-5.781-1.317-7.683-3.598l-39.286-47.143c-3.535-4.243-2.962-10.548 1.28-14.084 4.245-3.537 10.549-2.962 14.085 1.28l31.532 37.839 63.046-77.056c3.497-4.274 9.797-4.904 14.071-1.407 4.275 3.498 4.906 9.798 1.408 14.073z" fill="#fff5f5"/></g></svg>