<svg id="Capa_1" enable-background="new 0 0 512 512" height="512" viewBox="0 0 512 512" width="512" xmlns="http://www.w3.org/2000/svg"><g><path d="m11 256c0-135.31 109.69-245 245-245s245 109.69 245 245c0 112.443-75.749 207.194-179.001 236.007-.905.253-44.118-7.507-65.999-7.507s-65.096 7.76-66.002 7.507c-103.251-28.815-178.998-123.565-178.998-236.007z" fill="#f76937"/><path d="m322 220v272.007c-20.998 5.86-43.133 8.993-66 8.993s-45.002-3.133-66-8.993v-272.007c0-11.046 8.954-20 20-20h92c11.046 0 20 8.954 20 20z" fill="#76b6fa"/><path d="m432 436h-352c-11.046 0-20-8.954-20-20v-46c0-11.046 8.954-20 20-20h352c11.046 0 20 8.954 20 20v46c0 11.046-8.954 20-20 20z" fill="#3493f8"/><path d="m482 410h-452c-16.569 0-30-13.431-30-30v-290c0-16.569 13.431-30 30-30h452c16.569 0 30 13.431 30 30v290c0 16.569-13.431 30-30 30z" fill="#76b6fa"/><path d="m482 410h-422c-16.569 0-30-13.431-30-30v-290c0-16.569 13.431-30 30-30h422c16.569 0 30 13.431 30 30v290c0 16.569-13.431 30-30 30z" fill="#86befb"/><path d="m467 378.182h-422c-8.284 0-15-6.716-15-15v-256.364c0-8.284 6.716-15 15-15h422c8.284 0 15 6.716 15 15v256.364c0 8.284-6.716 15-15 15z" fill="#453d83"/><path d="m69.397 350c-3.178 0-5.463-3.088-4.506-6.118 10.948-34.678 43.371-59.82 81.668-59.82s70.72 25.142 81.668 59.82c.957 3.03-1.328 6.118-4.506 6.118z" fill="#e9f3fe"/><path d="m173.097 324.439c-7.592 10.835-17.039 17.636-22.422 16.533-2.875-4.683.291-15.885 7.883-26.72s17.039-17.636 22.422-16.533c2.875 4.683-.291 15.885-7.883 26.72z" fill="#453d83"/><path d="m164.383 350h-35.647c0-9.844 7.98-17.823 17.823-17.823s17.824 7.979 17.824 17.823z" fill="#a7d0fc"/><path d="m370.163 163.354c-12.206 12.206-31.995 12.206-44.2 0-12.206-12.206-12.206-31.995 0-44.2 12.206-12.206 31.995-12.206 44.2 0 12.206 12.206 12.206 31.995 0 44.2zm51.774-53.354c-17.261 0-31.254 13.993-31.254 31.254s13.993 31.254 31.254 31.254 31.254-13.993 31.254-31.254-13.993-31.254-31.254-31.254z" fill="#958fca"/><path d="m370.163 119.154c1.961 1.961 3.607 4.118 4.938 6.408l-42.729 42.73c-2.29-1.331-4.447-2.976-6.408-4.938-1.961-1.961-3.606-4.118-4.938-6.408l42.73-42.73c2.289 1.332 4.446 2.977 6.407 4.938zm51.774-9.154c-2.773 0-5.462.362-8.022 1.04v60.429c2.56.678 5.249 1.04 8.022 1.04 2.774 0 5.462-.362 8.022-1.04v-60.429c-2.56-.678-5.249-1.04-8.022-1.04z" fill="#6a61b4"/><path d="m260 290v50c0 5.523-4.477 10-10 10-5.523 0-10-4.477-10-10v-50c0-5.523 4.477-10 10-10 5.523 0 10 4.477 10 10zm20-10c-5.523 0-10 4.477-10 10v50c0 5.523 4.477 10 10 10 5.523 0 10-4.477 10-10v-50c0-5.523-4.477-10-10-10z" fill="#8078bf"/><path d="m260 290v10c0 5.523-4.477 10-10 10-5.523 0-10-4.477-10-10v-10c0-5.523 4.477-10 10-10 5.523 0 10 4.477 10 10zm20 30c-5.523 0-10 4.477-10 10v10c0 5.523 4.477 10 10 10 5.523 0 10-4.477 10-10v-10c0-5.523-4.477-10-10-10z" fill="#fff5f5"/><path d="m90 276.667c0 5.523-4.477 10-10 10s-10-4.477-10-10 4.477-10 10-10 10 4.477 10 10z" fill="#76b6fa"/><path d="m367.5 296.667v-10c0-5.523 4.477-10 10-10h15c5.523 0 10 4.477 10 10v10c0 5.523-4.477 10-10 10h-15c-5.523 0-10-4.477-10-10zm-22.5-20h-15c-5.523 0-10 4.477-10 10v10c0 5.523 4.477 10 10 10h15c5.523 0 10-4.477 10-10v-10c0-5.523-4.477-10-10-10zm95 0h-15c-5.523 0-10 4.477-10 10v10c0 5.523 4.477 10 10 10h15c5.523 0 10-4.477 10-10v-10c0-5.523-4.477-10-10-10zm-62.5-13.334h15c5.523 0 10-4.477 10-10v-10c0-5.523-4.477-10-10-10h-15c-5.523 0-10 4.477-10 10v10c0 5.523 4.477 10 10 10zm-32.5-30h-15c-5.523 0-10 4.477-10 10v10c0 5.523 4.477 10 10 10h15c5.523 0 10-4.477 10-10v-10c0-5.523-4.477-10-10-10zm95 0h-15c-5.523 0-10 4.477-10 10v10c0 5.523 4.477 10 10 10h15c5.523 0 10-4.477 10-10v-10c0-5.523-4.477-10-10-10zm-62.5-13.333h15c5.523 0 10-4.477 10-10v-10c0-5.523-4.477-10-10-10h-15c-5.523 0-10 4.477-10 10v10c0 5.523 4.477 10 10 10zm-32.5-30h-15c-5.523 0-10 4.477-10 10v10c0 5.523 4.477 10 10 10h15c5.523 0 10-4.477 10-10v-10c0-5.523-4.477-10-10-10zm95 0h-15c-5.523 0-10 4.477-10 10v10c0 5.523 4.477 10 10 10h15c5.523 0 10-4.477 10-10v-10c0-5.523-4.477-10-10-10zm-95 130h-15c-5.523 0-10 4.477-10 10v10c0 5.523 4.477 10 10 10h15c5.523 0 10-4.477 10-10v-10c0-5.523-4.477-10-10-10zm95 0h-60c-5.523 0-10 4.477-10 10v10c0 5.523 4.477 10 10 10h60c5.523 0 10-4.477 10-10v-10c0-5.523-4.477-10-10-10z" fill="#8078bf"/><path d="m280 250h-210c-5.523 0-10-4.477-10-10v-110c0-5.523 4.477-10 10-10h210c5.523 0 10 4.477 10 10v110c0 5.523-4.477 10-10 10z" fill="#a7d0fc"/><path d="m90 140c0 5.523-4.477 10-10 10s-10-4.477-10-10 4.477-10 10-10 10 4.477 10 10zm-10 20c-5.523 0-10 4.477-10 10s4.477 10 10 10 10-4.477 10-10-4.477-10-10-10zm190 60c-5.523 0-10 4.477-10 10s4.477 10 10 10 10-4.477 10-10-4.477-10-10-10z" fill="#e9f3fe"/><path d="m110 210 20-20v60h-20zm30 40h20v-70h-20zm30 0h20v-70h-20zm30 0h20v-70h-20zm30-90v90h20v-100z" fill="#76b6fa"/><path d="m255.624 149.699-14.896 16.882c-12.025 13.628-29.346 21.445-47.521 21.445h-28.518c-13.874 0-27.095 5.966-36.273 16.369l-22.791 25.83c-1.482 1.68-3.55 2.538-5.627 2.538-1.764 0-3.533-.618-4.959-1.876-3.106-2.74-3.402-7.48-.662-10.586l22.791-25.83c12.024-13.628 29.346-21.445 47.521-21.445h28.518c13.874 0 27.095-5.966 36.273-16.369l14.896-16.883c2.741-3.106 7.48-3.403 10.586-.661 3.106 2.741 3.402 7.48.662 10.586z" fill="#e9f3fe"/></g></svg>