<svg id="Capa_1" enable-background="new 0 0 501 501" height="512" viewBox="0 0 501 501" width="512" xmlns="http://www.w3.org/2000/svg"><g><path d="m501 250.499c0 97.532-57.463 182.046-140.272 221.424h-136.257c-10.201 0-18.471 8.27-18.471 18.471-86.974-18.035-157.065-82.176-183.572-165.723-3.698-11.656 4.892-23.564 17.121-23.564h267.058v-267.474c0-11.932 11.582-20.473 22.965-16.894 99.362 31.242 171.428 124.085 171.428 233.76z" fill="#453d83"/><path d="m330 324.5h-307.626c-7.388-23.348-11.374-48.208-11.374-74 0-135.31 109.69-245 245-245 25.792 0 50.652 3.986 74 11.374z" fill="#76b6fa"/><path d="m256 5.5c25.792 0 50.652 3.986 74 11.374v307.626h-215.642v-273.93c39.991-28.384 88.868-45.07 141.642-45.07z" fill="#a7d0fc"/><path d="m310 234.5v50c0 5.523-4.477 10-10 10h-150c-5.523 0-10-4.477-10-10v-50c0-5.523 4.477-10 10-10h150c5.523 0 10 4.477 10 10zm-10-210h-138.762c-7.264 3.049-14.35 6.439-21.238 10.148v49.852c0 5.523 4.477 10 10 10h150c5.523 0 10-4.477 10-10v-50c0-5.523-4.477-10-10-10z" fill="#76b6fa"/><path d="m65.5 272h-53.57c-.431-4.959-.714-9.961-.845-15h54.415c4.142 0 7.5 3.358 7.5 7.5s-3.358 7.5-7.5 7.5zm13.25 12.5h-65.409c.701 5.051 1.556 10.052 2.561 15h62.848c4.142 0 7.5-3.358 7.5-7.5s-3.358-7.5-7.5-7.5zm6.417-55.75h-73.215c-.436 4.959-.725 9.961-.861 15h74.075c4.142 0 7.5-3.358 7.5-7.5s-3.357-7.5-7.499-7.5z" fill="#3493f8"/><path d="m335 204.5h-270c-35.898 0-65-29.101-65-65v-20c0-35.898 29.101-65 65-65h270c35.898 0 65 29.101 65 65v20c0 35.899-29.101 65-65 65z" fill="#d1462a"/><path d="m335 184.5h-270c-35.898 0-65-29.101-65-65 0-35.898 29.101-65 65-65h270c35.898 0 65 29.101 65 65 0 35.899-29.101 65-65 65z" fill="#ff7c48"/><path d="m355 102c0 5.523-4.477 10-10 10h-290c-5.523 0-10-4.477-10-10s4.477-10 10-10h290c5.523 0 10 4.477 10 10zm-45 25h-220c-5.523 0-10 4.477-10 10s4.477 10 10 10h220c5.523 0 10-4.477 10-10s-4.477-10-10-10z" fill="#d1462a"/><path d="m386 244.5v65.014c0 22.893-6.222 45.355-18 64.986-11.778 19.63-18 42.093-18 64.986v18.264h-134v-24.156c0-17.067-3.458-33.867-10.069-49.418-.124-.167-1.874-1.927-4.473-4.513-16.733-16.654-28.913-37.329-35.361-60.039-2.854-10.05-6.841-19.743-11.885-28.892l-26.967-48.912c-2.66-4.825-.918-10.907 3.905-13.572 14.513-8.019 32.776-2.744 40.78 11.774l34.177 61.99c2.625 4.761 8.429 7.029 13.436 4.913 3.99-1.687 6.457-5.542 6.457-9.708v-162.238c0-10.845 8.433-20.081 19.271-20.466 11.378-.405 20.729 8.699 20.729 19.987v100.417s.759 3.328 2.108.637c3.283-6.555 10.062-11.054 17.892-11.054 8.072 0 15.028 4.782 18.187 11.668.715 1.558 2.911 1.558 3.626 0 3.16-6.886 10.115-11.668 18.187-11.668 8.072 0 15.028 4.782 18.187 11.668.715 1.558 2.911 1.558 3.626 0 3.16-6.886 10.115-11.668 18.187-11.668 11.046 0 20 8.954 20 20z" fill="#ffbeaa"/><path d="m350 446.125v11.625h-134v-24.156c0-14.742-2.58-29.284-7.543-42.994-1.479-4.086-3.841-7.794-6.921-10.86-.026-.026-.052-.051-.078-.077-16.733-16.654-28.913-37.329-35.361-60.039-2.854-10.05-6.841-19.743-11.885-28.892l-26.967-48.912c-2.613-4.738-1.036-10.789 3.678-13.445 4.375-2.466 9.099-3.715 13.785-3.86-.164 1.907.215 3.881 1.208 5.68l26.967 48.912c5.044 9.149 9.031 18.842 11.885 28.892 6.448 22.71 18.629 43.386 35.361 60.039.026.026.052.052.078.077 3.08 3.066 5.442 6.774 6.921 10.86 4.963 13.71 7.543 28.252 7.543 42.994v24.156zm-109.639-146.78c2.709-1.981 4.31-5.136 4.31-8.492v-167.499c0-3.142.708-6.148 1.977-8.844-.455-.014-.914-.014-1.376.002-10.839.386-19.272 9.623-19.272 20.467v162.532c3.458 4.247 9.765 5.195 14.361 1.834zm44.304-74.8c-7.26.479-13.462 4.83-16.557 11.009-1.349 2.692-2.108-.637-2.108-.637l-.006 57.123c0 5.156 4.18 9.335 9.335 9.335 5.156 0 9.335-4.18 9.335-9.335v-67.495zm39.625.028c-7.335.621-13.543 5.201-16.477 11.595-.42.916-1.352 1.293-2.194 1.132v54.74c0 5.156 4.18 9.335 9.335 9.335 5.156 0 9.335-4.18 9.335-9.335v-67.467zm40 0c-7.335.621-13.543 5.201-16.477 11.595-.42.916-1.352 1.293-2.194 1.132v54.74c0 5.156 4.18 9.335 9.335 9.335 5.156 0 9.335-4.18 9.335-9.335v-67.467z" fill="#faa68e"/><path d="m246.148 114.5c-5.523 0-10 4.477-10 10v10c0 5.523 4.477 10 10 10s10-4.477 10-10v-10c0-5.523-4.477-10-10-10z" fill="#ffeee5"/><path d="m351 464.5h-135c-5.523 0-10-4.477-10-10v-20c0-5.523 4.477-10 10-10h135c5.523 0 10 4.477 10 10v20c0 5.523-4.477 10-10 10z" fill="#f5e8b4"/><path d="m351 464.5h-106.33c-5.523 0-10-4.477-10-10v-30h116.33c5.523 0 10 4.477 10 10v20c0 5.523-4.477 10-10 10z" fill="#fff5f5"/><path d="m206 454.5h155v17.423c-31.824 15.118-67.424 23.577-105 23.577-17.134 0-33.858-1.759-50-5.106z" fill="#eac23f"/><path d="m234.67 494.584c-9.73-.839-19.298-2.247-28.67-4.19v-35.894h28.67z" fill="#e1b91e"/><path d="m191.716 144.5c0 5.523-4.477 10-10 10h-20c-5.523 0-10-4.477-10-10s4.477-10 10-10h20c5.523 0 10 4.477 10 10zm-12.929-67.071c-3.905-3.905-10.237-3.905-14.142 0-3.905 3.905-3.905 10.237 0 14.142l28.284 28.284c3.905 3.905 10.237 3.905 14.142 0s3.905-10.237 0-14.142zm141.213 57.071h-20c-5.523 0-10 4.477-10 10s4.477 10 10 10h20c5.523 0 10-4.477 10-10s-4.477-10-10-10zm-2.929-57.071c-3.905-3.905-10.237-3.905-14.142 0l-28.284 28.284c-3.905 3.905-3.905 10.237 0 14.142s10.237 3.905 14.142 0l28.284-28.284c3.905-3.905 3.905-10.237 0-14.142z" fill="#fff5f5"/></g></svg>