<svg id="Capa_1" enable-background="new 0 0 501 501" height="512" viewBox="0 0 501 501" width="512" xmlns="http://www.w3.org/2000/svg"><g><path d="m501 250.5c0 135.31-109.69 245-245 245s-245-109.69-245-245 109.69-245 245-245 245 109.69 245 245z" fill="#e1b91e"/><path d="m461 250.5c0 113.218-91.782 205-205 205s-205-91.782-205-205 91.782-205 205-205 205 91.782 205 205z" fill="#51489a"/><path d="m286.625 453.228c-9.991 1.497-20.217 2.272-30.625 2.272-113.218 0-205-91.782-205-205s91.782-205 205-205c10.408 0 20.634.775 30.625 2.272-98.692 14.784-174.375 99.917-174.375 202.728s75.683 187.944 174.375 202.728z" fill="#453d83"/><path d="m256 43c-114.416 0-207.5 93.084-207.5 207.5s93.084 207.5 207.5 207.5 207.5-93.084 207.5-207.5-93.084-207.5-207.5-207.5zm192.356 200h-78.927c-.402-21.057-2.493-41.574-6.152-61h72.632c7.286 19.074 11.622 39.595 12.447 61zm-58.814-131.02c16.338 15.756 29.905 34.366 39.889 55.02h-69.343c-4.737-19.94-11.198-38.493-19.239-55h46.151c.772 0 2.434-.125 2.542-.02zm-225.944 205.02c-3.573-18.731-5.621-38.581-6.024-59h196.852c-.403 20.419-2.452 40.269-6.024 59zm181.559 15c-4.897 20.165-11.65 38.752-20.091 55h-138.131c-8.441-16.248-15.194-34.835-20.091-55zm-187.583-89c.418-21.147 2.6-41.685 6.412-61h184.027c3.813 19.315 5.995 39.853 6.412 61zm9.762-76c5-19.977 11.833-38.364 20.337-54.409.105-.198.21-.394.315-.591h136.023c.105.197.21.393.315.591 8.504 16.045 15.338 34.433 20.337 54.409zm204.706-70h-39.278c-7.688-12.892-16.219-23.625-25.38-32.037 23.691 6.569 45.561 17.565 64.658 32.037zm-116.042-39c21.36 0 41.916 13.708 59.01 39h-118.02c17.094-25.291 37.65-39 59.01-39zm-51.384 6.963c-9.16 8.412-17.691 19.146-25.38 32.037h-39.278c19.097-14.472 40.967-25.468 64.658-32.037zm-82.179 47.037c.115-.111 1.791 0 2.563 0h46.151c-8.041 16.507-14.502 35.06-19.239 55h-69.343c9.98-20.645 23.54-39.248 39.868-55zm-46.345 70h72.632c-3.659 19.426-5.75 39.943-6.152 61h-78.928c.824-21.405 5.161-41.926 12.448-61zm-12.448 76h78.927c.388 20.335 2.352 40.168 5.781 59h-73.011c-6.834-18.506-10.901-38.341-11.697-59zm56.693 128.944c-15.911-15.821-29.079-34.397-38.721-54.944h69.827c4.59 19.896 10.886 38.443 18.746 55h-47.689c-.646 0-2.065.041-2.163-.056zm17.029 15.056h40.694c7.991 13.785 16.926 25.194 26.556 34.037-24.771-6.868-47.55-18.576-67.25-34.037zm118.634 41c-21.917 0-42.986-14.432-60.339-41h120.678c-17.353 26.568-38.422 41-60.339 41zm51.384-6.963c9.63-8.843 18.565-20.252 26.556-34.037h40.694c-19.7 15.461-42.479 27.169-67.25 34.037zm83.986-48.802c-.598-.153-1.224-.235-1.87-.235h-47.689c7.86-16.557 14.156-35.104 18.746-55h69.827c-9.701 20.673-22.972 39.351-39.014 55.235zm45.289-70.235h-73.012c3.43-18.832 5.393-38.665 5.781-59h78.927c-.795 20.659-4.862 40.494-11.696 59z" fill="#8078bf"/><path d="m350.167 402.009h-188.334c-4.142 0-7.5-3.358-7.5-7.5 0-4.142 3.358-7.5 7.5-7.5h188.333c4.142 0 7.5 3.358 7.5 7.5.001 4.142-3.357 7.5-7.499 7.5z" fill="#c1bde0"/><path d="m454 242.25v30c0 4.143-3.358 7.5-7.5 7.5s-7.5-3.357-7.5-7.5v-30c0-17.921-14.58-32.5-32.5-32.5h-143v78.5h20.365c4.142 0 7.5 3.357 7.5 7.5s-3.358 7.5-7.5 7.5h-20.365v83.004h-15v-83.004h-144.635c-26.191 0-47.5-21.309-47.5-47.5v-30c0-4.143 3.358-7.5 7.5-7.5s7.5 3.357 7.5 7.5v30c0 17.921 14.58 32.5 32.5 32.5h144.635v-78.5h-22c-4.142 0-7.5-3.357-7.5-7.5s3.358-7.5 7.5-7.5h180c26.191 0 47.5 21.309 47.5 47.5zm-224.516-116.303c-2.929 2.929-2.929 7.678 0 10.606 2.929 2.929 7.678 2.929 10.606 0 8.772-8.772 23.047-8.773 31.82 0 1.464 1.464 3.384 2.197 5.303 2.197s3.839-.732 5.303-2.197c2.929-2.929 2.929-7.678 0-10.606-14.621-14.621-38.411-14.622-53.032 0zm-9.394-9.394c19.8-19.801 52.018-19.802 71.82 0 1.464 1.464 3.384 2.197 5.303 2.197s3.839-.732 5.303-2.197c2.929-2.929 2.929-7.678 0-10.606-25.649-25.649-67.383-25.649-93.033 0-2.929 2.929-2.929 7.678 0 10.606 2.929 2.929 7.678 2.929 10.607 0zm69.66 270.455h-67.5c-4.142 0-7.5 3.358-7.5 7.5s3.358 7.5 7.5 7.5h67.5c4.142 0 7.5-3.358 7.5-7.5s-3.358-7.5-7.5-7.5z" fill="#fff5f5"/><path d="m501 266.25v130c0 5.523-4.477 10-10 10h-86.224c-5.523 0-10-4.477-10-10v-130c0-5.523 4.477-10 10-10h86.224c5.523 0 10 4.477 10 10z" fill="#55a4f9"/><path d="m501 266.25v130c0 5.523-4.477 10-10 10h-61c-5.523 0-10-4.477-10-10v-130c0-5.523 4.477-10 10-10h61c5.523 0 10 4.477 10 10z" fill="#86befb"/><path d="m479.033 286.136v90.229c0 2.762-2.239 5-5 5h-52.29c-2.761 0-5-2.238-5-5v-90.229c0-2.762 2.239-5 5-5h52.29c2.761 0 5 2.238 5 5z" fill="#489160"/><path d="m479.033 286.136v90.229c0 2.762-2.239 5-5 5h-30.79v-100.229h30.79c2.761 0 5 2.238 5 5z" fill="#54a770"/><path d="m130 125.75v72.061c0 5.523-4.477 10-10 10h-35.153v36.794h-39.694v-36.794h-35.153c-5.523 0-10-4.477-10-10v-72.061c0-5.523 4.477-10 10-10h110c5.523 0 10 4.477 10 10z" fill="#76b6fa"/><path d="m120 207.811h-95.115c-5.523 0-10-4.477-10-10v-72.061c0-5.523 4.477-10 10-10h95.115c5.523 0 10 4.477 10 10v72.061c0 5.523-4.477 10-10 10z" fill="#86befb"/><path d="m110.115 192.926h-90.23c-2.761 0-5-2.239-5-5v-52.29c0-2.761 2.239-5 5-5h90.229c2.761 0 5 2.239 5 5v52.29c.001 2.761-2.238 5-4.999 5z" fill="#489160"/><path d="m110.115 192.926h-61.615v-62.29h61.615c2.761 0 5 2.239 5 5v52.29c0 2.761-2.239 5-5 5z" fill="#54a770"/><path d="m99.688 252.105h-69.376c-5.695 0-10.312-4.617-10.312-10.312 0-5.695 4.617-10.312 10.312-10.312h69.375c5.695 0 10.312 4.617 10.312 10.312.001 5.695-4.616 10.312-10.311 10.312zm30.312-54.294v-12.595h-130v12.595c0 5.523 4.477 10 10 10h110c5.523 0 10-4.477 10-10z" fill="#a7d0fc"/><path d="m130 185.216v12.595c0 5.523-4.477 10-10 10h-95.115c-5.523 0-10-4.477-10-10v-12.595z" fill="#c8e2fd"/><path d="m75 255.75c0 8.284-6.716 15-15 15s-15-6.716-15-15 6.716-15 15-15 15 6.716 15 15zm181 122.504c-8.284 0-15 6.716-15 15s6.716 15 15 15 15-6.716 15-15-6.716-15-15-15zm191.888-137.004c-8.284 0-15 6.716-15 15s6.716 15 15 15 15-6.716 15-15-6.716-15-15-15z" fill="#c8e2fd"/><path d="m336 220.5v60c0 8.284-6.716 15-15 15h-130c-8.284 0-15-6.716-15-15v-60c0-8.284 6.716-15 15-15h130c8.284 0 15 6.716 15 15z" fill="#3493f8"/><path d="m341 245.5h-170c-8.284 0-15-6.716-15-15v-60c0-8.284 6.716-15 15-15h170c8.284 0 15 6.716 15 15v60c0 8.284-6.716 15-15 15zm15 85v-60c0-8.284-6.716-15-15-15h-170c-8.284 0-15 6.716-15 15v60c0 8.284 6.716 15 15 15h170c8.284 0 15-6.716 15-15z" fill="#55a4f9"/><path d="m341 245.5h-150c-8.284 0-15-6.716-15-15v-60c0-8.284 6.716-15 15-15h150c8.284 0 15 6.716 15 15v60c0 8.284-6.716 15-15 15zm15 85v-60c0-8.284-6.716-15-15-15h-150c-8.284 0-15 6.716-15 15v60c0 8.284 6.716 15 15 15h150c8.284 0 15-6.716 15-15z" fill="#86befb"/><path d="m233.5 225.5c-4.142 0-7.5-3.358-7.5-7.5v-35c0-4.142 3.358-7.5 7.5-7.5 4.142 0 7.5 3.358 7.5 7.5v35c0 4.142-3.358 7.5-7.5 7.5zm92.5-50c-5.523 0-10 4.477-10 10s4.477 10 10 10 10-4.477 10-10-4.477-10-10-10zm-30 30c-5.523 0-10 4.477-10 10s4.477 10 10 10 10-4.477 10-10-4.477-10-10-10zm-81.25 112.5v-35c0-4.142-3.358-7.5-7.5-7.5-4.142 0-7.5 3.358-7.5 7.5v35c0 4.142 3.358 7.5 7.5 7.5 4.142 0 7.5-3.358 7.5-7.5zm111.25-42.5c-5.523 0-10 4.477-10 10s4.477 10 10 10 10-4.477 10-10-4.477-10-10-10zm-30 0c-5.523 0-10 4.477-10 10s4.477 10 10 10 10-4.477 10-10-4.477-10-10-10z" fill="#fff5f5"/><path d="m181 225.5c-4.142 0-7.5-3.358-7.5-7.5v-35c0-4.142 3.358-7.5 7.5-7.5 4.142 0 7.5 3.358 7.5 7.5v35c0 4.142-3.358 7.5-7.5 7.5zm33.75-7.5v-35c0-4.142-3.358-7.5-7.5-7.5-4.142 0-7.5 3.358-7.5 7.5v35c0 4.142 3.358 7.5 7.5 7.5 4.142 0 7.5-3.358 7.5-7.5zm111.25-12.5c-5.523 0-10 4.477-10 10s4.477 10 10 10 10-4.477 10-10-4.477-10-10-10zm-30-30c-5.523 0-10 4.477-10 10s4.477 10 10 10 10-4.477 10-10-4.477-10-10-10zm-107.5 142.5v-35c0-4.142-3.358-7.5-7.5-7.5-4.142 0-7.5 3.358-7.5 7.5v35c0 4.142 3.358 7.5 7.5 7.5 4.142 0 7.5-3.358 7.5-7.5zm52.5 0v-35c0-4.142-3.358-7.5-7.5-7.5-4.142 0-7.5 3.358-7.5 7.5v35c0 4.142 3.358 7.5 7.5 7.5 4.142 0 7.5-3.358 7.5-7.5zm85-12.5c-5.523 0-10 4.477-10 10s4.477 10 10 10 10-4.477 10-10-4.477-10-10-10zm-30 0c-5.523 0-10 4.477-10 10s4.477 10 10 10 10-4.477 10-10-4.477-10-10-10z" fill="#c8e2fd"/></g></svg>