<svg id="Capa_1" enable-background="new 0 0 501 501" height="512" viewBox="0 0 501 501" width="512" xmlns="http://www.w3.org/2000/svg"><g><path d="m495.496 257.397c-.52 93.159-53.034 174.003-129.996 214.99-28.249-44.059-76.986-70.705-129.323-70.705h-182.677c-30.162-40.718-48-91.117-48-145.682 0-135.309 109.69-245 244.999-245 135.522 0 245.754 110.878 244.997 246.397z" fill="#eac23f"/><path d="m374.5 122v26c0 6.627-5.373 12-12 12h-6c-6.627 0-12-5.373-12-12v-26c0-6.627 5.373-12 12-12h6c6.627 0 12 5.373 12 12zm-12-72h-6c-6.627 0-12 5.373-12 12v26c0 6.627 5.373 12 12 12h6c6.627 0 12-5.373 12-12v-26c0-6.627-5.373-12-12-12zm-249-50h-30c-16.569 0-30 13.432-30 30v20.378c-5.176 1.332-9 6.03-9 11.622v56c0 5.591 3.824 10.29 9 11.622v272.061c11.873 16.029 25.656 30.558 41.013 43.251 19.502 16.12 48.987 2.076 48.987-23.225v-391.709c0-16.568-13.431-30-30-30z" fill="#453d83"/><path d="m365.5 30v442.388c-34.292 18.262-73.437 28.612-115 28.612-43.311 0-83.996-11.238-119.3-30.958-23.421-13.082-37.7-38.047-37.7-64.874v-375.168c0-16.569 13.431-30 30-30h212c16.569 0 30 13.431 30 30z" fill="#51489a"/><path d="m325.5 50v410c0 5.523-4.477 10-10 10h-184.376c-13.363-7.47-25.954-16.156-37.624-25.907v-394.093c0-5.523 4.477-10 10-10h212c5.523 0 10 4.477 10 10z" fill="#c8e2fd"/><path d="m315.5 470h-182c-5.523 0-10-4.477-10-10v-410c0-5.523 4.477-10 10-10h182c5.523 0 10 4.477 10 10v410c0 5.523-4.477 10-10 10z" fill="#e9f3fe"/><path d="m249.25 50h-79.5c-8.975 0-16.25-7.275-16.25-16.25 0-8.975 7.275-16.25 16.25-16.25h79.5c8.975 0 16.25 7.275 16.25 16.25 0 8.975-7.275 16.25-16.25 16.25z" fill="#51489a"/><path d="m189.5 25c0 4.142-3.358 7.5-7.5 7.5s-7.5-3.358-7.5-7.5 3.358-7.5 7.5-7.5 7.5 3.358 7.5 7.5zm47.5-7.5h-30c-4.142 0-7.5 3.358-7.5 7.5s3.358 7.5 7.5 7.5h30c4.142 0 7.5-3.358 7.5-7.5s-3.358-7.5-7.5-7.5z" fill="#19305c"/><path d="m159.5 450c-5.523 0-10-4.477-10-10 0-5.523 4.477-10 10-10 5.523 0 10 4.477 10 10 0 5.523-4.477 10-10 10zm45-10c0-5.523-4.477-10-10-10-5.523 0-10 4.477-10 10 0 5.523 4.477 10 10 10 5.523 0 10-4.477 10-10zm35 0c0-5.523-4.477-10-10-10-5.523 0-10 4.477-10 10 0 5.523 4.477 10 10 10 5.523 0 10-4.477 10-10zm-40-260v-100c0-5.523-4.477-10-10-10h-70c-5.523 0-10 4.477-10 10v100c0 5.523 4.477 10 10 10h70c5.523 0 10-4.477 10-10zm0 140v-100c0-5.523-4.477-10-10-10h-70c-5.523 0-10 4.477-10 10v100c0 5.523 4.477 10 10 10h70c5.523 0 10-4.477 10-10zm80 80v-40c0-5.523-4.477-10-10-10h-150c-5.523 0-10 4.477-10 10v40c0 5.523 4.477 10 10 10h150c5.523 0 10-4.477 10-10zm30-250v-70c0-5.523-4.477-10-10-10h-70c-5.523 0-10 4.477-10 10v70c0 5.523 4.477 10 10 10h70c5.523 0 10-4.477 10-10z" fill="#a7d0fc"/><path d="m260.929 100.714c0 5.917-4.797 10.714-10.714 10.714s-10.714-4.797-10.714-10.714c0-5.917 4.797-10.714 10.714-10.714s10.714 4.797 10.714 10.714zm17.857-10.714c-5.917 0-10.714 4.797-10.714 10.714 0 5.917 4.797 10.714 10.714 10.714s10.714-4.797 10.714-10.714c0-5.917-4.797-10.714-10.714-10.714zm-28.572 28.571c-5.917 0-10.714 4.797-10.714 10.714s4.797 10.715 10.714 10.715 10.714-4.797 10.714-10.714-4.796-10.715-10.714-10.715zm28.572 0c-5.917 0-10.714 4.797-10.714 10.714s4.796 10.715 10.714 10.715 10.714-4.797 10.714-10.714-4.797-10.715-10.714-10.715zm-144.286 202.143c5.917 0 10.714-4.797 10.714-10.714 0-5.917-4.797-10.714-10.714-10.714s-10.714 4.797-10.714 10.714c0 5.917 4.797 10.714 10.714 10.714zm28.571 0c5.917 0 10.714-4.797 10.714-10.714 0-5.917-4.797-10.714-10.714-10.714-5.917 0-10.714 4.797-10.714 10.714 0 5.917 4.797 10.714 10.714 10.714zm-33.571-199.464h50c2.761 0 5-2.239 5-5v-30c0-2.761-2.239-5-5-5h-50c-2.761 0-5 2.239-5 5v30c0 2.761 2.239 5 5 5zm2.5 30h45c4.142 0 7.5-3.358 7.5-7.5s-3.358-7.5-7.5-7.5h-45c-4.142 0-7.5 3.358-7.5 7.5s3.358 7.5 7.5 7.5zm0 27.5h35c4.142 0 7.5-3.358 7.5-7.5s-3.358-7.5-7.5-7.5h-35c-4.142 0-7.5 3.358-7.5 7.5s3.358 7.5 7.5 7.5zm-7.5 187.5c0 4.142 3.358 7.5 7.5 7.5h45c4.142 0 7.5-3.358 7.5-7.5s-3.358-7.5-7.5-7.5h-45c-4.142 0-7.5 3.358-7.5 7.5zm62.5 20h-55c-4.142 0-7.5 3.358-7.5 7.5s3.358 7.5 7.5 7.5h55c4.142 0 7.5-3.358 7.5-7.5s-3.358-7.5-7.5-7.5zm-57.5-96.25h50c2.761 0 5-2.239 5-5v-58.75c0-2.761-2.239-5-5-5h-50c-2.761 0-5 2.239-5 5v58.75c0 2.761 2.239 5 5 5z" fill="#76b6fa"/><path d="m443.695 290c0 70.8-57.395 128.195-128.195 128.195s-128.195-57.395-128.195-128.195 57.395-128.195 128.195-128.195 128.195 57.395 128.195 128.195z" fill="#ffc5ae"/><path d="m404.476 290c0 49.14-39.836 88.976-88.976 88.976s-88.976-39.836-88.976-88.976 39.836-88.976 88.976-88.976 88.976 39.836 88.976 88.976z" fill="#1380e2"/><path d="m383 290c0 37.279-30.221 67.5-67.5 67.5s-67.5-30.221-67.5-67.5 30.221-67.5 67.5-67.5 67.5 30.221 67.5 67.5z" fill="#55a4f9"/><path d="m356.036 332.507v11.471c-11.288 8.49-25.324 13.522-40.536 13.522s-29.248-5.032-40.536-13.523v-11.471c0-14.925 12.099-27.024 27.024-27.024h27.024c14.925 0 27.024 12.1 27.024 27.025z" fill="#c8e2fd"/><path d="m291.854 268.325c0-13.059 10.587-23.646 23.646-23.646s23.646 10.587 23.646 23.646-10.587 23.645-23.646 23.645-23.646-10.586-23.646-23.645zm0 64.181c0 7.974 4.623 15.212 11.838 18.607 6.282 2.955 13.093 4.97 20.253 5.864 11.948-1.491 22.926-6.105 32.091-12.999v-11.471c0-14.925-12.099-27.024-27.024-27.024h-10.134c-14.925-.001-27.024 12.099-27.024 27.023z" fill="#e9f3fe"/><path d="m339.146 268.325c0 10.084-6.312 18.693-15.201 22.093-8.889-3.4-15.201-12.009-15.201-22.093s6.312-18.693 15.201-22.093c8.889 3.399 15.201 12.009 15.201 22.093z" fill="#fff5f5"/><path d="m302.329 456.457v-22.504c-69.217-6.281-124.502-61.565-130.783-130.782h-22.504c-7.092 0-13.194-5.45-13.528-12.534-.356-7.564 5.671-13.808 13.156-13.808h22.876c3.565-39.292 22.923-74.095 51.656-97.992 5.11-4.25 12.639-3.847 17.339.853l.344.344c5.415 5.415 4.9 14.254-.982 19.159-22.846 19.051-38.419 46.542-41.881 77.637h2.959c7.092 0 13.194 5.45 13.528 12.534.356 7.564-5.671 13.808-13.156 13.808h-3.331c6.089 54.679 49.628 98.218 104.307 104.307v-7.406c0-7.092 5.45-13.194 12.534-13.528 7.563-.356 13.807 5.671 13.807 13.155v7.778c31.094-3.463 58.586-19.035 77.637-41.881 4.905-5.882 13.744-6.397 19.159-.982l.344.344c4.7 4.7 5.104 12.229.853 17.339-23.897 28.733-58.7 48.09-97.992 51.655v22.876c0 7.485-6.244 13.512-13.807 13.156-7.085-.334-12.535-6.436-12.535-13.528z" fill="#ea552d"/><path d="m495.485 289.363c.356 7.564-5.671 13.808-13.156 13.808h-22.876c-2.978 32.821-16.975 62.509-38.25 85.326-5.076 5.444-13.666 5.575-18.929.312-5.028-5.028-5.126-13.115-.28-18.319 16.848-18.093 28.104-41.46 30.984-67.319h-3.331c-7.485 0-13.512-6.244-13.156-13.808.334-7.084 6.436-12.534 13.528-12.534h2.959c-6.089-54.679-49.628-98.218-104.307-104.307v7.666c0 7.485-6.244 13.512-13.807 13.155-7.084-.334-12.534-6.436-12.534-13.528v-7.293c-25.859 2.88-49.226 14.135-67.319 30.984-5.204 4.846-13.29 4.748-18.319-.28-5.263-5.263-5.132-13.853.312-18.929 22.817-21.275 52.505-35.272 85.326-38.25v-22.876c0-7.485 6.244-13.512 13.807-13.156 7.084.334 12.534 6.436 12.534 13.528v22.504c69.217 6.281 124.502 61.565 130.783 130.782h22.504c7.091 0 13.193 5.45 13.527 12.534z" fill="#f76937"/></g></svg>