<svg id="Capa_1" enable-background="new 0 0 501 501" height="512" viewBox="0 0 501 501" width="512" xmlns="http://www.w3.org/2000/svg"><g><path d="m354.335 474.967c-30.848 13.533-65.018 20.894-100.948 20.52-134.68-1.405-242.387-110.3-242.387-244.987 0-134.067 107.684-242.982 241.277-244.972 135.704-2.022 247.903 107.748 248.718 243.466.343 56.982-18.769 109.489-51.083 151.267h-20.872c-41.258 0-74.705 33.447-74.705 74.706z" fill="#eac23f"/><path d="m500.75 261.65c-2.333 52.089-20.931 99.945-50.837 138.611h-20.872c-41.259 0-74.706 33.447-74.706 74.706-30.847 13.533-65.018 20.894-100.948 20.52-130.942-1.366-236.389-104.34-242.14-233.837z" fill="#e1b91e"/><path d="m50 412.5h-30c-11.046 0-20-8.954-20-20v-246c0-11.046 8.954-20 20-20h30c11.046 0 20 8.954 20 20v246c0 11.046-8.954 20-20 20z" fill="#1380e2"/><path d="m370 412.5h-321c-11.046 0-20-8.954-20-20v-246c0-11.046 8.954-20 20-20h321c11.046 0 20 8.954 20 20v246c0 11.046-8.954 20-20 20z" fill="#3493f8"/><path d="m235 304.5h-80c-5.523 0-10-4.477-10-10v-110c0-5.523 4.477-10 10-10h80c5.523 0 10 4.477 10 10v110c0 5.523-4.477 10-10 10z" fill="#c8e2fd"/><path d="m350 234.5h-80c-5.523 0-10-4.477-10-10v-40c0-5.523 4.477-10 10-10h80c5.523 0 10 4.477 10 10v40c0 5.523-4.477 10-10 10zm-220 130v-50c0-5.523-4.477-10-10-10h-80c-5.523 0-10 4.477-10 10v50c0 5.523 4.477 10 10 10h80c5.523 0 10-4.477 10-10z" fill="#a7d0fc"/><path d="m120 284.5h-80c-5.523 0-10-4.477-10-10v-90c0-5.523 4.477-10 10-10h80c5.523 0 10 4.477 10 10v90c0 5.523-4.477 10-10 10zm125 80v-30c0-5.523-4.477-10-10-10h-80c-5.523 0-10 4.477-10 10v30c0 5.523 4.477 10 10 10h80c5.523 0 10-4.477 10-10zm115 0v-100c0-5.523-4.477-10-10-10h-80c-5.523 0-10 4.477-10 10v100c0 5.523 4.477 10 10 10h80c5.523 0 10-4.477 10-10z" fill="#76b6fa"/><path d="m390 146.5h-390v-20c0-11.046 8.954-20 20-20h350c11.046 0 20 8.954 20 20z" fill="#c8e2fd"/><path d="m390 146.5h-361v-20c0-11.046 8.954-20 20-20h321c11.046 0 20 8.954 20 20z" fill="#e9f3fe"/><path d="m102.333 234.5-36.667-12.222-36.666 12.222v-110h73.333z" fill="#ff7c48"/><path d="m29 124.5h73.333v22h-73.333z" fill="#ea552d"/><path d="m390 126.5h-390v-40c0-11.046 8.954-20 20-20h350c11.046 0 20 8.954 20 20z" fill="#86befb"/><path d="m390 126.5h-361v-40c0-11.046 8.954-20 20-20h321c11.046 0 20 8.954 20 20z" fill="#a7d0fc"/><path d="m79 96.5c0 5.523-4.477 10-10 10s-10-4.477-10-10 4.477-10 10-10 10 4.477 10 10zm-50-10c-5.523 0-10 4.477-10 10s4.477 10 10 10 10-4.477 10-10-4.477-10-10-10zm80 0c-5.523 0-10 4.477-10 10s4.477 10 10 10 10-4.477 10-10-4.477-10-10-10z" fill="#55a4f9"/><path d="m450 396.5c0 1.261-.03 2.515-.087 3.761-24.949 32.257-57.767 58.118-95.578 74.706-36.683-7.283-64.335-39.645-64.335-78.467v-80c0-44.183 35.817-80 80-80 44.183 0 80 35.817 80 80z" fill="#6a61b4"/><path d="m330 304.5v104c0 25.787 12.201 48.724 31.145 63.354-2.251 1.071-4.521 2.109-6.809 3.113-36.683-7.283-64.336-39.645-64.336-78.467v-80c0-43.443 34.628-78.798 77.788-79.97-22.687 14.119-37.788 39.281-37.788 67.97z" fill="#5f55af"/><path d="m415 366.5c-8.284 0-15-6.716-15-15v-40c0-8.284 6.716-15 15-15 8.284 0 15 6.716 15 15v40c0 8.284-6.716 15-15 15z" fill="#958fca"/><path d="m370.167 316.5c-5.264 0-9.531-4.267-9.531-9.531v-70.938c0-5.264 4.267-9.531 9.531-9.531 5.264 0 9.531 4.267 9.531 9.531v70.938c0 5.264-4.267 9.531-9.531 9.531z" fill="#5f55af"/><path d="m370 346.5c-8.284 0-15-6.716-15-15v-50c0-8.284 6.716-15 15-15 8.284 0 15 6.716 15 15v50c0 8.284-6.716 15-15 15z" fill="#453d83"/><path d="m385 305.5v26c0 8.284-6.716 15-15 15s-15-6.716-15-15v-26c0 8.284 6.716 15 15 15s15-6.716 15-15z" fill="#19305c"/><path d="m395.606 211.5c2.929 2.929 2.929 7.678 0 10.606-1.464 1.464-3.384 2.197-5.303 2.197s-3.839-.732-5.303-2.197c-8.773-8.773-23.048-8.772-31.82 0-2.929 2.929-7.678 2.929-10.606 0-2.929-2.929-2.929-7.678 0-10.606 14.621-14.622 38.411-14.621 53.032 0zm20-20c-25.649-25.649-67.383-25.649-93.033 0-2.929 2.929-2.929 7.678 0 10.606 2.929 2.929 7.678 2.929 10.606 0 19.8-19.801 52.018-19.802 71.82 0 1.464 1.464 3.384 2.197 5.303 2.197s3.839-.732 5.303-2.197c2.93-2.928 2.93-7.677.001-10.606z" fill="#fff5f5"/></g></svg>