<svg id="Capa_1" enable-background="new 0 0 512 512" height="512" viewBox="0 0 512 512" width="512" xmlns="http://www.w3.org/2000/svg"><g><path d="m180.643 494.692c-98.438-31.787-169.641-124.172-169.643-233.188-.002-135.273 109.473-244.866 244.745-245.004 113.072-.115 208.299 76.37 236.656 180.428 2.55 9.359-4.561 18.571-14.262 18.571h-13.408c-146.759.001-265.731 118.973-265.731 265.733 0 9.536-9.282 16.391-18.357 13.46z" fill="#453d83"/><path d="m397.5 208c0 107.696-87.304 195-195 195s-195-87.304-195-195 87.304-195 195-195 195 87.304 195 195z" fill="#3493f8"/><path d="m185.348 402.021c-98.467-9.854-175.348-92.959-175.348-194.021s76.881-184.167 175.348-194.021c-67.987 33.196-115.348 107.581-115.348 194.021s47.361 160.825 115.348 194.021z" fill="#1380e2"/><path d="m202.5 5.5c-111.659 0-202.5 90.841-202.5 202.5s90.841 202.5 202.5 202.5 202.5-90.841 202.5-202.5-90.841-202.5-202.5-202.5zm187.351 195h-76.574c-.399-20.396-2.423-40.271-5.956-59.1h70.461c7.048 18.487 11.25 38.366 12.069 59.1zm-57.515-127.651c15.949 15.327 29.199 33.442 38.96 53.552h-67.162c-4.593-19.292-10.841-37.251-18.607-53.25h44.698c.733-.001 1.441-.106 2.111-.302zm-219.773 199.801c-3.452-18.149-5.436-37.375-5.837-57.15h191.548c-.401 19.776-2.385 39.001-5.837 57.15zm176.626 15c-4.757 19.515-11.298 37.508-19.465 53.25h-134.448c-8.167-15.742-14.708-33.735-19.465-53.25zm-182.463-87.15c.415-20.485 2.529-40.38 6.214-59.1h179.12c3.685 18.719 5.799 38.614 6.214 59.1zm9.567-74.1c4.866-19.373 11.503-37.206 19.754-52.773.084-.159.169-.318.254-.477h132.397c.085.159.17.317.254.477 8.251 15.568 14.889 33.401 19.754 52.773zm198.788-68.25h-37.629c-7.331-12.276-15.447-22.545-24.154-30.659 22.603 6.37 43.489 16.881 61.783 30.659zm-112.581-37.65c20.68 0 40.591 13.23 57.182 37.65h-114.364c16.591-24.42 36.502-37.65 57.182-37.65zm-50.798 6.992c-8.707 8.113-16.823 18.382-24.154 30.659h-37.629c18.294-13.779 39.18-24.29 61.783-30.659zm-79.038 45.357c.669.196 1.378.302 2.111.302h44.698c-7.766 15.999-14.014 33.958-18.607 53.25h-67.162c9.761-20.11 23.012-38.225 38.96-53.552zm-45.446 68.551h70.461c-3.533 18.828-5.557 38.704-5.956 59.1h-76.574c.819-20.734 5.021-40.613 12.069-59.1zm-12.069 74.1h76.574c.385 19.693 2.286 38.902 5.596 57.15h-70.831c-6.608-17.932-10.549-37.143-11.339-57.15zm55.424 125.61c-15.523-15.387-28.378-33.461-37.801-53.459h67.636c4.451 19.25 10.539 37.204 18.13 53.25h-46.201c-.608-.001-1.198.072-1.764.209zm16.803 14.79h39.024c7.629 13.142 16.138 24.069 25.302 32.608-23.658-6.666-45.434-17.87-64.326-32.608zm115.124 39.6c-21.223 0-41.638-13.935-58.484-39.6h116.968c-16.846 25.665-37.261 39.6-58.484 39.6zm50.798-6.992c9.164-8.539 17.673-19.466 25.302-32.608h39.024c-18.892 14.738-40.668 25.942-64.326 32.608zm81.129-47.398c-.566-.137-1.157-.209-1.765-.209h-46.201c7.591-16.046 13.68-34 18.13-53.25h67.636c-9.421 19.997-22.276 38.072-37.8 53.459zm44.085-68.46h-70.832c3.311-18.249 5.211-37.457 5.596-57.15h76.574c-.789 20.007-4.73 39.218-11.338 57.15z" fill="#86befb"/><path d="m200 255.5h300.928c.048 1.994.072 3.994.072 6 0 135.31-109.69 245-245 245-26.529 0-52.074-4.217-76-12.017v-218.983c0-11.046 8.954-20 20-20z" fill="#f5e8b4"/><path d="m229 255.5h271.928c.048 1.994.072 3.994.072 6 0 135.31-109.69 245-245 245-16.075 0-31.789-1.548-47-4.504v-226.496c0-11.046 8.954-20 20-20z" fill="#f9f1d2"/><path d="m229 275.5h-49v-20c0-11.046 8.954-20 20-20h9c11.046 0 20 8.954 20 20z" fill="#ff956a"/><path d="m500.607 275.5h-291.607v-20c0-11.046 8.954-20 20-20h270.636c.901 8.543 1.364 17.218 1.364 26 0 4.699-.132 9.367-.393 14z" fill="#ffad8c"/><path d="m212.25 255.5h-32.25v-40c0-11.046 8.954-20 20-20h30c11.046 0 20 8.954 20 20v2.25c0 20.849-16.901 37.75-37.75 37.75z" fill="#ea552d"/><path d="m500.928 255.5h-291.928v-40c0-11.046 8.954-20 20-20h263.007c5.346 19.156 8.422 39.259 8.921 60z" fill="#f76937"/><path d="m299 225.5c0 5.523-4.477 10-10 10s-10-4.477-10-10 4.477-10 10-10 10 4.477 10 10zm-50-10c-5.523 0-10 4.477-10 10s4.477 10 10 10 10-4.477 10-10-4.477-10-10-10zm-40 0c-5.523 0-10 4.477-10 10s4.477 10 10 10 10-4.477 10-10-4.477-10-10-10z" fill="#d1462a"/><path d="m237.573 75.5c0 11.046-8.954 20-20 20s-20-8.954-20-20 8.954-20 20-20 20 8.954 20 20zm-170 0c11.046 0 20-8.954 20-20s-8.954-20-20-20-20 8.954-20 20 8.955 20 20 20zm0 250c-11.046 0-20 8.954-20 20s8.954 20 20 20 20-8.954 20-20-8.954-20-20-20zm60-170c-11.046 0-20 8.954-20 20s8.954 20 20 20 20-8.954 20-20-8.954-20-20-20zm-50 50c-11.046 0-20 8.954-20 20s8.954 20 20 20 20-8.954 20-20-8.954-20-20-20zm300-90c-11.046 0-20 8.954-20 20s8.954 20 20 20 20-8.954 20-20-8.954-20-20-20z" fill="#eac23f"/><path d="m147.573 175.5c0 2.935-.632 5.722-1.767 8.232-2.511 1.135-5.298 1.768-8.233 1.768-11.046 0-20-8.954-20-20 0-2.935.632-5.722 1.767-8.232 2.511-1.135 5.298-1.768 8.233-1.768 11.046 0 20 8.954 20 20zm70-120c-2.935 0-5.722.632-8.233 1.768-1.135 2.511-1.767 5.298-1.767 8.232 0 11.046 8.954 20 20 20 2.935 0 5.722-.632 8.233-1.768 1.135-2.511 1.767-5.298 1.767-8.232 0-11.046-8.954-20-20-20zm160 60c-2.935 0-5.722.632-8.233 1.768-1.135 2.511-1.767 5.298-1.767 8.232 0 11.046 8.954 20 20 20 2.935 0 5.722-.632 8.233-1.768 1.135-2.511 1.767-5.298 1.767-8.232 0-11.046-8.954-20-20-20zm-300 90c-2.935 0-5.722.632-8.233 1.768-1.135 2.511-1.767 5.298-1.767 8.232 0 11.046 8.954 20 20 20 2.935 0 5.722-.632 8.233-1.768 1.135-2.511 1.767-5.298 1.767-8.232 0-11.046-8.954-20-20-20zm0-140c2.935 0 5.722-.632 8.233-1.768 1.135-2.511 1.767-5.298 1.767-8.232 0-11.046-8.954-20-20-20-2.935 0-5.722.632-8.233 1.768-1.135 2.511-1.767 5.298-1.767 8.232 0 11.046 8.955 20 20 20zm-10 260c-2.935 0-5.722.632-8.233 1.768-1.135 2.511-1.767 5.298-1.767 8.232 0 11.046 8.954 20 20 20 2.935 0 5.722-.632 8.233-1.768 1.135-2.511 1.767-5.298 1.767-8.232 0-11.046-8.954-20-20-20z" fill="#e9cc5a"/><path d="m297.803 164.737c2.929 2.929 2.929 7.678 0 10.606-1.464 1.464-3.384 2.196-5.303 2.196s-3.839-.732-5.303-2.196c-8.773-8.773-23.048-8.772-31.82 0-2.929 2.929-7.678 2.929-10.606 0-2.929-2.929-2.929-7.678 0-10.606 14.62-14.622 38.411-14.621 53.032 0zm20-20c-25.649-25.649-67.383-25.649-93.033 0-2.929 2.929-2.929 7.678 0 10.606 2.929 2.929 7.678 2.929 10.606 0 19.8-19.801 52.018-19.802 71.82 0 1.464 1.464 3.384 2.196 5.303 2.196s3.839-.732 5.303-2.196c2.93-2.928 2.93-7.677.001-10.606z" fill="#fff5f5"/><path d="m433.617 430.252c-44.637 46.967-107.707 76.248-177.617 76.248-1.073 0-2.144-.008-3.214-.021v-150.979h180.832v74.752z" fill="#f5e8b4"/><path d="m480 376.5h-220c-16.569 0-30-13.431-30-30 0-16.569 13.431-30 30-30h220c16.569 0 30 13.431 30 30 0 16.569-13.431 30-30 30z" fill="#edd578"/><path d="m355.5 448c0 4.142-3.358 7.5-7.5 7.5h-65c-4.142 0-7.5-3.358-7.5-7.5s3.358-7.5 7.5-7.5h65c4.142 0 7.5 3.358 7.5 7.5zm-72.5 42.5c-4.142 0-7.5 3.358-7.5 7.5 0 3.459 2.342 6.371 5.528 7.237 19.658-1.995 38.63-6.313 56.635-12.677-1.345-1.277-3.162-2.06-5.163-2.06zm0-10.001h19.5c4.142 0 7.5-3.357 7.5-7.5 0-4.142-3.358-7.5-7.5-7.5h-19.5c-4.142 0-7.5 3.358-7.5 7.5 0 4.143 3.358 7.5 7.5 7.5zm0-74.999h65c4.142 0 7.5-3.358 7.5-7.5s-3.358-7.5-7.5-7.5h-65c-4.142 0-7.5 3.358-7.5 7.5s3.358 7.5 7.5 7.5zm0 24.999h19.5c4.142 0 7.5-3.357 7.5-7.5 0-4.142-3.358-7.5-7.5-7.5h-19.5c-4.142 0-7.5 3.358-7.5 7.5 0 4.143 3.358 7.5 7.5 7.5z" fill="#edd578"/><path d="m322.5 354h-65c-4.142 0-7.5-3.358-7.5-7.5 0-4.142 3.358-7.5 7.5-7.5h65c4.142 0 7.5 3.358 7.5 7.5 0 4.142-3.358 7.5-7.5 7.5zm57.5-7.5c0-4.142-3.358-7.5-7.5-7.5h-25c-4.142 0-7.5 3.358-7.5 7.5 0 4.142 3.358 7.5 7.5 7.5h25c4.142 0 7.5-3.358 7.5-7.5z" fill="#e1b91e"/><path d="m461 397.5c-28.167 0-51-22.833-51-51 0-28.166 22.833-51 51-51 28.166 0 51 22.833 51 51 0 28.167-22.833 51-51 51z" fill="#d1462a"/><path d="m512 346.5c0 10.108-2.941 19.53-8.014 27.456-7.926 5.073-17.347 8.014-27.456 8.014-28.167 0-51-22.833-51-51 0-10.108 2.941-19.53 8.014-27.456 7.926-5.073 17.347-8.014 27.456-8.014 28.167 0 51 22.833 51 51z" fill="#f76937"/><path d="m466.948 313.053c-15.164 0-27.5 12.337-27.5 27.5 0 4.862 1.268 9.434 3.492 13.401l-13.19 13.19c-2.929 2.93-2.929 7.678 0 10.607 1.464 1.464 3.384 2.196 5.303 2.196s3.839-.732 5.303-2.196l13.19-13.19c3.967 2.224 8.539 3.492 13.401 3.492 15.164 0 27.5-12.337 27.5-27.5s-12.336-27.5-27.499-27.5zm0 40c-6.893 0-12.5-5.607-12.5-12.5s5.607-12.5 12.5-12.5 12.5 5.607 12.5 12.5-5.608 12.5-12.5 12.5z" fill="#fff5f5"/></g></svg>