<svg id="Capa_1" enable-background="new 0 0 501 501" height="512" viewBox="0 0 501 501" width="512" xmlns="http://www.w3.org/2000/svg"><g><path d="m489.996 257.397c-.52 93.159-53.034 174.003-129.996 214.991-25.59-38.94-69.058-62.388-115.654-62.388h-189.905c-34.048-42.077-54.441-95.657-54.441-154 0-135.309 109.69-245 244.999-245 135.522 0 245.754 110.878 244.997 246.397z" fill="#f76937"/><path d="m459 277.5c0 4.143-3.358 7.5-7.5 7.5h-70c-4.142 0-7.5-3.357-7.5-7.5s3.358-7.5 7.5-7.5h70c4.142 0 7.5 3.357 7.5 7.5zm-37.5 22.5h-40c-4.142 0-7.5 3.357-7.5 7.5s3.358 7.5 7.5 7.5h40c4.142 0 7.5-3.357 7.5-7.5s-3.358-7.5-7.5-7.5zm-20 30h-20c-4.142 0-7.5 3.357-7.5 7.5s3.358 7.5 7.5 7.5h20c4.142 0 7.5-3.357 7.5-7.5s-3.358-7.5-7.5-7.5z" fill="#ffc5ae"/><path d="m369 62v26c0 6.627-5.373 12-12 12h-6c-6.627 0-12-5.373-12-12v-26c0-6.627 5.373-12 12-12h6c6.627 0 12 5.373 12 12zm-261-62h-30c-16.569 0-30 13.431-30 30v20.378c-5.176 1.332-9 6.03-9 11.622v56c0 5.591 3.824 10.29 9 11.622v272.061c11.777 15.899 25.433 30.323 40.64 42.943 19.619 16.281 49.36 2.094 49.36-23.4v-391.226c0-16.569-13.431-30-30-30z" fill="#453d83"/><path d="m360 30v442.388c-34.292 18.262-73.437 28.612-115 28.612-43.46 0-84.277-11.316-119.666-31.162-23.172-12.996-37.334-37.683-37.334-64.251v-375.587c0-16.568 13.431-30 30-30h212c16.569 0 30 13.432 30 30z" fill="#51489a"/><path d="m159 120v340c0 5.523-4.477 10-10 10h-23.376c-13.363-7.47-25.954-16.156-37.624-25.907v-394.093c0-5.523 4.477-10 10-10h41c5.523 0 10 4.477 10 10v60c5.523 0 10 4.477 10 10z" fill="#55a4f9"/><path d="m310 470h-182c-5.523 0-10-4.477-10-10v-410c0-5.523 4.477-10 10-10h182c5.523 0 10 4.477 10 10v410c0 5.523-4.477 10-10 10z" fill="#76b6fa"/><path d="m289 270h-80c-16.569 0-30-13.431-30-30 0-16.569 13.431-30 30-30h80c16.569 0 30 13.431 30 30 0 16.569-13.431 30-30 30zm-40-160c0-16.569-13.431-30-30-30h-80c-16.569 0-30 13.431-30 30 0 16.569 13.431 30 30 30h80c16.569 0 30-13.431 30-30zm0 300c0-16.569-13.431-30-30-30h-80c-16.569 0-30 13.431-30 30 0 16.569 13.431 30 30 30h80c16.569 0 30-13.431 30-30z" fill="#3493f8"/><path d="m243.75 50h-79.5c-8.975 0-16.25-7.275-16.25-16.25 0-8.975 7.275-16.25 16.25-16.25h79.5c8.975 0 16.25 7.275 16.25 16.25 0 8.975-7.275 16.25-16.25 16.25z" fill="#51489a"/><path d="m184 25c0 4.142-3.358 7.5-7.5 7.5s-7.5-3.358-7.5-7.5 3.358-7.5 7.5-7.5 7.5 3.358 7.5 7.5zm47.5-7.5h-30c-4.142 0-7.5 3.358-7.5 7.5s3.358 7.5 7.5 7.5h30c4.142 0 7.5-3.358 7.5-7.5s-3.358-7.5-7.5-7.5z" fill="#19305c"/><path d="m426 244.14h-222c-41.421 0-75-33.579-75-75 0-41.421 33.579-75 75-75h222c41.421 0 75 33.579 75 75 0 41.422-33.579 75-75 75z" fill="#f5e8b4"/><path d="m501 169.141c0 41.421-33.579 75-75 75h-78.327l-28.487 43.595c-1.973 3.02-6.398 3.02-8.371 0l-28.487-43.595h-38.328c-41.421 0-75-33.579-75-75 0-41.421 33.579-75 75-75h182c41.421 0 75 33.578 75 75z" fill="#f9f1d2"/><path d="m459 180h-110c-5.523 0-10-4.477-10-10 0-5.523 4.477-10 10-10h110c5.523 0 10 4.477 10 10 0 5.523-4.477 10-10 10z" fill="#edd578"/><path d="m329 180h-70c-5.523 0-10-4.477-10-10 0-5.523 4.477-10 10-10h70c5.523 0 10 4.477 10 10 0 5.523-4.477 10-10 10z" fill="#f76937"/><path d="m370 170c0 13.807-11.193 25-25 25s-25-11.193-25-25 11.193-25 25-25 25 11.193 25 25z" fill="#bc3f2a"/><path d="m234 169.14c0 24.853-20.147 45-45 45s-45-20.147-45-45 20.147-45 45-45 45 20.148 45 45z" fill="#d1462a"/><path d="m234 169.14c0 8.023-2.1 15.555-5.779 22.077-6.523 3.679-14.055 5.779-22.078 5.779-24.853 0-45-20.147-45-45 0-8.023 2.1-15.555 5.78-22.077 6.523-3.679 14.055-5.779 22.077-5.779 24.853 0 45 20.147 45 45z" fill="#f76937"/><path d="m210.771 172.015-28.932 19.557c-2.562 1.731-6.017-.104-6.017-3.196v-39.113c0-3.092 3.456-4.927 6.017-3.196l28.932 19.557c2.262 1.529 2.262 4.861 0 6.391z" fill="#fff5f5"/><path d="m139 314v86c0 11.046-8.954 20-20 20h-90c-11.046 0-20-8.954-20-20v-86c0-11.046 8.954-20 20-20h90c11.046 0 20 8.954 20 20z" fill="#e1b91e"/><path d="m289 314v86c0 11.046-8.954 20-20 20h-211c-11.046 0-20-8.954-20-20v-86c0-11.046 8.954-20 20-20h211c11.046 0 20 8.954 20 20z" fill="#eac23f"/><path d="m60.931 325.105v-6.811c0-4.386 3.555-7.941 7.941-7.941h10.593c4.386 0 7.941 3.556 7.941 7.941v6.811c0 4.386-3.555 7.941-7.941 7.941h-10.593c-4.386 0-7.941-3.555-7.941-7.941zm-17.397-14.752h-10.593c-4.386 0-7.941 3.556-7.941 7.941v6.811c0 4.386 3.555 7.941 7.941 7.941h10.593c4.386 0 7.941-3.555 7.941-7.941v-6.811c0-4.386-3.555-7.941-7.941-7.941zm61.269 22.693h10.593c4.386 0 7.941-3.555 7.941-7.941v-6.811c0-4.386-3.555-7.941-7.941-7.941h-10.593c-4.386 0-7.941 3.556-7.941 7.941v6.811c0 4.386 3.555 7.941 7.941 7.941zm83.59-22.693h-10.593c-4.386 0-7.941 3.556-7.941 7.941v6.811c0 4.386 3.555 7.941 7.941 7.941h10.593c4.386 0 7.941-3.555 7.941-7.941v-6.811c0-4.386-3.555-7.941-7.941-7.941zm-46.524 22.693h10.593c4.386 0 7.941-3.555 7.941-7.941v-6.811c0-4.386-3.555-7.941-7.941-7.941h-10.593c-4.386 0-7.941 3.556-7.941 7.941v6.811c0 4.386 3.555 7.941 7.941 7.941zm-72.997 35.301h10.593c4.386 0 7.941-3.556 7.941-7.941v-6.811c0-4.386-3.555-7.941-7.941-7.941h-10.593c-4.386 0-7.941 3.556-7.941 7.941v6.811c0 4.385 3.555 7.941 7.941 7.941zm-25.338-22.694h-10.593c-4.386 0-7.941 3.556-7.941 7.941v6.811c0 4.386 3.555 7.941 7.941 7.941h10.593c4.386 0 7.941-3.556 7.941-7.941v-6.811c0-4.385-3.555-7.941-7.941-7.941zm61.269 22.694h10.593c4.386 0 7.941-3.556 7.941-7.941v-6.811c0-4.386-3.555-7.941-7.941-7.941h-10.593c-4.386 0-7.941 3.556-7.941 7.941v6.811c0 4.385 3.555 7.941 7.941 7.941zm83.59-22.694h-10.593c-4.386 0-7.941 3.556-7.941 7.941v6.811c0 4.386 3.555 7.941 7.941 7.941h10.593c4.386 0 7.941-3.556 7.941-7.941v-6.811c0-4.385-3.555-7.941-7.941-7.941zm-46.524 22.694h10.593c4.386 0 7.941-3.556 7.941-7.941v-6.811c0-4.386-3.555-7.941-7.941-7.941h-10.593c-4.386 0-7.941 3.556-7.941 7.941v6.811c0 4.385 3.555 7.941 7.941 7.941zm-98.335 12.607h-10.593c-4.386 0-7.941 3.555-7.941 7.941v6.811c0 4.386 3.555 7.941 7.941 7.941h10.593c4.386 0 7.941-3.556 7.941-7.941v-6.811c0-4.386-3.555-7.941-7.941-7.941zm109.724 0h-86.317c-4.386 0-7.941 3.555-7.941 7.941v6.811c0 4.386 3.555 7.941 7.941 7.941h86.317c4.386 0 7.941-3.556 7.941-7.941v-6.811c.001-4.386-3.555-7.941-7.941-7.941zm35.135 0h-10.593c-4.386 0-7.941 3.555-7.941 7.941v6.811c0 4.386 3.555 7.941 7.941 7.941h10.593c4.386 0 7.941-3.556 7.941-7.941v-6.811c0-4.386-3.555-7.941-7.941-7.941zm28.412-47.908h10.593c4.386 0 7.941-3.555 7.941-7.941v-6.811c0-4.386-3.555-7.941-7.941-7.941h-10.593c-4.386 0-7.941 3.556-7.941 7.941v6.811c0 4.386 3.555 7.941 7.941 7.941zm35.931 0h10.593c4.386 0 7.941-3.555 7.941-7.941v-6.811c0-4.386-3.555-7.941-7.941-7.941h-10.593c-4.386 0-7.941 3.556-7.941 7.941v6.811c0 4.386 3.555 7.941 7.941 7.941zm10.593 12.607h-46.388c-4.386 0-7.941 3.556-7.941 7.941v6.811c0 4.386 3.555 7.941 7.941 7.941h46.388c4.386 0 7.941-3.556 7.941-7.941v-6.811c0-4.385-3.555-7.941-7.941-7.941zm-35.931 35.301h-10.593c-4.386 0-7.941 3.555-7.941 7.941v6.811c0 4.386 3.555 7.941 7.941 7.941h10.593c4.386 0 7.941-3.556 7.941-7.941v-6.811c0-4.386-3.555-7.941-7.941-7.941zm35.931 0h-10.593c-4.386 0-7.941 3.555-7.941 7.941v6.811c0 4.386 3.555 7.941 7.941 7.941h10.593c4.386 0 7.941-3.556 7.941-7.941v-6.811c0-4.386-3.555-7.941-7.941-7.941z" fill="#f1de96"/></g></svg>